<svg xmlns="http://www.w3.org/2000/svg" viewBox="-54.99999999999999 -54.99999999999999 109.99999999999999 109.99999999999999" stroke-linecap="round"><circle cx="0" cy="0" r="49.99999999999999" stroke="green" stroke-width="1" fill="none" />
<path d="M -38.61735452889545 -10.08699929189599 A 5.043499645947993 5.043499645947993 0 0 0 -28.53035523699946 -10.086999291895989" stroke="red" stroke-width="1" fill="none" />
<path d="M 38.617354528895774 -10.086999291894728 A 5.043499645947993 5.043499645947993 0 1 0 48.70435382079175 -10.086999291894568" stroke="red" stroke-width="1" fill="none" />
<path d="M 28.530355236999785 -10.086999291895058 A 5.043499645947993 5.043499645947993 0 1 0 38.617354528895774 -10.086999291894898" stroke="red" stroke-width="1" fill="none" />
<path d="M 10.08699929189599 -38.61735452889545 A 5.043499645947993 5.043499645947993 0 0 0 10.086999291895989 -28.53035523699946" stroke="red" stroke-width="1" fill="none" />
<path d="M 10.08699929189599 -48.70435382079144 A 5.043499645947993 5.043499645947993 0 0 0 10.086999291895989 -38.61735452889545" stroke="red" stroke-width="1" fill="none" />
<path d="M 4.235717394439838 -24.68757015451348 A 7.230821887238622 7.230821887238622 0 0 0 14.461643774476741 -14.461643774476228" stroke="red" stroke-width="1" fill="none" />
<path d="M 14.461643774476704 -14.46164377447628 A 7.230821887238622 7.230821887238622 0 0 0 24.687570154513608 -4.2357173944390265" stroke="red" stroke-width="1" fill="none" />
<path d="M -28.6918111265107 -11.88453729764895 A 66.69105307384122 66.69105307384122 0 0 0 -36.83225204010653 -33.81397950040884" stroke="red" stroke-width="1" fill="none" />
<path d="M 48.3769120885145 12.636232697290545 A 10.08699929189599 10.08699929189599 0 1 0 28.691809839035393 11.88453018851531" stroke="red" stroke-width="1" fill="none" />
<path d="M 38.61735452889545 10.086999291896 A 5.043499645947993 5.043499645947993 0 0 0 28.53035523699946 10.086999291896" stroke="red" stroke-width="1" fill="none" />
<path d="M -33.8139795004088 -36.83225204010651 A 66.69105307384122 66.69105307384122 0 0 0 -11.884537297648603 -28.691811126510643" stroke="red" stroke-width="1" fill="none" />
<path d="M -38.617354528895774 10.08699929189457 A 5.043499645947993 5.043499645947993 0 0 0 -48.70435382079175 10.086999291894411" stroke="red" stroke-width="1" fill="none" />
<path d="M 11.884530527144058 -28.691809900361726 A 14.46164377447722 14.46164377447722 0 1 0 28.691811126513254 -11.884537297648116" stroke="red" stroke-width="1" fill="none" />
<path d="M 12.636232697292414 -48.376912088514686 A 10.08699929189599 10.08699929189599 0 1 0 11.884530527144056 -28.69180990036156" stroke="red" stroke-width="1" fill="none" />
<path d="M 48.70435382079144 10.086999291896 A 5.043499645947993 5.043499645947993 0 0 0 38.61735452889545 10.086999291896" stroke="red" stroke-width="1" fill="none" />
<path d="M -28.530355236999785 10.0869992918949 A 5.043499645947993 5.043499645947993 0 0 0 -38.617354528895774 10.086999291894731" stroke="red" stroke-width="1" fill="none" />
<path d="M -28.691811126512782 -11.884537297648567 A 14.46164377447722 14.46164377447722 0 1 0 -11.884537297648153 -28.69181112651326" stroke="red" stroke-width="1" fill="none" />
<path d="M -14.461643774476705 14.461643774476277 A 7.230821887238622 7.230821887238622 0 0 0 -24.68757015451361 4.235717394439029" stroke="red" stroke-width="1" fill="none" />
<path d="M -4.235717394439848 24.687570154513487 A 7.230821887238622 7.230821887238622 0 1 0 -14.461643774476745 14.461643774476233" stroke="red" stroke-width="1" fill="none" />
<path d="M -10.086999291895992 48.70435382079144 A 5.043499645947993 5.043499645947993 0 0 0 -10.086999291895989 38.61735452889545" stroke="red" stroke-width="1" fill="none" />
<path d="M -24.687570154513487 -4.235717394439845 A 7.230821887238622 7.230821887238622 0 1 0 -14.461643774476237 -14.461643774476752" stroke="red" stroke-width="1" fill="none" />
<path d="M -48.70435382079144 -10.08699929189599 A 5.043499645947993 5.043499645947993 0 0 0 -38.61735452889545 -10.086999291895989" stroke="red" stroke-width="1" fill="none" />
<path d="M -14.461643774476276 -14.461643774476704 A 7.230821887238622 7.230821887238622 0 0 0 -4.235717394439029 -24.68757015451361" stroke="red" stroke-width="1" fill="none" />
<path d="M -10.086999291895062 -28.530355236999785 A 5.043499645947993 5.043499645947993 0 0 0 -10.086999291894733 -38.617354528895774" stroke="red" stroke-width="1" fill="none" />
<path d="M -10.086999291894731 -38.617354528895774 A 5.043499645947993 5.043499645947993 0 0 0 -10.086999291894406 -48.70435382079175" stroke="red" stroke-width="1" fill="none" />
<path d="M -10.086999291896001 38.61735452889545 A 5.043499645947993 5.043499645947993 0 0 0 -10.086999291895998 28.53035523699946" stroke="red" stroke-width="1" fill="none" />
<path d="M 33.81397950040883 36.83225204010654 A 66.69105307384122 66.69105307384122 0 0 0 11.884537297648642 28.691811126510643" stroke="red" stroke-width="1" fill="none" />
<path d="M 24.687570154513484 4.235717394439845 A 7.230821887238622 7.230821887238622 0 0 0 14.46164377447623 14.461643774476746" stroke="red" stroke-width="1" fill="none" />
<path d="M 28.691809839035347 11.884530188515345 A 14.46164377447722 14.46164377447722 0 1 0 11.884537297648167 28.69181112651325" stroke="red" stroke-width="1" fill="none" />
<path d="M 14.461643774476274 14.461643774476702 A 7.230821887238622 7.230821887238622 0 0 0 4.235717394439026 24.687570154513608" stroke="red" stroke-width="1" fill="none" />
<path d="M -11.88453052714228 28.691809900361278 A 66.69105307384122 66.69105307384122 0 0 0 -33.81397950040883 36.83225204010652" stroke="red" stroke-width="1" fill="none" />
<path d="M 10.08699929189506 28.530355236999785 A 5.043499645947993 5.043499645947993 0 0 0 10.086999291894733 38.617354528895774" stroke="red" stroke-width="1" fill="none" />
<path d="M -28.691811126511137 11.88453729764854 A 10.08699929189599 10.08699929189599 0 1 0 -48.376912088513166 12.636232697292156" stroke="red" stroke-width="1" fill="none" />
<path d="M 10.08699929189473 38.617354528895774 A 5.043499645947993 5.043499645947993 0 0 0 10.086999291894402 48.70435382079175" stroke="red" stroke-width="1" fill="none" />
<path d="M -12.636232697291 48.37691208851293 A 10.08699929189599 10.08699929189599 0 1 0 -11.88453052714255 28.691809900359715" stroke="red" stroke-width="1" fill="none" />
<path d="M -11.88453052714228 28.691809900361406 A 14.46164377447722 14.46164377447722 0 1 0 -28.69181112651326 11.884537297648151" stroke="red" stroke-width="1" fill="none" />
<path d="M 11.88453729764861 28.6918111265106 A 10.08699929189599 10.08699929189599 0 1 0 12.636232697294083 48.376912088512775" stroke="red" stroke-width="1" fill="none" />
<path d="M 11.884530527144065 -28.691809900361605 A 66.69105307384122 66.69105307384122 0 0 0 33.81397950040878 -36.832252040106496" stroke="red" stroke-width="1" fill="none" />
<path d="M 28.69180983903543 11.884530188515345 A 66.69105307384122 66.69105307384122 0 0 0 36.8322520401065 33.813979500408784" stroke="red" stroke-width="1" fill="none" />
<path d="M 28.691811126512032 -11.884537297648372 A 10.08699929189599 10.08699929189599 0 1 0 48.37691208851432 -12.63623269729431" stroke="red" stroke-width="1" fill="none" />
<path d="M -48.376912088513116 -12.636232697292844 A 10.08699929189599 10.08699929189599 0 1 0 -28.69181112651109 -11.884537297648864" stroke="red" stroke-width="1" fill="none" />
<path d="M 36.832252040106525 -33.81397950040882 A 66.69105307384122 66.69105307384122 0 0 0 28.69181112651063 -11.884537297648569" stroke="red" stroke-width="1" fill="none" />
<path d="M -36.83225204010654 33.81397950040885 A 66.69105307384122 66.69105307384122 0 0 0 -28.69181112651063 11.884537297648546" stroke="red" stroke-width="1" fill="none" />
<path d="M -11.884537297648272 -28.69181112651256 A 10.08699929189599 10.08699929189599 0 1 0 -12.63623269729241 -48.376912088514686" stroke="red" stroke-width="1" fill="none" />
<polygon points="-1.9999999999999998,-0.9999999999999999 -1.9999999999999998,0.9999999999999999 1.9999999999999998,0" transform="translate(-38.61735452889545,-10.08699929189599) rotate(90.00000000000001)" fill="green" stroke="black" stroke-width="0.5" />
<polygon points="-1.9999999999999998,-0.9999999999999999 -1.9999999999999998,0.9999999999999999 1.9999999999999998,0" transform="translate(38.617354528895774,-10.086999291894728) rotate(90.00000000000092)" fill="green" stroke="black" stroke-width="0.5" />
<polygon points="-1.9999999999999998,-0.9999999999999999 -1.9999999999999998,0.9999999999999999 1.9999999999999998,0" transform="translate(10.08699929189599,-38.61735452889545) rotate(-180)" fill="green" stroke="black" stroke-width="0.5" />
<polygon points="-1.9999999999999998,-0.9999999999999999 -1.9999999999999998,0.9999999999999999 1.9999999999999998,0" transform="translate(14.461643774476741,-14.461643774476228) rotate(135.00000000000097)" fill="green" stroke="black" stroke-width="0.5" />
<polygon points="-1.9999999999999998,-0.9999999999999999 -1.9999999999999998,0.9999999999999999 1.9999999999999998,0" transform="translate(-28.6918111265107,-11.88453729764895) rotate(-180)" fill="green" stroke="black" stroke-width="0.5" />
<polygon points="-1.9999999999999998,-0.9999999999999999 -1.9999999999999998,0.9999999999999999 1.9999999999999998,0" transform="translate(-28.6918111265107,-11.88453729764895) rotate(-10.265116330893068)" fill="green" stroke="black" stroke-width="0.5" />
<polygon points="-1.9999999999999998,-0.9999999999999999 -1.9999999999999998,0.9999999999999999 1.9999999999999998,0" transform="translate(28.691809839035393,11.88453018851531) rotate(-100.26511011858811)" fill="green" stroke="black" stroke-width="0.5" />
<polygon points="-1.9999999999999998,-0.9999999999999999 -1.9999999999999998,0.9999999999999999 1.9999999999999998,0" transform="translate(28.691809839035393,11.88453018851531) rotate(-10.265092835791172)" fill="green" stroke="black" stroke-width="0.5" />
<polygon points="-1.9999999999999998,-0.9999999999999999 -1.9999999999999998,0.9999999999999999 1.9999999999999998,0" transform="translate(38.61735452889545,10.086999291896) rotate(-90)" fill="green" stroke="black" stroke-width="0.5" />
<polygon points="-1.9999999999999998,-0.9999999999999999 -1.9999999999999998,0.9999999999999999 1.9999999999999998,0" transform="translate(-11.884537297648603,-28.691811126510643) rotate(96.34019174590993)" fill="green" stroke="black" stroke-width="0.5" />
<polygon points="-1.9999999999999998,-0.9999999999999999 -1.9999999999999998,0.9999999999999999 1.9999999999999998,0" transform="translate(-11.884537297648603,-28.691811126510643) rotate(100.26511632706116)" fill="green" stroke="black" stroke-width="0.5" />
<polygon points="-1.9999999999999998,-0.9999999999999999 -1.9999999999999998,0.9999999999999999 1.9999999999999998,0" transform="translate(-38.617354528895774,10.08699929189457) rotate(-89.99999999999905)" fill="green" stroke="black" stroke-width="0.5" />
<polygon points="-1.9999999999999998,-0.9999999999999999 -1.9999999999999998,0.9999999999999999 1.9999999999999998,0" transform="translate(11.884530527144058,-28.691809900361726) rotate(169.73488958575993)" fill="green" stroke="black" stroke-width="0.5" />
<polygon points="-1.9999999999999998,-0.9999999999999999 -1.9999999999999998,0.9999999999999999 1.9999999999999998,0" transform="translate(11.884530527144058,-28.691809900361726) rotate(79.73488958899947)" fill="green" stroke="black" stroke-width="0.5" />
<polygon points="-1.9999999999999998,-0.9999999999999999 -1.9999999999999998,0.9999999999999999 1.9999999999999998,0" transform="translate(28.691811126513254,-11.884537297648116) rotate(100.26511632555487)" fill="green" stroke="black" stroke-width="0.5" />
<polygon points="-1.9999999999999998,-0.9999999999999999 -1.9999999999999998,0.9999999999999999 1.9999999999999998,0" transform="translate(28.691811126513254,-11.884537297648116) rotate(-170.66500153686178)" fill="green" stroke="black" stroke-width="0.5" />
<polygon points="-1.9999999999999998,-0.9999999999999999 -1.9999999999999998,0.9999999999999999 1.9999999999999998,0" transform="translate(11.884530527144056,-28.69180990036156) rotate(-100.7842978675626)" fill="green" stroke="black" stroke-width="0.5" />
<polygon points="-1.9999999999999998,-0.9999999999999999 -1.9999999999999998,0.9999999999999999 1.9999999999999998,0" transform="translate(-28.691811126512782,-11.884537297648567) rotate(79.73488367444007)" fill="green" stroke="black" stroke-width="0.5" />
<polygon points="-1.9999999999999998,-0.9999999999999999 -1.9999999999999998,0.9999999999999999 1.9999999999999998,0" transform="translate(-11.884537297648153,-28.69181112651326) rotate(10.265116325558893)" fill="green" stroke="black" stroke-width="0.5" />
<polygon points="-1.9999999999999998,-0.9999999999999999 -1.9999999999999998,0.9999999999999999 1.9999999999999998,0" transform="translate(-14.461643774476705,14.461643774476277) rotate(-44.99999999999904)" fill="green" stroke="black" stroke-width="0.5" />
<polygon points="-1.9999999999999998,-0.9999999999999999 -1.9999999999999998,0.9999999999999999 1.9999999999999998,0" transform="translate(-10.086999291895989,38.61735452889545) rotate(1.4033418597069754e-14)" fill="green" stroke="black" stroke-width="0.5" />
<polygon points="-1.9999999999999998,-0.9999999999999999 -1.9999999999999998,0.9999999999999999 1.9999999999999998,0" transform="translate(-14.461643774476237,-14.461643774476752) rotate(45.00000000000093)" fill="green" stroke="black" stroke-width="0.5" />
<polygon points="-1.9999999999999998,-0.9999999999999999 -1.9999999999999998,0.9999999999999999 1.9999999999999998,0" transform="translate(-10.086999291894733,-38.617354528895774) rotate(1.8714773525717636e-12)" fill="green" stroke="black" stroke-width="0.5" />
<polygon points="-1.9999999999999998,-0.9999999999999999 -1.9999999999999998,0.9999999999999999 1.9999999999999998,0" transform="translate(11.884537297648642,28.691811126510643) rotate(98.42696902148069)" fill="green" stroke="black" stroke-width="0.5" />
<polygon points="-1.9999999999999998,-0.9999999999999999 -1.9999999999999998,0.9999999999999999 1.9999999999999998,0" transform="translate(11.884537297648642,28.691811126510643) rotate(-79.7348836708783)" fill="green" stroke="black" stroke-width="0.5" />
<polygon points="-1.9999999999999998,-0.9999999999999999 -1.9999999999999998,0.9999999999999999 1.9999999999999998,0" transform="translate(14.46164377447623,14.461643774476746) rotate(-134.99999999999903)" fill="green" stroke="black" stroke-width="0.5" />
<polygon points="-1.9999999999999998,-0.9999999999999999 -1.9999999999999998,0.9999999999999999 1.9999999999999998,0" transform="translate(11.884537297648167,28.69181112651325) rotate(-169.73488367444375)" fill="green" stroke="black" stroke-width="0.5" />
<polygon points="-1.9999999999999998,-0.9999999999999999 -1.9999999999999998,0.9999999999999999 1.9999999999999998,0" transform="translate(28.691809839035347,11.884530188515345) rotate(169.73488905665243)" fill="green" stroke="black" stroke-width="0.5" />
<polygon points="-1.9999999999999998,-0.9999999999999999 -1.9999999999999998,0.9999999999999999 1.9999999999999998,0" transform="translate(-11.88453052714228,28.691809900361278) rotate(80.40686573726967)" fill="green" stroke="black" stroke-width="0.5" />
<polygon points="-1.9999999999999998,-0.9999999999999999 -1.9999999999999998,0.9999999999999999 1.9999999999999998,0" transform="translate(-11.88453052714228,28.691809900361278) rotate(-100.2651104170313)" fill="green" stroke="black" stroke-width="0.5" />
<polygon points="-1.9999999999999998,-0.9999999999999999 -1.9999999999999998,0.9999999999999999 1.9999999999999998,0" transform="translate(10.086999291894733,38.617354528895774) rotate(-179.99999999999815)" fill="green" stroke="black" stroke-width="0.5" />
<polygon points="-1.9999999999999998,-0.9999999999999999 -1.9999999999999998,0.9999999999999999 1.9999999999999998,0" transform="translate(-28.691811126511137,11.88453729764854) rotate(-79.73488367443956)" fill="green" stroke="black" stroke-width="0.5" />
<polygon points="-1.9999999999999998,-0.9999999999999999 -1.9999999999999998,0.9999999999999999 1.9999999999999998,0" transform="translate(-28.691811126511137,11.88453729764854) rotate(10.265116333788598)" fill="green" stroke="black" stroke-width="0.5" />
<polygon points="-1.9999999999999998,-0.9999999999999999 -1.9999999999999998,0.9999999999999999 1.9999999999999998,0" transform="translate(-11.88453052714255,28.691809900359715) rotate(-10.265110414242907)" fill="green" stroke="black" stroke-width="0.5" />
<polygon points="-1.9999999999999998,-0.9999999999999999 -1.9999999999999998,0.9999999999999999 1.9999999999999998,0" transform="translate(-28.69181112651326,11.884537297648151) rotate(10.154266580200263)" fill="green" stroke="black" stroke-width="0.5" />
<polygon points="-1.9999999999999998,-0.9999999999999999 -1.9999999999999998,0.9999999999999999 1.9999999999999998,0" transform="translate(28.691811126512032,-11.884537297648372) rotate(-169.73488367486019)" fill="green" stroke="black" stroke-width="0.5" />
<circle cx="-28.53035523699946" cy="-10.086999291895989" r="0.5999999999999999" stroke="black" stroke-width="0.5" fill="yellow" />
<text x="-27.730355236999458" y="-10.48699929189599" font-size="1.5999999999999999" fill="black" stroke="white" stroke-width="0.032">0</text>
<circle cx="-28.640567804961623" cy="-9.03839675286817" r="0.5999999999999999" stroke="black" stroke-width="0.5" fill="yellow" />
<text x="-27.840567804961623" y="-9.43839675286817" font-size="1.5999999999999999" fill="black" stroke="white" stroke-width="0.032">1</text>
<circle cx="-28.966388690769598" cy="-8.035623176549118" r="0.5999999999999999" stroke="black" stroke-width="0.5" fill="yellow" />
<text x="-28.166388690769598" y="-8.435623176549118" font-size="1.5999999999999999" fill="black" stroke="white" stroke-width="0.032">2</text>
<circle cx="-29.493577958251496" cy="-7.122504580065449" r="0.5999999999999999" stroke="black" stroke-width="0.5" fill="yellow" />
<text x="-28.693577958251495" y="-7.5225045800654495" font-size="1.5999999999999999" fill="black" stroke="white" stroke-width="0.032">3</text>
<circle cx="-30.199094906683587" cy="-6.338948627712668" r="0.5999999999999999" stroke="black" stroke-width="0.5" fill="yellow" />
<text x="-29.399094906683587" y="-6.738948627712668" font-size="1.5999999999999999" fill="black" stroke="white" stroke-width="0.032">4</text>
<circle cx="-31.052105059973453" cy="-5.719200474527207" r="0.5999999999999999" stroke="black" stroke-width="0.5" fill="yellow" />
<text x="-30.252105059973452" y="-6.119200474527207" font-size="1.5999999999999999" fill="black" stroke="white" stroke-width="0.032">5</text>
<circle cx="-32.015327781225494" cy="-5.290346088684852" r="0.5999999999999999" stroke="black" stroke-width="0.5" fill="yellow" />
<text x="-31.215327781225493" y="-5.690346088684852" font-size="1.5999999999999999" fill="black" stroke="white" stroke-width="0.032">6</text>
<circle cx="-33.04666561546556" cy="-5.071128464718577" r="0.5999999999999999" stroke="black" stroke-width="0.5" fill="yellow" />
<text x="-32.24666561546556" y="-5.471128464718578" font-size="1.5999999999999999" fill="black" stroke="white" stroke-width="0.032">7</text>
<circle cx="-34.101044150429345" cy="-5.071128464718577" r="0.5999999999999999" stroke="black" stroke-width="0.5" fill="yellow" />
<text x="-33.30104415042935" y="-5.471128464718578" font-size="1.5999999999999999" fill="black" stroke="white" stroke-width="0.032">8</text>
<circle cx="-35.132381984669415" cy="-5.290346088684853" r="0.5999999999999999" stroke="black" stroke-width="0.5" fill="yellow" />
<text x="-34.33238198466942" y="-5.690346088684853" font-size="1.5999999999999999" fill="black" stroke="white" stroke-width="0.032">9</text>
<circle cx="-36.095604705921446" cy="-5.719200474527206" r="0.5999999999999999" stroke="black" stroke-width="0.5" fill="yellow" />
<text x="-35.29560470592145" y="-6.119200474527206" font-size="1.5999999999999999" fill="black" stroke="white" stroke-width="0.032">10</text>
<circle cx="-36.94861485921132" cy="-6.33894862771267" r="0.5999999999999999" stroke="black" stroke-width="0.5" fill="yellow" />
<text x="-36.14861485921132" y="-6.73894862771267" font-size="1.5999999999999999" fill="black" stroke="white" stroke-width="0.032">11</text>
<circle cx="-37.65413180764341" cy="-7.122504580065451" r="0.5999999999999999" stroke="black" stroke-width="0.5" fill="yellow" />
<text x="-36.85413180764341" y="-7.522504580065451" font-size="1.5999999999999999" fill="black" stroke="white" stroke-width="0.032">12</text>
<circle cx="-38.181321075125304" cy="-8.03562317654912" r="0.5999999999999999" stroke="black" stroke-width="0.5" fill="yellow" />
<text x="-37.38132107512531" y="-8.43562317654912" font-size="1.5999999999999999" fill="black" stroke="white" stroke-width="0.032">13</text>
<circle cx="-38.50714196093328" cy="-9.038396752868174" r="0.5999999999999999" stroke="black" stroke-width="0.5" fill="yellow" />
<text x="-37.707141960933285" y="-9.438396752868174" font-size="1.5999999999999999" fill="black" stroke="white" stroke-width="0.032">14</text>
<circle cx="-38.61735452889545" cy="-10.08699929189599" r="0.5999999999999999" stroke="black" stroke-width="0.5" fill="yellow" />
<text x="-37.81735452889545" y="-10.486999291895991" font-size="1.5999999999999999" fill="black" stroke="white" stroke-width="0.032">15</text>
<circle cx="-38.72756709685762" cy="-9.03839675286817" r="0.5999999999999999" stroke="black" stroke-width="0.5" fill="yellow" />
<text x="-37.92756709685762" y="-9.43839675286817" font-size="1.5999999999999999" fill="black" stroke="white" stroke-width="0.032">16</text>
<circle cx="-39.05338798266559" cy="-8.035623176549118" r="0.5999999999999999" stroke="black" stroke-width="0.5" fill="yellow" />
<text x="-38.25338798266559" y="-8.435623176549118" font-size="1.5999999999999999" fill="black" stroke="white" stroke-width="0.032">17</text>
<circle cx="-39.580577250147485" cy="-7.122504580065449" r="0.5999999999999999" stroke="black" stroke-width="0.5" fill="yellow" />
<text x="-38.78057725014749" y="-7.5225045800654495" font-size="1.5999999999999999" fill="black" stroke="white" stroke-width="0.032">18</text>
<circle cx="-40.286094198579576" cy="-6.338948627712668" r="0.5999999999999999" stroke="black" stroke-width="0.5" fill="yellow" />
<text x="-39.48609419857958" y="-6.738948627712668" font-size="1.5999999999999999" fill="black" stroke="white" stroke-width="0.032">19</text>
<circle cx="-41.13910435186945" cy="-5.719200474527207" r="0.5999999999999999" stroke="black" stroke-width="0.5" fill="yellow" />
<text x="-40.33910435186945" y="-6.119200474527207" font-size="1.5999999999999999" fill="black" stroke="white" stroke-width="0.032">20</text>
<circle cx="-42.10232707312149" cy="-5.290346088684852" r="0.5999999999999999" stroke="black" stroke-width="0.5" fill="yellow" />
<text x="-41.30232707312149" y="-5.690346088684852" font-size="1.5999999999999999" fill="black" stroke="white" stroke-width="0.032">21</text>
<circle cx="-43.13366490736155" cy="-5.071128464718577" r="0.5999999999999999" stroke="black" stroke-width="0.5" fill="yellow" />
<text x="-42.33366490736155" y="-5.471128464718578" font-size="1.5999999999999999" fill="black" stroke="white" stroke-width="0.032">22</text>
<circle cx="-44.18804344232534" cy="-5.071128464718577" r="0.5999999999999999" stroke="black" stroke-width="0.5" fill="yellow" />
<text x="-43.38804344232534" y="-5.471128464718578" font-size="1.5999999999999999" fill="black" stroke="white" stroke-width="0.032">23</text>
<circle cx="-45.21938127656541" cy="-5.290346088684853" r="0.5999999999999999" stroke="black" stroke-width="0.5" fill="yellow" />
<text x="-44.41938127656541" y="-5.690346088684853" font-size="1.5999999999999999" fill="black" stroke="white" stroke-width="0.032">24</text>
<circle cx="-46.18260399781744" cy="-5.719200474527206" r="0.5999999999999999" stroke="black" stroke-width="0.5" fill="yellow" />
<text x="-45.38260399781744" y="-6.119200474527206" font-size="1.5999999999999999" fill="black" stroke="white" stroke-width="0.032">25</text>
<circle cx="-47.03561415110731" cy="-6.33894862771267" r="0.5999999999999999" stroke="black" stroke-width="0.5" fill="yellow" />
<text x="-46.23561415110731" y="-6.73894862771267" font-size="1.5999999999999999" fill="black" stroke="white" stroke-width="0.032">26</text>
<circle cx="-47.7411310995394" cy="-7.122504580065451" r="0.5999999999999999" stroke="black" stroke-width="0.5" fill="yellow" />
<text x="-46.941131099539405" y="-7.522504580065451" font-size="1.5999999999999999" fill="black" stroke="white" stroke-width="0.032">27</text>
<circle cx="-48.268320367021296" cy="-8.03562317654912" r="0.5999999999999999" stroke="black" stroke-width="0.5" fill="yellow" />
<text x="-47.4683203670213" y="-8.43562317654912" font-size="1.5999999999999999" fill="black" stroke="white" stroke-width="0.032">28</text>
<circle cx="-48.594141252829274" cy="-9.038396752868174" r="0.5999999999999999" stroke="black" stroke-width="0.5" fill="yellow" />
<text x="-47.79414125282928" y="-9.438396752868174" font-size="1.5999999999999999" fill="black" stroke="white" stroke-width="0.032">29</text>
<circle cx="-48.70435382079144" cy="-10.08699929189599" r="0.5999999999999999" stroke="black" stroke-width="0.5" fill="yellow" />
<text x="-47.90435382079144" y="-10.486999291895991" font-size="1.5999999999999999" fill="black" stroke="white" stroke-width="0.032">30</text></svg>