<svg xmlns="http://www.w3.org/2000/svg" viewBox="-0.06570570037323893 -4.876782728000723 0.7915866664722927 1.4455254082112663" stroke-linecap="round"><line x1="0.660175265725814" y1="-4.157138285888508" x2="1e-15" y2="-3.496963020162696" stroke="blue" stroke-width="1" fill="none" />
<line x1="9e-16" y1="-4.811077027627483" x2="9e-16" y2="-3.496963020162696" stroke="blue" stroke-width="1" fill="none" />
<path d="M 0.6601752657258144 -4.157138285888507 A 2.140000000000001 2.140000000000001 0 0 0 4.440892098500626e-16 -4.8110770276274835" stroke="red" stroke-width="1" fill="none" />
<polygon points="-0.02628228014929575,-0.013141140074647875 -0.02628228014929575,0.013141140074647875 0.02628228014929575,0" transform="translate(0.660175265725814,-4.157138285888508) rotate(-173.86629290324137)" fill="orange" stroke="black" stroke-width="0.5" />
<polygon points="-0.02628228014929575,-0.013141140074647875 -0.02628228014929575,0.013141140074647875 0.02628228014929575,0" transform="translate(1e-15,-3.496963020162696) rotate(-67.49999999999999)" fill="orange" stroke="black" stroke-width="0.5" />
<polygon points="-0.02628228014929575,-0.013141140074647875 -0.02628228014929575,0.013141140074647875 0.02628228014929575,0" transform="translate(4.440892098500626e-16,-4.8110770276274835) rotate(61.09438055877187)" fill="orange" stroke="black" stroke-width="0.5" />
<circle cx="1e-15" cy="-3.496963020162696" r="0.007884684044788724" stroke="black" stroke-width="0.5" fill="yellow" />
<text x="0.0105129120597193" y="-3.5022194761925554" font-size="0.0210258241194366" fill="black" stroke="white" stroke-width="0.00042051648238873205">0</text>
<circle cx="0.660175265725814" cy="-4.157138285888508" r="0.007884684044788724" stroke="black" stroke-width="0.5" fill="yellow" />
<text x="0.6706881777855322" y="-4.162394741918368" font-size="0.0210258241194366" fill="black" stroke="white" stroke-width="0.00042051648238873205">1</text>
<circle cx="4.440892098500626e-16" cy="-4.8110770276274835" r="0.007884684044788724" stroke="black" stroke-width="0.5" fill="yellow" />
<text x="0.010512912059718745" y="-4.816333483657343" font-size="0.0210258241194366" fill="black" stroke="white" stroke-width="0.00042051648238873205">2</text>
<circle cx="9e-16" cy="-3.496963020162696" r="0.007884684044788724" stroke="black" stroke-width="0.5" fill="yellow" />
<text x="0.010512912059719201" y="-3.5022194761925554" font-size="0.0210258241194366" fill="black" stroke="white" stroke-width="0.00042051648238873205">3</text></svg>