<?xml version="1.0" encoding="UTF-8"?>
<svg xmlns="http://www.w3.org/2000/svg" width="796.2143894550819" height="246.0854648535685" viewBox="0 0 796.2143894550819 246.0854648535685">
  <style>
    .original { stroke: blue; stroke-width: 1; }
    .simplified { stroke: red; stroke-width: 2; }
    .original-point { fill: darkblue; }
    .simplified-point { fill: darkred; }
    .path-point { fill: black; }
    .title { font-family: Arial, sans-serif; font-size: 14px; fill: black; }
  </style>

  <!-- Original Lines -->
  <g id="original" transform="translate(20, 20)">
    <text x="106.03573157584698" y="-5" class="title" text-anchor="middle">Original (0 lines)</text>
    <path d="M 122.63101104417524 131.78659963172868 A 6.229895970079179 6.229895970079179 0 0 1 120.84108311786335 139.9822237249915" class="original" fill="none" />
    <path d="M 97.51635240269644 117.79873000362521 A 9.837331717893953 9.837331717893953 0 0 1 100.13333254511065 114.84753048825702" class="original" fill="none" />
    <path d="M 114.55511074899762 117.79873000362521 A 9.837331717893974 9.837331717893974 0 0 1 113.99980502512935 128.49204991474875" class="original" fill="none" />
    <path d="M 125.88050130355369 148.93592488987508 A 5.165412157723754 5.165412157723754 0 0 1 118.76549476952368 145.20892535391047" class="original" fill="none" />
    <path d="M 106.76368235419352 145.27354836462598 A 6.113605723075052 6.113605723075052 0 0 1 114.98228799371532 140.70959847525535" class="original" fill="none" />
    <path d="M 111.93813060658341 114.84753048825702 A 9.837331717893981 9.837331717893981 0 0 1 114.55511074899762 117.79873000362521" class="original" fill="none" />
    <path d="M 122.63101104417524 131.78659963172868 A 6.229895970079179 6.229895970079179 0 0 1 120.84108311786335 139.9822237249915" class="original" fill="none" />
    <path d="M 118.7654947695237 145.20892535391047 A 6.113605723075044 6.113605723075044 0 0 1 113.70911885431138 152.45041530783732" class="original" fill="none" />
    <path d="M 120.84108311786335 139.9822237249915 A 5.165412157723754 5.165412157723754 0 0 1 128.30375115678476 141.61207372490077" class="original" fill="none" />
    <path d="M 106.03573157584702 153.04273242678323 A 41.82297425775001 41.82297425775001 0 0 1 106.76368235419352 145.273548364626" class="original" fill="none" />
    <path d="M 100.19566795211485 131.72627591852037 A 41.82297425774998 41.82297425774998 0 0 1 105.30778079750053 145.273548364626" class="original" fill="none" />
    <path d="M 113.70911885431137 152.45041530783732 A 50.00000000000041 50.00000000000041 0 0 1 106.03573157584701 153.04273242678426" class="original" fill="none" />
    <path d="M 106.03573157584702 103.04273242678426 A 14.75599757684095 14.75599757684095 0 0 1 100.13333254511063 114.84753048825702" class="original" fill="none" />
    <path d="M 120.84108311786335 139.9822237249915 A 5.165412157723754 5.165412157723754 0 0 1 128.30375115678476 141.61207372490077" class="original" fill="none" />
    <path d="M 118.7654947695237 145.20892535391047 A 6.113605723075044 6.113605723075044 0 0 1 113.70911885431138 152.45041530783732" class="original" fill="none" />
    <path d="M 111.87579519957924 131.7262759185203 A 41.82297425774868 41.82297425774868 0 0 1 113.99980502512935 128.49204991474875" class="original" fill="none" />
    <path d="M 128.30375115678476 141.61207372490077 A 5.165412157723758 5.165412157723758 0 0 1 125.88050130355369 148.93592488987508" class="original" fill="none" />
    <path d="M 114.55511074899762 117.79873000362521 A 9.837331717893974 9.837331717893974 0 0 1 113.99980502512935 128.49204991474875" class="original" fill="none" />
    <path d="M 106.03573157584702 153.04273242678323 A 41.82297425775001 41.82297425775001 0 0 1 106.76368235419352 145.273548364626" class="original" fill="none" />
    <path d="M 113.70911885431138 152.45041530783732 A 6.113605723075052 6.113605723075052 0 0 1 106.76368235419352 145.27354836462598" class="original" fill="none" />
    <path d="M 125.88050130355369 148.93592488987508 A 5.165412157723754 5.165412157723754 0 0 1 118.76549476952368 145.20892535391047" class="original" fill="none" />
    <path d="M 111.8757951995792 131.72627591852037 A 6.229895970079177 6.229895970079177 0 0 1 122.63101104417524 131.78659963172868" class="original" fill="none" />
    <path d="M 125.8805013035537 148.93592488987508 A 50.00000000000055 50.00000000000055 0 0 1 113.70911885431138 152.4504153078373" class="original" fill="none" />
    <path d="M 111.93813060658341 114.84753048825702 A 14.75599757684095 14.75599757684095 0 0 1 106.03573157584702 103.04273242678426" class="original" fill="none" />
    <path d="M 98.07165812656471 128.49204991474878 A 9.837331717893967 9.837331717893967 0 0 1 97.51635240269643 117.79873000362524" class="original" fill="none" />
    <path d="M 106.76368235419352 145.27354836462604 A 41.82297425775005 41.82297425775005 0 0 1 111.87579519957922 131.72627591852037" class="original" fill="none" />
    <path d="M 111.87579519957924 131.7262759185203 A 41.82297425774868 41.82297425774868 0 0 1 113.99980502512935 128.49204991474875" class="original" fill="none" />
    <path d="M 128.30375115678476 141.61207372490077 A 5.165412157723758 5.165412157723758 0 0 1 125.88050130355369 148.93592488987508" class="original" fill="none" />
    <path d="M 113.70911885431138 152.45041530783732 A 6.113605723075052 6.113605723075052 0 0 1 106.76368235419352 145.27354836462598" class="original" fill="none" />
    <path d="M 105.30778079750053 145.273548364626 A 41.82297425775 41.82297425775 0 0 1 106.03573157584702 153.04273242678426" class="original" fill="none" />
    <path d="M 131.0357315758503 146.34400261600433 A 49.99999999999729 49.99999999999729 0 0 1 125.88050130355367 148.9359248898751" class="original" fill="none" />
    <path d="M 111.8757951995792 131.72627591852037 A 6.229895970079177 6.229895970079177 0 0 1 122.63101104417524 131.78659963172868" class="original" fill="none" />
    <path d="M 114.98228799371532 140.70959847525535 A 6.229895970079175 6.229895970079175 0 0 1 111.8757951995792 131.72627591852037" class="original" fill="none" />
    <path d="M 98.0716581265647 128.49204991474872 A 41.82297425774817 41.82297425774817 0 0 1 100.19566795211486 131.72627591852037" class="original" fill="none" />
    <path d="M 98.0716581265647 128.49204991474875 A 41.82297425774868 41.82297425774868 0 0 1 100.1956679521148 131.7262759185203" class="original" fill="none" />
    <path d="M 98.0716581265647 128.49204991474875 A 41.82297425774868 41.82297425774868 0 0 1 100.1956679521148 131.7262759185203" class="original" fill="none" />
    <path d="M 83.76771199490929 141.61207372490077 A 5.165412157723754 5.165412157723754 0 0 1 91.2303800338307 139.9822237249915" class="original" fill="none" />
    <path d="M 98.0716581265647 128.49204991474875 A 9.837331717893974 9.837331717893974 0 0 1 97.51635240269643 117.79873000362521" class="original" fill="none" />
    <path d="M 93.30596838217036 145.20892535391047 A 5.165412157723754 5.165412157723754 0 0 1 86.19096184814036 148.93592488987508" class="original" fill="none" />
    <path d="M 89.44045210751881 131.78659963172868 A 6.229895970079177 6.229895970079177 0 0 1 100.19566795211486 131.72627591852037" class="original" fill="none" />
    <path d="M 86.19096184814036 148.93592488987508 A 5.165412157723758 5.165412157723758 0 0 1 83.76771199490928 141.61207372490077" class="original" fill="none" />
    <path d="M 91.23038003383071 139.9822237249915 A 6.229895970079179 6.229895970079179 0 0 1 89.44045210751881 131.78659963172868" class="original" fill="none" />
    <path d="M 105.30778079750053 145.27354836462598 A 6.113605723075052 6.113605723075052 0 0 1 98.36234429738266 152.45041530783732" class="original" fill="none" />
    <path d="M 98.36234429738266 152.45041530783732 A 6.113605723075044 6.113605723075044 0 0 1 93.30596838217035 145.20892535391047" class="original" fill="none" />
    <path d="M 105.30778079749922 145.27354836462627 A 41.82297425774868 41.82297425774868 0 0 1 106.03573157584569 153.04273242678426" class="original" fill="none" />
    <path d="M 98.0716581265647 128.49204991474875 A 9.837331717893974 9.837331717893974 0 0 1 97.51635240269643 117.79873000362521" class="original" fill="none" />
    <path d="M 98.36234429738266 152.4504153078373 A 50.00000000000055 50.00000000000055 0 0 1 86.19096184814032 148.93592488987508" class="original" fill="none" />
    <path d="M 106.03573157584702 153.04273242678323 A 41.82297425775 41.82297425775 0 0 1 106.76368235419352 145.273548364626" class="original" fill="none" />
    <path d="M 106.03573157584702 103.04273242678426 A 14.75599757684095 14.75599757684095 0 0 1 100.13333254511063 114.84753048825702" class="original" fill="none" />
    <path d="M 111.87579519957761 131.72627591851946 A 41.82297425775 41.82297425775 0 0 1 113.99980502512787 128.49204991474767" class="original" fill="none" />
    <path d="M 97.08917515797872 140.70959847525535 A 6.113605723075052 6.113605723075052 0 0 1 105.30778079750053 145.27354836462598" class="original" fill="none" />
    <path d="M 89.44045210751881 131.78659963172868 A 6.229895970079177 6.229895970079177 0 0 1 100.19566795211486 131.72627591852037" class="original" fill="none" />
    <path d="M 111.9381306065834 114.84753048825702 A 9.837331717893953 9.837331717893953 0 0 1 114.5551107489976 117.79873000362521" class="original" fill="none" />
    <path d="M 100.19566795211364 131.726275918521 A 41.82297425774868 41.82297425774868 0 0 1 105.30778079749919 145.2735483646263" class="original" fill="none" />
    <path d="M 83.76771199490929 141.61207372490077 A 5.165412157723754 5.165412157723754 0 0 1 91.2303800338307 139.9822237249915" class="original" fill="none" />
    <path d="M 100.19566795211485 131.72627591852037 A 6.229895970079175 6.229895970079175 0 0 1 97.08917515797873 140.70959847525535" class="original" fill="none" />
    <path d="M 86.19096184814036 148.93592488987508 A 5.165412157723758 5.165412157723758 0 0 1 83.76771199490928 141.61207372490077" class="original" fill="none" />
    <path d="M 91.23038003383071 139.9822237249915 A 6.229895970079179 6.229895970079179 0 0 1 89.44045210751881 131.78659963172868" class="original" fill="none" />
    <path d="M 98.36234429738266 152.45041530783732 A 6.113605723075044 6.113605723075044 0 0 1 93.30596838217035 145.20892535391047" class="original" fill="none" />
    <path d="M 105.30778079749922 145.27354836462627 A 41.82297425774868 41.82297425774868 0 0 1 106.03573157584569 153.04273242678426" class="original" fill="none" />
    <path d="M 114.55511074899762 117.79873000362524 A 9.837331717893967 9.837331717893967 0 0 1 113.99980502512935 128.49204991474875" class="original" fill="none" />
    <path d="M 105.30778079750053 145.27354836462598 A 6.113605723075052 6.113605723075052 0 0 1 98.36234429738266 152.45041530783732" class="original" fill="none" />
    <path d="M 106.03573157584704 153.04273242678426 A 50.00000000000041 50.00000000000041 0 0 1 98.36234429738266 152.4504153078373" class="original" fill="none" />
    <path d="M 93.30596838217036 145.20892535391047 A 5.165412157723754 5.165412157723754 0 0 1 86.19096184814036 148.93592488987508" class="original" fill="none" />
    <path d="M 106.76368235419352 145.273548364626 A 41.82297425774998 41.82297425774998 0 0 1 111.8757951995792 131.72627591852037" class="original" fill="none" />
    <path d="M 86.19096184814038 148.93592488987514 A 50.00000000000041 50.00000000000041 0 0 1 81.0357315758438 146.3440026160044" class="original" fill="none" />
    <path d="M 111.93813060658341 114.84753048825702 A 14.75599757684095 14.75599757684095 0 0 1 106.03573157584702 103.04273242678426" class="original" fill="none" />
    <path d="M 97.51635240269643 117.79873000362521 A 9.837331717893981 9.837331717893981 0 0 1 100.13333254511065 114.84753048825701" class="original" fill="none" />
    <path d="M 78.27502242958046 112.32686071478217 A 41.82297425774868 41.82297425774868 0 0 1 69.09879676195717 123.52771652895136" class="original" fill="none" />
    <path d="M 59.41072941949737 121.10122555108428 A 50.00000000000055 50.00000000000055 0 0 1 56.36867617818849 108.80325394188327" class="original" fill="none" />
    <path d="M 69.09879676195811 123.5277165289524 A 6.113605723075052 6.113605723075052 0 0 1 59.410729419497386 121.10122555108433" class="original" fill="none" />
    <path d="M 76.21344590589516 143.175403374776 A 5.165412157723754 5.165412157723754 0 0 1 75.88361891691831 135.15012720023148" class="original" fill="none" />
    <path d="M 106.03573157584702 53.04273242678426 A 41.82297425775001 41.82297425775001 0 0 1 105.30778079750053 60.81191648894251" class="original" fill="none" />
    <path d="M 118.76549476952368 60.87653949965803 A 5.165412157723754 5.165412157723754 0 0 1 125.88050130355369 57.14953996369343" class="original" fill="none" />
    <path d="M 125.88050130355369 57.14953996369342 A 5.165412157723758 5.165412157723758 0 0 1 128.30375115678476 64.47339112866774" class="original" fill="none" />
    <path d="M 106.76368235419352 60.81191648894255 A 6.113605723075052 6.113605723075052 0 0 1 113.70911885431137 53.6350495457312" class="original" fill="none" />
    <path d="M 100.19566795211485 74.35918893504814 A 6.229895970079177 6.229895970079177 0 0 1 89.4404521075188 74.29886522183982" class="original" fill="none" />
    <path d="M 83.76771199490929 64.47339112866774 A 5.165412157723758 5.165412157723758 0 0 1 86.19096184814036 57.14953996369342" class="original" fill="none" />
    <path d="M 97.51635240269643 88.28673484994329 A 9.837331717893974 9.837331717893974 0 0 1 98.0716581265647 77.59341493881976" class="original" fill="none" />
    <path d="M 98.36234429738265 53.635049545731206 A 6.113605723075052 6.113605723075052 0 0 1 105.30778079750051 60.81191648894254" class="original" fill="none" />
    <path d="M 91.2303800338307 66.103241128577 A 5.165412157723754 5.165412157723754 0 0 1 83.76771199490929 64.47339112866774" class="original" fill="none" />
    <path d="M 93.30596838217035 60.87653949965804 A 6.113605723075044 6.113605723075044 0 0 1 98.36234429738266 53.635049545731206" class="original" fill="none" />
    <path d="M 106.76368235419352 60.81191648894251 A 41.82297425775 41.82297425775 0 0 1 106.03573157584702 53.04273242678527" class="original" fill="none" />
    <path d="M 122.63101104417524 74.29886522183982 A 6.229895970079177 6.229895970079177 0 0 1 111.87579519957919 74.35918893504814" class="original" fill="none" />
    <path d="M 89.4404521075188 74.29886522183982 A 6.229895970079179 6.229895970079179 0 0 1 91.23038003383068 66.103241128577" class="original" fill="none" />
    <path d="M 120.84108311786335 66.103241128577 A 6.229895970079179 6.229895970079179 0 0 1 122.63101104417524 74.29886522183983" class="original" fill="none" />
    <path d="M 128.30375115678476 64.47339112866774 A 5.165412157723754 5.165412157723754 0 0 1 120.84108311786335 66.103241128577" class="original" fill="none" />
    <path d="M 86.19096184814036 57.14953996369343 A 5.165412157723754 5.165412157723754 0 0 1 93.30596838217036 60.87653949965803" class="original" fill="none" />
    <path d="M 113.70911885431137 53.635049545731206 A 6.113605723075044 6.113605723075044 0 0 1 118.76549476952368 60.87653949965804" class="original" fill="none" />
    <path d="M 113.99980502512935 77.59341493881976 A 9.837331717893974 9.837331717893974 0 0 1 114.55511074899762 88.28673484994329" class="original" fill="none" />
    <path d="M 97.51635240269643 88.28673484994327 A 9.837331717893967 9.837331717893967 0 0 1 98.0716581265647 77.59341493881975" class="original" fill="none" />
    <path d="M 106.7636823541948 60.811916488942266 A 41.82297425774868 41.82297425774868 0 0 1 106.03573157584833 53.04273242678527" class="original" fill="none" />
    <path d="M 114.5551107489976 88.2867348499433 A 9.837331717893981 9.837331717893981 0 0 1 111.9381306065834 91.23793436531149" class="original" fill="none" />
    <path d="M 100.13333254511063 91.23793436531149 A 9.837331717893981 9.837331717893981 0 0 1 97.51635240269643 88.2867348499433" class="original" fill="none" />
    <path d="M 114.55511074899762 88.28673484994329 A 9.837331717893953 9.837331717893953 0 0 1 111.93813060658341 91.23793436531147" class="original" fill="none" />
    <path d="M 100.13333254511063 91.23793436531149 A 9.837331717893953 9.837331717893953 0 0 1 97.51635240269643 88.2867348499433" class="original" fill="none" />
    <path d="M 113.99980502512935 77.59341493881973 A 41.82297425774868 41.82297425774868 0 0 1 111.87579519957924 74.35918893504818" class="original" fill="none" />
    <path d="M 100.19566795211483 74.35918893504817 A 41.82297425774868 41.82297425774868 0 0 1 98.0716581265647 77.59341493881976" class="original" fill="none" />
    <path d="M 100.19566795211483 74.35918893504817 A 41.82297425774868 41.82297425774868 0 0 1 98.0716581265647 77.59341493881976" class="original" fill="none" />
    <path d="M 113.99980502512935 77.59341493881973 A 41.82297425774868 41.82297425774868 0 0 1 111.87579519957924 74.35918893504818" class="original" fill="none" />
    <path d="M 113.99980502512935 77.59341493881976 A 41.82297425774817 41.82297425774817 0 0 1 111.87579519957919 74.35918893504814" class="original" fill="none" />
    <path d="M 100.19566795211642 74.35918893504908 A 41.82297425775 41.82297425775 0 0 1 98.07165812656618 77.59341493882081" class="original" fill="none" />
    <path d="M 133.79644072211354 93.75860413878637 A 41.82297425774868 41.82297425774868 0 0 1 142.97266638973687 82.5577483246171" class="original" fill="none" />
    <path d="M 152.66073373219663 84.98423930248414 A 50.00000000000055 50.00000000000055 0 0 1 155.70278697350557 97.28221091168514" class="original" fill="none" />
    <path d="M 142.97266638973593 82.5577483246161 A 6.113605723075052 6.113605723075052 0 0 1 152.66073373219666 84.98423930248417" class="original" fill="none" />
    <path d="M 135.85801724579886 62.91006147879245 A 5.165412157723754 5.165412157723754 0 0 1 136.1878442347757 70.93533765333702" class="original" fill="none" />
    <path d="M 150.57177073771706 103.04273242678735 A 5.165412157723754 5.165412157723754 0 0 1 145.42894521397687 97.39479732502585" class="original" fill="none" />
    <path d="M 131.0357315758438 59.74146223756043 A 49.99999999999729 49.99999999999729 0 0 1 135.85801724579886 62.910061478792436" class="original" fill="none" />
    <path d="M 148.91760742845238 92.98393427310522 A 5.165412157723754 5.165412157723754 0 0 1 155.70278697350554 97.28221091168517" class="original" fill="none" />
    <path d="M 130.62359367196052 71.75117623033536 A 5.165412157723754 5.165412157723754 0 0 1 128.3037511567793 64.47339112866459" class="original" fill="none" />
    <path d="M 155.70278697350557 97.28221091168517 A 5.165412157723758 5.165412157723758 0 0 1 150.57177073771706 103.04273242678737" class="original" fill="none" />
    <path d="M 149.33700176506807 78.04273242678474 A 41.82297425775 41.82297425775 0 0 1 142.24471561138944 81.29690059111066" class="original" fill="none" />
    <path d="M 133.79644072211238 93.75860413878566 A 6.229895970079175 6.229895970079175 0 0 1 143.1294726637027 91.95724453681335" class="original" fill="none" />
    <path d="M 106.03573157584701 103.04273242678427 A 14.75599757684095 14.75599757684095 0 0 1 119.2101860989959 102.25196089993821" class="original" fill="none" />
    <path d="M 142.24471561138944 81.29690059111067 A 6.113605723075052 6.113605723075052 0 0 1 134.18291624583438 76.46135426828404" class="original" fill="none" />
    <path d="M 142.97266638973684 82.55774832461708 A 41.82297425774868 41.82297425774868 0 0 1 149.33700176506875 78.04273242678589" class="original" fill="none" />
    <path d="M 128.3037511567793 64.47339112866459 A 5.165412157723758 5.165412157723758 0 0 1 135.85801724579886 62.91006147879246" class="original" fill="none" />
    <path d="M 142.24471561138947 81.29690059111064 A 41.82297425775005 41.82297425775005 0 0 1 127.9563770983802 83.64331722304671" class="original" fill="none" />
    <path d="M 113.30778706825953 92.02870589215752 A 14.75599757684095 14.75599757684095 0 0 1 106.03573157584702 103.04273242678427" class="original" fill="none" />
    <path d="M 113.30778706825953 92.02870589215752 A 14.75599757684095 14.75599757684095 0 0 1 106.03573157584702 103.04273242678427" class="original" fill="none" />
    <path d="M 142.24471561138944 81.29690059111066 A 41.82297425774998 41.82297425774998 0 0 1 127.9563770983802 83.64331722304672" class="original" fill="none" />
    <path d="M 155.70278697350557 97.28221091168515 A 50.00000000000041 50.00000000000041 0 0 1 156.03573157584708 103.04273242678445" class="original" fill="none" />
    <path d="M 144.98734645373227 71.69354267003123 A 6.113605723075052 6.113605723075052 0 0 1 142.24471561138944 81.29690059111067" class="original" fill="none" />
    <path d="M 132.057523754041 97.21516360748565 A 9.837331717893974 9.837331717893974 0 0 1 123.07448992214822 103.04273242678426" class="original" fill="none" />
    <path d="M 136.1878442347757 70.935337653337 A 6.113605723075044 6.113605723075044 0 0 1 144.98734645373227 71.69354267003123" class="original" fill="none" />
    <path d="M 152.66073373219663 84.98423930248418 A 6.113605723075044 6.113605723075044 0 0 1 148.91760742845238 92.98393427310525" class="original" fill="none" />
    <path d="M 122.6310110441712 74.29886522183749 A 6.229895970079179 6.229895970079179 0 0 1 130.62359367196058 71.75117623033536" class="original" fill="none" />
    <path d="M 149.33700176506895 78.04273242678423 A 50.00000000000041 50.00000000000041 0 0 1 152.66073373219663 84.98423930248414" class="original" fill="none" />
    <path d="M 144.9873464537323 71.69354267003129 A 50.00000000000041 50.00000000000041 0 0 1 149.3370017650689 78.04273242678417" class="original" fill="none" />
    <path d="M 145.42894521397687 97.39479732502585 A 6.229895970079179 6.229895970079179 0 0 1 139.2262905124994 103.04273242678657" class="original" fill="none" />
    <path d="M 127.95637709838019 83.64331722304672 A 6.229895970079177 6.229895970079177 0 0 1 122.63101104417117 74.29886522183749" class="original" fill="none" />
    <path d="M 114.5551107489976 88.28673484994329 A 9.837331717893974 9.837331717893974 0 0 1 124.09345030475868 83.42098375811835" class="original" fill="none" />
    <path d="M 149.33700176506807 78.04273242678474 A 41.82297425775001 41.82297425775001 0 0 1 142.24471561138944 81.29690059111066" class="original" fill="none" />
    <path d="M 134.1829162458344 76.46135426828405 A 6.229895970079175 6.229895970079175 0 0 1 127.9563770983802 83.64331722304674" class="original" fill="none" />
    <path d="M 106.03573157584701 103.04273242678427 A 14.75599757684095 14.75599757684095 0 0 1 119.21018609899593 102.25196089993823" class="original" fill="none" />
    <path d="M 133.79644072211238 93.75860413878564 A 41.82297425774998 41.82297425774998 0 0 1 142.97266638973596 82.55774832461609" class="original" fill="none" />
    <path d="M 132.057523754041 97.21516360748565 A 9.837331717893967 9.837331717893967 0 0 1 123.07448992214822 103.04273242678426" class="original" fill="none" />
    <path d="M 143.1294726637027 91.95724453681333 A 6.113605723075052 6.113605723075052 0 0 1 142.97266638973593 82.5577483246161" class="original" fill="none" />
    <path d="M 135.85801724579886 62.91006147879245 A 50.00000000000055 50.00000000000055 0 0 1 144.9873464537323 71.69354267003125" class="original" fill="none" />
    <path d="M 139.2262905124994 103.04273242678659 A 6.229895970079177 6.229895970079177 0 0 1 133.79644072211238 93.75860413878566" class="original" fill="none" />
    <path d="M 149.33700176506807 78.04273242678474 A 41.82297425775001 41.82297425775001 0 0 1 142.24471561138944 81.29690059111066" class="original" fill="none" />
    <path d="M 148.91760742845238 92.98393427310522 A 5.165412157723754 5.165412157723754 0 0 1 155.70278697350554 97.28221091168517" class="original" fill="none" />
    <path d="M 155.70278697350557 97.28221091168517 A 5.165412157723758 5.165412157723758 0 0 1 150.57177073771706 103.04273242678737" class="original" fill="none" />
    <path d="M 142.97266638973593 82.5577483246161 A 6.113605723075052 6.113605723075052 0 0 1 152.66073373219666 84.98423930248417" class="original" fill="none" />
    <path d="M 127.95637709838019 83.64331722304672 A 6.229895970079177 6.229895970079177 0 0 1 122.63101104417117 74.29886522183749" class="original" fill="none" />
    <path d="M 128.3037511567793 64.47339112866459 A 5.165412157723758 5.165412157723758 0 0 1 135.85801724579886 62.91006147879246" class="original" fill="none" />
    <path d="M 114.5551107489976 88.28673484994329 A 9.837331717893974 9.837331717893974 0 0 1 124.09345030475866 83.42098375811835" class="original" fill="none" />
    <path d="M 144.98734645373227 71.69354267003123 A 6.113605723075052 6.113605723075052 0 0 1 142.24471561138944 81.29690059111067" class="original" fill="none" />
    <path d="M 130.62359367196052 71.75117623033536 A 5.165412157723754 5.165412157723754 0 0 1 128.3037511567793 64.47339112866459" class="original" fill="none" />
    <path d="M 136.1878442347757 70.935337653337 A 6.113605723075044 6.113605723075044 0 0 1 144.9873464537323 71.69354267003125" class="original" fill="none" />
    <path d="M 142.97266638973596 82.55774832461607 A 41.82297425775 41.82297425775 0 0 1 149.33700176506807 78.04273242678474" class="original" fill="none" />
    <path d="M 139.2262905124994 103.04273242678659 A 6.229895970079177 6.229895970079177 0 0 1 133.79644072211238 93.75860413878566" class="original" fill="none" />
    <path d="M 122.6310110441712 74.29886522183749 A 6.229895970079179 6.229895970079179 0 0 1 130.62359367196058 71.75117623033536" class="original" fill="none" />
    <path d="M 145.42894521397687 97.39479732502585 A 6.229895970079179 6.229895970079179 0 0 1 139.2262905124994 103.04273242678657" class="original" fill="none" />
    <path d="M 150.57177073771706 103.04273242678735 A 5.165412157723754 5.165412157723754 0 0 1 145.42894521397687 97.39479732502585" class="original" fill="none" />
    <path d="M 135.85801724579886 62.91006147879245 A 5.165412157723754 5.165412157723754 0 0 1 136.1878442347757 70.93533765333702" class="original" fill="none" />
    <path d="M 152.66073373219663 84.98423930248418 A 6.113605723075044 6.113605723075044 0 0 1 148.91760742845238 92.98393427310525" class="original" fill="none" />
    <path d="M 132.057523754041 97.21516360748566 A 9.837331717893974 9.837331717893974 0 0 1 123.07448992214822 103.04273242678426" class="original" fill="none" />
    <path d="M 114.55511074899762 88.28673484994327 A 9.837331717893967 9.837331717893967 0 0 1 124.09345030475868 83.42098375811834" class="original" fill="none" />
    <path d="M 142.97266638973684 82.55774832461708 A 41.82297425774868 41.82297425774868 0 0 1 149.33700176506875 78.04273242678589" class="original" fill="none" />
    <path d="M 106.03573157584702 103.04273242678424 A 14.75599757684095 14.75599757684095 0 0 1 113.30778706825953 114.05675896141098" class="original" fill="none" />
    <path d="M 127.95637709838022 122.44214763052179 A 41.82297425774998 41.82297425774998 0 0 1 142.2447156113895 124.78856426245787" class="original" fill="none" />
    <path d="M 124.09345030475868 122.66448109545016 A 9.837331717893967 9.837331717893967 0 0 1 114.5551107489976 117.79873000362521" class="original" fill="none" />
    <path d="M 134.1829162458344 129.62411058528446 A 6.113605723075052 6.113605723075052 0 0 1 142.24471561138944 124.78856426245784" class="original" fill="none" />
    <path d="M 155.70278697350557 108.80325394188331 A 50.00000000000055 50.00000000000055 0 0 1 152.66073373219666 121.10122555108433" class="original" fill="none" />
    <path d="M 122.6310110441712 131.786599631731 A 6.229895970079177 6.229895970079177 0 0 1 127.95637709838022 122.44214763052177" class="original" fill="none" />
    <path d="M 149.33700176506875 128.0427324267826 A 41.82297425774868 41.82297425774868 0 0 1 142.9726663897368 123.52771652895137" class="original" fill="none" />
    <path d="M 136.18784423477572 135.15012720023148 A 5.165412157723754 5.165412157723754 0 0 1 135.8580172457989 143.175403374776" class="original" fill="none" />
    <path d="M 135.8580172457989 143.175403374776 A 5.165412157723758 5.165412157723758 0 0 1 128.30375115677933 141.6120737249039" class="original" fill="none" />
    <path d="M 142.24471561138944 124.78856426245784 A 6.113605723075052 6.113605723075052 0 0 1 144.98734645373233 134.39192218353725" class="original" fill="none" />
    <path d="M 133.79644072211238 112.32686071478285 A 6.229895970079177 6.229895970079177 0 0 1 139.2262905124994 103.04273242678192" class="original" fill="none" />
    <path d="M 150.57177073771706 103.04273242678111 A 5.165412157723758 5.165412157723758 0 0 1 155.70278697350557 108.80325394188331" class="original" fill="none" />
    <path d="M 123.07448992214822 103.04273242678426 A 9.837331717893974 9.837331717893974 0 0 1 132.057523754041 108.87030124608283" class="original" fill="none" />
    <path d="M 152.66073373219666 121.10122555108433 A 6.113605723075052 6.113605723075052 0 0 1 142.97266638973593 123.5277165289524" class="original" fill="none" />
    <path d="M 145.42894521397687 108.69066752854263 A 5.165412157723754 5.165412157723754 0 0 1 150.57177073771706 103.04273242678113" class="original" fill="none" />
    <path d="M 148.91760742845236 113.10153058046325 A 6.113605723075044 6.113605723075044 0 0 1 152.66073373219666 121.10122555108431" class="original" fill="none" />
    <path d="M 142.2447156113895 124.78856426245788 A 41.82297425775 41.82297425775 0 0 1 149.33700176506807 128.04273242678377" class="original" fill="none" />
    <path d="M 122.6310110441712 131.786599631731 A 6.229895970079177 6.229895970079177 0 0 1 127.95637709838022 122.44214763052177" class="original" fill="none" />
    <path d="M 139.2262905124994 103.04273242678192 A 6.229895970079179 6.229895970079179 0 0 1 145.42894521397687 108.69066752854265" class="original" fill="none" />
    <path d="M 130.62359367196058 134.33428862323314 A 6.229895970079179 6.229895970079179 0 0 1 122.6310110441712 131.786599631731" class="original" fill="none" />
    <path d="M 124.0934503047587 122.66448109545016 A 41.82297425774868 41.82297425774868 0 0 1 127.95637709838014 122.44214763052179" class="original" fill="none" />
    <path d="M 133.79644072211235 112.32686071478281 A 41.82297425774868 41.82297425774868 0 0 1 132.05752375404103 108.87030124608289" class="original" fill="none" />
    <path d="M 133.79644072211235 112.32686071478281 A 41.82297425774868 41.82297425774868 0 0 1 132.05752375404103 108.87030124608289" class="original" fill="none" />
    <path d="M 124.0934503047587 122.66448109545016 A 41.82297425774868 41.82297425774868 0 0 1 127.95637709838014 122.44214763052179" class="original" fill="none" />
    <path d="M 133.7964407221108 112.32686071478376 A 41.82297425775 41.82297425775 0 0 1 132.05752375403932 108.87030124608359" class="original" fill="none" />
    <path d="M 124.09345030475846 122.66448109544834 A 41.82297425775 41.82297425775 0 0 1 127.95637709838019 122.44214763051995" class="original" fill="none" />
    <path d="M 119.21018609899592 103.8335039536303 A 9.837331717893953 9.837331717893953 0 0 1 123.07448992214822 103.04273242678426" class="original" fill="none" />
    <path d="M 114.5551107489976 117.79873000362521 A 9.837331717893953 9.837331717893953 0 0 1 113.30778706825954 114.05675896141099" class="original" fill="none" />
    <path d="M 119.21018609899592 103.8335039536303 A 9.837331717893981 9.837331717893981 0 0 1 123.07448992214822 103.04273242678426" class="original" fill="none" />
    <path d="M 114.55511074899762 117.79873000362522 A 9.837331717893981 9.837331717893981 0 0 1 113.30778706825954 114.05675896141099" class="original" fill="none" />
    <path d="M 142.24471561138907 124.78856426245912 A 41.82297425774868 41.82297425774868 0 0 1 149.33700176506738 128.0427324267849" class="original" fill="none" />
    <path d="M 123.07448992214823 103.04273242678426 A 9.837331717893967 9.837331717893967 0 0 1 132.05752375404103 108.87030124608286" class="original" fill="none" />
    <path d="M 124.09345030475868 122.66448109545016 A 9.837331717893974 9.837331717893974 0 0 1 114.5551107489976 117.79873000362521" class="original" fill="none" />
    <path d="M 144.98734645373227 134.39192218353725 A 6.113605723075044 6.113605723075044 0 0 1 136.1878442347757 135.15012720023148" class="original" fill="none" />
    <path d="M 155.70278697350554 108.80325394188331 A 5.165412157723754 5.165412157723754 0 0 1 148.91760742845238 113.10153058046326" class="original" fill="none" />
    <path d="M 128.30375115677933 141.6120737249039 A 5.165412157723754 5.165412157723754 0 0 1 130.62359367196055 134.3342886232331" class="original" fill="none" />
    <path d="M 143.1294726637027 114.12822031675515 A 6.229895970079175 6.229895970079175 0 0 1 133.79644072211238 112.32686071478285" class="original" fill="none" />
    <path d="M 149.33700176506875 128.0427324267826 A 41.82297425774868 41.82297425774868 0 0 1 142.9726663897368 123.52771652895137" class="original" fill="none" />
    <path d="M 123.07448992214822 103.04273242678426 A 9.837331717893974 9.837331717893974 0 0 1 132.05752375404103 108.87030124608286" class="original" fill="none" />
    <path d="M 133.79644072211238 112.32686071478285 A 6.229895970079177 6.229895970079177 0 0 1 139.2262905124994 103.04273242678192" class="original" fill="none" />
    <path d="M 130.62359367196058 134.33428862323314 A 6.229895970079179 6.229895970079179 0 0 1 122.6310110441712 131.786599631731" class="original" fill="none" />
    <path d="M 152.66073373219666 121.10122555108433 A 50.00000000000041 50.00000000000041 0 0 1 149.33700176506895 128.04273242678428" class="original" fill="none" />
    <path d="M 149.33700176506895 128.04273242678426 A 50.00000000000041 50.00000000000041 0 0 1 144.9873464537323 134.39192218353725" class="original" fill="none" />
    <path d="M 139.2262905124994 103.04273242678192 A 6.229895970079179 6.229895970079179 0 0 1 145.42894521397687 108.69066752854265" class="original" fill="none" />
    <path d="M 144.9873464537323 134.39192218353725 A 6.113605723075044 6.113605723075044 0 0 1 136.1878442347757 135.15012720023148" class="original" fill="none" />
    <path d="M 148.91760742845236 113.10153058046325 A 6.113605723075044 6.113605723075044 0 0 1 152.66073373219666 121.10122555108431" class="original" fill="none" />
    <path d="M 124.09345030475868 122.66448109545016 A 9.837331717893974 9.837331717893974 0 0 1 114.5551107489976 117.79873000362521" class="original" fill="none" />
    <path d="M 152.66073373219666 121.10122555108433 A 6.113605723075052 6.113605723075052 0 0 1 142.97266638973593 123.5277165289524" class="original" fill="none" />
    <path d="M 135.85801724579892 143.17540337477607 A 50.00000000000041 50.00000000000041 0 0 1 131.0357315758438 146.3440026160081" class="original" fill="none" />
    <path d="M 142.97266638973593 123.52771652895237 A 41.82297425774998 41.82297425774998 0 0 1 133.79644072211238 112.32686071478285" class="original" fill="none" />
    <path d="M 119.2101860989959 103.8335039536303 A 14.75599757684095 14.75599757684095 0 0 1 106.03573157584702 103.04273242678427" class="original" fill="none" />
    <path d="M 119.21018609899592 103.83350395363028 A 14.75599757684095 14.75599757684095 0 0 1 106.03573157584702 103.04273242678427" class="original" fill="none" />
    <path d="M 142.97266638973682 123.52771652895134 A 41.82297425774868 41.82297425774868 0 0 1 133.79644072211357 112.32686071478219" class="original" fill="none" />
    <path d="M 150.57177073771706 103.04273242678111 A 5.165412157723758 5.165412157723758 0 0 1 155.70278697350557 108.80325394188331" class="original" fill="none" />
    <path d="M 142.24471561138907 124.78856426245912 A 41.82297425774868 41.82297425774868 0 0 1 149.33700176506738 128.0427324267849" class="original" fill="none" />
    <path d="M 142.97266638973593 123.5277165289524 A 6.113605723075052 6.113605723075052 0 0 1 143.1294726637027 114.12822031675515" class="original" fill="none" />
    <path d="M 106.03573157584702 103.04273242678424 A 14.75599757684095 14.75599757684095 0 0 1 113.30778706825953 114.05675896141098" class="original" fill="none" />
    <path d="M 127.95637709838022 122.44214763052177 A 6.229895970079175 6.229895970079175 0 0 1 134.18291624583443 129.62411058528446" class="original" fill="none" />
    <path d="M 149.33700176506807 128.04273242678374 A 41.82297425775 41.82297425775 0 0 1 142.9726663897359 123.52771652895237" class="original" fill="none" />
    <path d="M 135.8580172457989 143.175403374776 A 5.165412157723758 5.165412157723758 0 0 1 128.30375115677933 141.6120737249039" class="original" fill="none" />
    <path d="M 145.42894521397687 108.69066752854263 A 5.165412157723754 5.165412157723754 0 0 1 150.57177073771706 103.04273242678113" class="original" fill="none" />
    <path d="M 136.18784423477572 135.15012720023148 A 5.165412157723754 5.165412157723754 0 0 1 135.8580172457989 143.175403374776" class="original" fill="none" />
    <path d="M 156.03573157584742 103.04273242678426 A 50.00000000000041 50.00000000000041 0 0 1 155.70278697350597 108.80325394188338" class="original" fill="none" />
    <path d="M 128.30375115677933 141.6120737249039 A 5.165412157723754 5.165412157723754 0 0 1 130.62359367196055 134.3342886232331" class="original" fill="none" />
    <path d="M 155.70278697350554 108.80325394188331 A 5.165412157723754 5.165412157723754 0 0 1 148.91760742845238 113.10153058046326" class="original" fill="none" />
    <path d="M 142.24471561138944 124.78856426245784 A 6.113605723075052 6.113605723075052 0 0 1 144.98734645373233 134.39192218353725" class="original" fill="none" />
    <path d="M 144.9873464537323 134.39192218353725 A 50.00000000000055 50.00000000000055 0 0 1 135.85801724579892 143.17540337477604" class="original" fill="none" />
    <path d="M 127.95637709838013 122.44214763052318 A 41.82297425774868 41.82297425774868 0 0 1 142.24471561138907 124.78856426245918" class="original" fill="none" />
    <path d="M 127.95637709838019 83.64331722304854 A 41.82297425775 41.82297425775 0 0 1 124.09345030475848 83.42098375812017" class="original" fill="none" />
    <path d="M 132.05752375404103 97.21516360748564 A 41.82297425774817 41.82297425774817 0 0 1 133.79644072211238 93.7586041387857" class="original" fill="none" />
    <path d="M 132.05752375404103 97.21516360748561 A 41.82297425774868 41.82297425774868 0 0 1 133.79644072211235 93.7586041387857" class="original" fill="none" />
    <path d="M 127.95637709838017 83.64331722304672 A 41.82297425774868 41.82297425774868 0 0 1 124.09345030475869 83.42098375811835" class="original" fill="none" />
    <path d="M 127.95637709838017 83.64331722304672 A 41.82297425774868 41.82297425774868 0 0 1 124.09345030475869 83.42098375811835" class="original" fill="none" />
    <path d="M 132.05752375404103 97.21516360748561 A 41.82297425774868 41.82297425774868 0 0 1 133.79644072211235 93.7586041387857" class="original" fill="none" />
    <path d="M 113.30778706825954 92.0287058921575 A 9.837331717893953 9.837331717893953 0 0 1 114.5551107489976 88.28673484994329" class="original" fill="none" />
    <path d="M 123.0744899221482 103.04273242678426 A 9.837331717893953 9.837331717893953 0 0 1 119.21018609899593 102.25196089993823" class="original" fill="none" />
    <path d="M 113.30778706825954 92.02870589215752 A 9.837331717893981 9.837331717893981 0 0 1 114.5551107489976 88.28673484994331" class="original" fill="none" />
    <path d="M 123.0744899221482 103.04273242678426 A 9.837331717893981 9.837331717893981 0 0 1 119.21018609899592 102.25196089993821" class="original" fill="none" />
    <path d="M 122.63101104417524 74.29886522183982 A 6.229895970079177 6.229895970079177 0 0 1 111.87579519957919 74.35918893504814" class="original" fill="none" />
    <path d="M 86.1909618481403 57.14953996369344 A 50.00000000000055 50.00000000000055 0 0 1 98.36234429738275 53.6350495457312" class="original" fill="none" />
    <path d="M 114.98228799371533 65.37586637831316 A 6.113605723075052 6.113605723075052 0 0 1 106.76368235419352 60.81191648894255" class="original" fill="none" />
    <path d="M 113.99980502512935 77.59341493881976 A 9.837331717893967 9.837331717893967 0 0 1 114.55511074899762 88.28673484994327" class="original" fill="none" />
    <path d="M 111.8757951995792 74.35918893504814 A 41.82297425774998 41.82297425774998 0 0 1 106.76368235419352 60.81191648894252" class="original" fill="none" />
    <path d="M 106.03573157584702 103.04273242678426 A 14.75599757684095 14.75599757684095 0 0 1 111.93813060658341 91.23793436531149" class="original" fill="none" />
    <path d="M 97.08917515797872 65.37586637831316 A 6.229895970079175 6.229895970079175 0 0 1 100.19566795211485 74.35918893504814" class="original" fill="none" />
    <path d="M 106.03573157584702 53.04273242678426 A 41.82297425775001 41.82297425775001 0 0 1 105.30778079750053 60.81191648894251" class="original" fill="none" />
    <path d="M 97.51635240269643 88.28673484994329 A 9.837331717893974 9.837331717893974 0 0 1 98.0716581265647 77.59341493881976" class="original" fill="none" />
    <path d="M 100.19566795211485 74.35918893504814 A 6.229895970079177 6.229895970079177 0 0 1 89.4404521075188 74.29886522183982" class="original" fill="none" />
    <path d="M 120.84108311786335 66.103241128577 A 6.229895970079179 6.229895970079179 0 0 1 122.63101104417524 74.29886522183982" class="original" fill="none" />
    <path d="M 98.3623442973827 53.635049545731206 A 50.00000000000041 50.00000000000041 0 0 1 106.03573157584702 53.042732426784255" class="original" fill="none" />
    <path d="M 106.035731575847 53.042732426784255 A 50.00000000000041 50.00000000000041 0 0 1 113.70911885431131 53.635049545731206" class="original" fill="none" />
    <path d="M 89.44045210751881 74.29886522183983 A 6.229895970079179 6.229895970079179 0 0 1 91.23038003383068 66.103241128577" class="original" fill="none" />
    <path d="M 113.70911885431137 53.635049545731206 A 6.113605723075044 6.113605723075044 0 0 1 118.76549476952368 60.87653949965804" class="original" fill="none" />
    <path d="M 93.30596838217035 60.87653949965804 A 6.113605723075044 6.113605723075044 0 0 1 98.36234429738266 53.635049545731206" class="original" fill="none" />
    <path d="M 113.99980502512935 77.59341493881976 A 9.837331717893974 9.837331717893974 0 0 1 114.55511074899762 88.28673484994329" class="original" fill="none" />
    <path d="M 98.36234429738265 53.635049545731206 A 6.113605723075052 6.113605723075052 0 0 1 105.30778079750051 60.81191648894254" class="original" fill="none" />
    <path d="M 125.88050130355364 57.14953996369336 A 50.00000000000041 50.00000000000041 0 0 1 131.03573157585024 59.741462237564114" class="original" fill="none" />
    <path d="M 105.30778079750053 60.81191648894255 A 41.82297425774998 41.82297425774998 0 0 1 100.19566795211486 74.35918893504814" class="original" fill="none" />
    <path d="M 100.13333254511063 91.23793436531149 A 14.75599757684095 14.75599757684095 0 0 1 106.03573157584702 103.04273242678426" class="original" fill="none" />
    <path d="M 100.13333254511063 91.23793436531149 A 14.75599757684095 14.75599757684095 0 0 1 106.03573157584702 103.04273242678426" class="original" fill="none" />
    <path d="M 105.30778079750051 60.811916488942536 A 41.82297425775005 41.82297425775005 0 0 1 100.19566795211483 74.35918893504814" class="original" fill="none" />
    <path d="M 83.76771199490929 64.47339112866774 A 5.165412157723758 5.165412157723758 0 0 1 86.19096184814036 57.14953996369342" class="original" fill="none" />
    <path d="M 106.7636823541948 60.811916488942266 A 41.82297425774868 41.82297425774868 0 0 1 106.03573157584833 53.04273242678527" class="original" fill="none" />
    <path d="M 105.30778079750053 60.81191648894254 A 6.113605723075052 6.113605723075052 0 0 1 97.08917515797872 65.37586637831316" class="original" fill="none" />
    <path d="M 106.03573157584702 103.04273242678426 A 14.75599757684095 14.75599757684095 0 0 1 111.93813060658341 91.23793436531149" class="original" fill="none" />
    <path d="M 111.8757951995792 74.35918893504814 A 6.229895970079175 6.229895970079175 0 0 1 114.98228799371532 65.37586637831316" class="original" fill="none" />
    <path d="M 106.03573157584702 53.04273242678426 A 41.82297425775 41.82297425775 0 0 1 105.30778079750053 60.81191648894254" class="original" fill="none" />
    <path d="M 125.88050130355369 57.14953996369342 A 5.165412157723758 5.165412157723758 0 0 1 128.30375115678476 64.47339112866774" class="original" fill="none" />
    <path d="M 91.2303800338307 66.103241128577 A 5.165412157723754 5.165412157723754 0 0 1 83.76771199490929 64.47339112866774" class="original" fill="none" />
    <path d="M 118.76549476952368 60.87653949965803 A 5.165412157723754 5.165412157723754 0 0 1 125.88050130355369 57.14953996369343" class="original" fill="none" />
    <path d="M 81.03573157584381 59.74146223756414 A 49.99999999999729 49.99999999999729 0 0 1 86.19096184814029 57.149539963693435" class="original" fill="none" />
    <path d="M 128.30375115678476 64.47339112866774 A 5.165412157723754 5.165412157723754 0 0 1 120.84108311786335 66.103241128577" class="original" fill="none" />
    <path d="M 86.19096184814036 57.14953996369343 A 5.165412157723754 5.165412157723754 0 0 1 93.30596838217036 60.87653949965803" class="original" fill="none" />
    <path d="M 106.76368235419352 60.81191648894255 A 6.113605723075052 6.113605723075052 0 0 1 113.70911885431137 53.6350495457312" class="original" fill="none" />
    <path d="M 113.70911885431128 53.6350495457312 A 50.00000000000055 50.00000000000055 0 0 1 125.88050130355373 57.149539963693435" class="original" fill="none" />
    <path d="M 111.87579519958041 74.35918893504751 A 41.82297425774868 41.82297425774868 0 0 1 106.76368235419486 60.811916488942245" class="original" fill="none" />
    <path d="M 78.27502242958326 93.75860413878479 A 41.82297425775 41.82297425775 0 0 1 80.01393939765468 97.21516360748488" class="original" fill="none" />
    <path d="M 87.97801284693536 83.42098375811837 A 41.82297425774817 41.82297425774817 0 0 1 84.11508605331385 83.64331722304675" class="original" fill="none" />
    <path d="M 87.97801284693536 83.42098375811837 A 41.82297425774868 41.82297425774868 0 0 1 84.11508605331385 83.64331722304675" class="original" fill="none" />
    <path d="M 78.27502242958167 93.75860413878567 A 41.82297425774868 41.82297425774868 0 0 1 80.01393939765305 97.21516360748566" class="original" fill="none" />
    <path d="M 78.27502242958167 93.75860413878567 A 41.82297425774868 41.82297425774868 0 0 1 80.01393939765305 97.21516360748566" class="original" fill="none" />
    <path d="M 87.97801284693536 83.42098375811837 A 41.82297425774868 41.82297425774868 0 0 1 84.11508605331385 83.64331722304675" class="original" fill="none" />
    <path d="M 92.86127705269811 102.25196089993824 A 9.837331717893953 9.837331717893953 0 0 1 88.99697322954584 103.04273242678426" class="original" fill="none" />
    <path d="M 97.51635240269643 88.28673484994329 A 9.837331717893953 9.837331717893953 0 0 1 98.7636760834345 92.02870589215752" class="original" fill="none" />
    <path d="M 92.86127705269813 102.25196089993823 A 9.837331717893981 9.837331717893981 0 0 1 88.99697322954584 103.04273242678426" class="original" fill="none" />
    <path d="M 97.51635240269643 88.2867348499433 A 9.837331717893981 9.837331717893981 0 0 1 98.7636760834345 92.02870589215753" class="original" fill="none" />
    <path d="M 69.82674754030498 81.2969005911094 A 41.82297425774868 41.82297425774868 0 0 1 62.734461386626634 78.04273242678362" class="original" fill="none" />
    <path d="M 88.99697322954582 103.04273242678426 A 9.837331717893967 9.837331717893967 0 0 1 80.01393939765302 97.21516360748566" class="original" fill="none" />
    <path d="M 87.97801284693537 83.42098375811837 A 9.837331717893974 9.837331717893974 0 0 1 97.51635240269644 88.2867348499433" class="original" fill="none" />
    <path d="M 67.08411669796173 71.69354267003128 A 6.113605723075044 6.113605723075044 0 0 1 75.88361891691832 70.93533765333703" class="original" fill="none" />
    <path d="M 56.36867617818851 97.28221091168521 A 5.165412157723754 5.165412157723754 0 0 1 63.153855723241676 92.98393427310526" class="original" fill="none" />
    <path d="M 83.76771199491472 64.47339112866462 A 5.165412157723754 5.165412157723754 0 0 1 81.44786947973348 71.75117623033539" class="original" fill="none" />
    <path d="M 81.44786947973348 71.75117623033537 A 6.229895970079179 6.229895970079179 0 0 1 89.44045210752284 74.2988652218375" class="original" fill="none" />
    <path d="M 72.84517263919464 103.0427324267866 A 6.229895970079179 6.229895970079179 0 0 1 66.64251793771716 97.39479732502588" class="original" fill="none" />
    <path d="M 89.44045210752284 74.2988652218375 A 6.229895970079177 6.229895970079177 0 0 1 84.11508605331383 83.64331722304674" class="original" fill="none" />
    <path d="M 69.8267475403046 81.29690059111068 A 41.82297425775 41.82297425775 0 0 1 62.734461386625966 78.04273242678477" class="original" fill="none" />
    <path d="M 63.15385572324167 92.98393427310528 A 6.113605723075044 6.113605723075044 0 0 1 59.410729419497386 84.98423930248421" class="original" fill="none" />
    <path d="M 66.64251793771717 97.39479732502589 A 5.165412157723754 5.165412157723754 0 0 1 61.49969241397699 103.0427324267874" class="original" fill="none" />
    <path d="M 59.41072941949737 84.98423930248421 A 6.113605723075052 6.113605723075052 0 0 1 69.0987967619581 82.55774832461614" class="original" fill="none" />
    <path d="M 88.99697322954584 103.04273242678427 A 9.837331717893974 9.837331717893974 0 0 1 80.01393939765303 97.21516360748568" class="original" fill="none" />
    <path d="M 61.49969241397699 103.04273242678741 A 5.165412157723758 5.165412157723758 0 0 1 56.3686761781885 97.28221091168521" class="original" fill="none" />
    <path d="M 78.27502242958165 93.75860413878567 A 6.229895970079177 6.229895970079177 0 0 1 72.84517263919464 103.04273242678659" class="original" fill="none" />
    <path d="M 69.8267475403046 81.29690059111068 A 6.113605723075052 6.113605723075052 0 0 1 67.08411669796172 71.69354267003128" class="original" fill="none" />
    <path d="M 76.21344590589514 62.91006147879249 A 5.165412157723758 5.165412157723758 0 0 1 83.7677119949147 64.47339112866462" class="original" fill="none" />
    <path d="M 75.88361891691832 70.93533765333704 A 5.165412157723754 5.165412157723754 0 0 1 76.21344590589516 62.910061478792485" class="original" fill="none" />
    <path d="M 62.734461386626 78.0427324267848 A 41.82297425775001 41.82297425775001 0 0 1 69.09879676195807 82.55774832461611" class="original" fill="none" />
    <path d="M 89.44045210752284 74.2988652218375 A 6.229895970079177 6.229895970079177 0 0 1 84.11508605331383 83.64331722304674" class="original" fill="none" />
    <path d="M 56.36867617818849 97.28221091168525 A 50.00000000000055 50.00000000000055 0 0 1 59.41072941949737 84.98423930248421" class="original" fill="none" />
    <path d="M 77.88854690585963 76.46135426828407 A 6.113605723075052 6.113605723075052 0 0 1 69.8267475403046 81.2969005911107" class="original" fill="none" />
    <path d="M 87.97801284693536 83.42098375811835 A 9.837331717893967 9.837331717893967 0 0 1 97.51635240269643 88.28673484994327" class="original" fill="none" />
    <path d="M 84.11508605331385 83.64331722304674 A 41.82297425774998 41.82297425774998 0 0 1 69.82674754030455 81.29690059111067" class="original" fill="none" />
    <path d="M 106.03573157584702 103.04273242678427 A 14.75599757684095 14.75599757684095 0 0 1 98.7636760834345 92.02870589215753" class="original" fill="none" />
    <path d="M 68.94199048799133 91.95724453681338 A 6.229895970079175 6.229895970079175 0 0 1 78.27502242958167 93.75860413878567" class="original" fill="none" />
    <path d="M 62.734461386626 78.0427324267848 A 41.82297425775001 41.82297425775001 0 0 1 69.09879676195807 82.55774832461611" class="original" fill="none" />
    <path d="M 88.99697322954584 103.04273242678427 A 9.837331717893974 9.837331717893974 0 0 1 80.01393939765303 97.21516360748568" class="original" fill="none" />
    <path d="M 78.27502242958165 93.75860413878567 A 6.229895970079177 6.229895970079177 0 0 1 72.84517263919464 103.04273242678659" class="original" fill="none" />
    <path d="M 81.44786947973348 71.75117623033537 A 6.229895970079179 6.229895970079179 0 0 1 89.44045210752284 74.2988652218375" class="original" fill="none" />
    <path d="M 59.410729419497386 84.9842393024842 A 50.00000000000041 50.00000000000041 0 0 1 62.73446138662509 78.04273242678424" class="original" fill="none" />
    <path d="M 62.73446138662509 78.04273242678426 A 50.00000000000041 50.00000000000041 0 0 1 67.08411669796175 71.69354267003128" class="original" fill="none" />
    <path d="M 72.84517263919464 103.0427324267866 A 6.229895970079179 6.229895970079179 0 0 1 66.64251793771716 97.39479732502588" class="original" fill="none" />
    <path d="M 67.08411669796172 71.69354267003129 A 6.113605723075044 6.113605723075044 0 0 1 75.88361891691832 70.93533765333703" class="original" fill="none" />
    <path d="M 63.15385572324167 92.98393427310528 A 6.113605723075044 6.113605723075044 0 0 1 59.410729419497386 84.98423930248421" class="original" fill="none" />
    <path d="M 87.97801284693537 83.42098375811837 A 9.837331717893974 9.837331717893974 0 0 1 97.51635240269643 88.28673484994329" class="original" fill="none" />
    <path d="M 59.41072941949737 84.98423930248421 A 6.113605723075052 6.113605723075052 0 0 1 69.0987967619581 82.55774832461614" class="original" fill="none" />
    <path d="M 76.21344590589509 62.91006147879247 A 50.00000000000041 50.00000000000041 0 0 1 81.03573157585019 59.74146223756043" class="original" fill="none" />
    <path d="M 69.09879676195808 82.5577483246161 A 41.82297425774998 41.82297425774998 0 0 1 78.27502242958167 93.75860413878567" class="original" fill="none" />
    <path d="M 92.86127705269811 102.25196089993823 A 14.75599757684095 14.75599757684095 0 0 1 106.03573157584702 103.04273242678424" class="original" fill="none" />
    <path d="M 92.86127705269811 102.25196089993823 A 14.75599757684095 14.75599757684095 0 0 1 106.03573157584702 103.04273242678424" class="original" fill="none" />
    <path d="M 69.09879676195806 82.55774832461611 A 41.82297425775005 41.82297425775005 0 0 1 78.27502242958167 93.75860413878569" class="original" fill="none" />
    <path d="M 61.49969241397699 103.04273242678741 A 5.165412157723758 5.165412157723758 0 0 1 56.3686761781885 97.28221091168521" class="original" fill="none" />
    <path d="M 69.82674754030498 81.2969005911094 A 41.82297425774868 41.82297425774868 0 0 1 62.734461386626634 78.04273242678362" class="original" fill="none" />
    <path d="M 69.0987967619581 82.55774832461613 A 6.113605723075052 6.113605723075052 0 0 1 68.94199048799133 91.95724453681336" class="original" fill="none" />
    <path d="M 106.03573157584702 103.04273242678427 A 14.75599757684095 14.75599757684095 0 0 1 98.7636760834345 92.02870589215753" class="original" fill="none" />
    <path d="M 84.11508605331385 83.64331722304674 A 6.229895970079175 6.229895970079175 0 0 1 77.88854690585964 76.46135426828405" class="original" fill="none" />
    <path d="M 62.734461386625995 78.0427324267848 A 41.82297425775 41.82297425775 0 0 1 69.09879676195806 82.55774832461611" class="original" fill="none" />
    <path d="M 76.21344590589514 62.91006147879249 A 5.165412157723758 5.165412157723758 0 0 1 83.7677119949147 64.47339112866462" class="original" fill="none" />
    <path d="M 66.64251793771717 97.39479732502589 A 5.165412157723754 5.165412157723754 0 0 1 61.49969241397699 103.0427324267874" class="original" fill="none" />
    <path d="M 75.88361891691832 70.93533765333704 A 5.165412157723754 5.165412157723754 0 0 1 76.21344590589516 62.910061478792485" class="original" fill="none" />
    <path d="M 56.035731575847 103.04273242678804 A 49.99999999999729 49.99999999999729 0 0 1 56.36867617818848 97.28221091168525" class="original" fill="none" />
    <path d="M 83.7677119949147 64.47339112866462 A 5.165412157723754 5.165412157723754 0 0 1 81.44786947973348 71.75117623033539" class="original" fill="none" />
    <path d="M 56.36867617818851 97.28221091168521 A 5.165412157723754 5.165412157723754 0 0 1 63.153855723241676 92.98393427310526" class="original" fill="none" />
    <path d="M 69.8267475403046 81.29690059111068 A 6.113605723075052 6.113605723075052 0 0 1 67.08411669796172 71.69354267003128" class="original" fill="none" />
    <path d="M 67.08411669796169 71.69354267003132 A 50.00000000000055 50.00000000000055 0 0 1 76.2134459058951 62.910061478792514" class="original" fill="none" />
    <path d="M 84.11508605331383 83.64331722304536 A 41.82297425774868 41.82297425774868 0 0 1 69.82674754030505 81.29690059110939" class="original" fill="none" />
    <path d="M 84.11508605331383 122.44214763051995 A 41.82297425775 41.82297425775 0 0 1 87.97801284693558 122.66448109544834" class="original" fill="none" />
    <path d="M 80.01393939765303 108.87030124608286 A 41.82297425774817 41.82297425774817 0 0 1 78.27502242958167 112.32686071478285" class="original" fill="none" />
    <path d="M 80.01393939765303 108.87030124608287 A 41.82297425774868 41.82297425774868 0 0 1 78.27502242958167 112.32686071478284" class="original" fill="none" />
    <path d="M 84.11508605331392 122.44214763052179 A 41.82297425774868 41.82297425774868 0 0 1 87.97801284693533 122.66448109545016" class="original" fill="none" />
    <path d="M 84.11508605331392 122.44214763052179 A 41.82297425774868 41.82297425774868 0 0 1 87.97801284693533 122.66448109545016" class="original" fill="none" />
    <path d="M 80.01393939765303 108.87030124608287 A 41.82297425774868 41.82297425774868 0 0 1 78.27502242958167 112.32686071478284" class="original" fill="none" />
    <path d="M 98.7636760834345 114.05675896141099 A 9.837331717893953 9.837331717893953 0 0 1 97.51635240269643 117.79873000362521" class="original" fill="none" />
    <path d="M 88.99697322954583 103.04273242678426 A 9.837331717893953 9.837331717893953 0 0 1 92.86127705269811 103.83350395363028" class="original" fill="none" />
    <path d="M 98.7636760834345 114.05675896141099 A 9.837331717893981 9.837331717893981 0 0 1 97.51635240269644 117.79873000362521" class="original" fill="none" />
    <path d="M 88.99697322954583 103.04273242678426 A 9.837331717893981 9.837331717893981 0 0 1 92.86127705269811 103.8335039536303" class="original" fill="none" />
    <path d="M 69.09879676195719 123.52771652895142 A 41.82297425774868 41.82297425774868 0 0 1 62.7344613866253 128.0427324267826" class="original" fill="none" />
    <path d="M 97.51635240269643 117.79873000362522 A 9.837331717893967 9.837331717893967 0 0 1 87.97801284693537 122.66448109545016" class="original" fill="none" />
    <path d="M 80.01393939765303 108.87030124608285 A 9.837331717893974 9.837331717893974 0 0 1 88.99697322954583 103.04273242678426" class="original" fill="none" />
    <path d="M 59.410729419497386 121.10122555108433 A 6.113605723075044 6.113605723075044 0 0 1 63.15385572324166 113.10153058046325" class="original" fill="none" />
    <path d="M 76.21344590589516 143.175403374776 A 5.165412157723754 5.165412157723754 0 0 1 75.88361891691831 135.15012720023148" class="original" fill="none" />
    <path d="M 61.49969241397699 103.04273242678113 A 5.165412157723754 5.165412157723754 0 0 1 66.64251793771717 108.69066752854263" class="original" fill="none" />
    <path d="M 66.64251793771716 108.69066752854265 A 6.229895970079179 6.229895970079179 0 0 1 72.84517263919463 103.04273242678192" class="original" fill="none" />
    <path d="M 89.44045210752284 131.786599631731 A 6.229895970079179 6.229895970079179 0 0 1 81.44786947973348 134.33428862323314" class="original" fill="none" />
    <path d="M 72.84517263919463 103.04273242678192 A 6.229895970079177 6.229895970079177 0 0 1 78.27502242958165 112.32686071478285" class="original" fill="none" />
    <path d="M 69.09879676195808 123.5277165289524 A 41.82297425775 41.82297425775 0 0 1 62.734461386625966 128.04273242678374" class="original" fill="none" />
    <path d="M 75.88361891691834 135.15012720023148 A 6.113605723075044 6.113605723075044 0 0 1 67.08411669796175 134.39192218353725" class="original" fill="none" />
    <path d="M 81.44786947973348 134.33428862323314 A 5.165412157723754 5.165412157723754 0 0 1 83.7677119949147 141.6120737249039" class="original" fill="none" />
    <path d="M 67.08411669796173 134.39192218353725 A 6.113605723075052 6.113605723075052 0 0 1 69.8267475403046 124.78856426245784" class="original" fill="none" />
    <path d="M 97.51635240269644 117.79873000362522 A 9.837331717893974 9.837331717893974 0 0 1 87.97801284693537 122.66448109545016" class="original" fill="none" />
    <path d="M 83.7677119949147 141.6120737249039 A 5.165412157723758 5.165412157723758 0 0 1 76.21344590589516 143.17540337477604" class="original" fill="none" />
    <path d="M 84.11508605331385 122.44214763052177 A 6.229895970079177 6.229895970079177 0 0 1 89.44045210752286 131.786599631731" class="original" fill="none" />
    <path d="M 69.09879676195811 123.5277165289524 A 6.113605723075052 6.113605723075052 0 0 1 59.410729419497386 121.10122555108433" class="original" fill="none" />
    <path d="M 56.3686761781885 108.80325394188333 A 5.165412157723758 5.165412157723758 0 0 1 61.49969241397699 103.04273242678111" class="original" fill="none" />
    <path d="M 63.15385572324167 113.10153058046326 A 5.165412157723754 5.165412157723754 0 0 1 56.36867617818851 108.80325394188331" class="original" fill="none" />
    <path d="M 62.73446138662591 128.0427324267838 A 41.82297425775001 41.82297425775001 0 0 1 69.82674754030457 124.78856426245787" class="original" fill="none" />
    <path d="M 72.84517263919463 103.04273242678192 A 6.229895970079177 6.229895970079177 0 0 1 78.27502242958165 112.32686071478285" class="original" fill="none" />
    <path d="M 76.21344590589511 143.175403374776 A 50.00000000000055 50.00000000000055 0 0 1 67.08411669796175 134.39192218353725" class="original" fill="none" />
    <path d="M 68.94199048799133 114.12822031675515 A 6.113605723075052 6.113605723075052 0 0 1 69.09879676195811 123.5277165289524" class="original" fill="none" />
    <path d="M 80.01393939765302 108.87030124608286 A 9.837331717893967 9.837331717893967 0 0 1 88.99697322954582 103.04273242678426" class="original" fill="none" />
    <path d="M 78.27502242958167 112.32686071478285 A 41.82297425774998 41.82297425774998 0 0 1 69.0987967619581 123.5277165289524" class="original" fill="none" />
    <path d="M 106.03573157584702 103.04273242678427 A 14.75599757684095 14.75599757684095 0 0 1 92.86127705269813 103.8335039536303" class="original" fill="none" />
    <path d="M 77.88854690585964 129.62411058528446 A 6.229895970079175 6.229895970079175 0 0 1 84.11508605331385 122.44214763052177" class="original" fill="none" />
    <path d="M 62.73446138662591 128.0427324267838 A 41.82297425775001 41.82297425775001 0 0 1 69.82674754030457 124.78856426245787" class="original" fill="none" />
    <path d="M 97.51635240269644 117.79873000362522 A 9.837331717893974 9.837331717893974 0 0 1 87.97801284693537 122.66448109545016" class="original" fill="none" />
    <path d="M 84.11508605331385 122.44214763052177 A 6.229895970079177 6.229895970079177 0 0 1 89.44045210752286 131.786599631731" class="original" fill="none" />
    <path d="M 66.64251793771716 108.69066752854265 A 6.229895970079179 6.229895970079179 0 0 1 72.84517263919463 103.04273242678192" class="original" fill="none" />
    <path d="M 67.08411669796179 134.3919221835373 A 50.00000000000041 50.00000000000041 0 0 1 62.734461386625085 128.04273242678426" class="original" fill="none" />
    <path d="M 62.734461386625085 128.04273242678426 A 50.00000000000041 50.00000000000041 0 0 1 59.41072941949739 121.10122555108433" class="original" fill="none" />
    <path d="M 89.44045210752284 131.786599631731 A 6.229895970079179 6.229895970079179 0 0 1 81.44786947973348 134.33428862323314" class="original" fill="none" />
    <path d="M 59.410729419497386 121.10122555108433 A 6.113605723075044 6.113605723075044 0 0 1 63.15385572324166 113.10153058046325" class="original" fill="none" />
    <path d="M 75.88361891691834 135.15012720023148 A 6.113605723075044 6.113605723075044 0 0 1 67.08411669796175 134.39192218353725" class="original" fill="none" />
    <path d="M 80.01393939765303 108.87030124608286 A 9.837331717893974 9.837331717893974 0 0 1 88.99697322954583 103.04273242678426" class="original" fill="none" />
    <path d="M 67.08411669796173 134.39192218353725 A 6.113605723075052 6.113605723075052 0 0 1 69.8267475403046 124.78856426245784" class="original" fill="none" />
    <path d="M 56.36867617818847 108.80325394188336 A 50.00000000000041 50.00000000000041 0 0 1 56.03573157584697 103.04273242678055" class="original" fill="none" />
    <path d="M 69.82674754030458 124.78856426245787 A 41.82297425774998 41.82297425774998 0 0 1 84.11508605331385 122.44214763052179" class="original" fill="none" />
    <path d="M 98.76367608343452 114.05675896141099 A 14.75599757684095 14.75599757684095 0 0 1 106.03573157584702 103.04273242678426" class="original" fill="none" />
    <path d="M 98.76367608343452 114.05675896141099 A 14.75599757684095 14.75599757684095 0 0 1 106.03573157584702 103.04273242678426" class="original" fill="none" />
    <path d="M 69.82674754030455 124.78856426245788 A 41.82297425775005 41.82297425775005 0 0 1 84.11508605331385 122.44214763052182" class="original" fill="none" />
    <path d="M 83.7677119949147 141.6120737249039 A 5.165412157723758 5.165412157723758 0 0 1 76.21344590589516 143.17540337477604" class="original" fill="none" />
    <path d="M 69.09879676195719 123.52771652895142 A 41.82297425774868 41.82297425774868 0 0 1 62.7344613866253 128.0427324267826" class="original" fill="none" />
    <path d="M 69.8267475403046 124.78856426245784 A 6.113605723075052 6.113605723075052 0 0 1 77.88854690585963 129.62411058528446" class="original" fill="none" />
    <path d="M 106.03573157584702 103.04273242678427 A 14.75599757684095 14.75599757684095 0 0 1 92.86127705269813 103.8335039536303" class="original" fill="none" />
    <path d="M 78.27502242958167 112.32686071478285 A 6.229895970079175 6.229895970079175 0 0 1 68.94199048799135 114.12822031675516" class="original" fill="none" />
    <path d="M 62.73446138662592 128.0427324267838 A 41.82297425775 41.82297425775 0 0 1 69.82674754030457 124.78856426245787" class="original" fill="none" />
    <path d="M 56.3686761781885 108.80325394188333 A 5.165412157723758 5.165412157723758 0 0 1 61.49969241397699 103.04273242678111" class="original" fill="none" />
    <path d="M 81.44786947973348 134.33428862323314 A 5.165412157723754 5.165412157723754 0 0 1 83.7677119949147 141.6120737249039" class="original" fill="none" />
    <path d="M 63.15385572324167 113.10153058046326 A 5.165412157723754 5.165412157723754 0 0 1 56.36867617818851 108.80325394188331" class="original" fill="none" />
    <path d="M 81.03573157585028 146.34400261600808 A 49.99999999999729 49.99999999999729 0 0 1 76.21344590589511 143.17540337477604" class="original" fill="none" />
    <path d="M 61.49969241397699 103.04273242678113 A 5.165412157723754 5.165412157723754 0 0 1 66.64251793771717 108.69066752854263" class="original" fill="none" />
  </g>

  <!-- Simplified Lines -->
  <g id="simplified" transform="translate(272.07146315169393, 20)">
    <text x="106.03573157584698" y="-5" class="title" text-anchor="middle">Simplified (0 lines)</text>
  </g>

  <!-- Paths -->
  <g id="paths" transform="translate(524.1429263033879, 20)">
    <text x="106.03573157584698" y="-5" class="title" text-anchor="middle">Paths (0 path(s))</text>
  </g>
</svg>