<?xml version="1.0" encoding="UTF-8"?>
<svg xmlns="http://www.w3.org/2000/svg" width="460.0000000000001" height="140.00000000000003" viewBox="0 0 460.0000000000001 140.00000000000003">
  <style>
    .original { stroke: blue; stroke-width: 1; }
    .simplified { stroke: red; stroke-width: 2; }
    .original-point { fill: darkblue; }
    .simplified-point { fill: darkred; }
    .path-point { fill: black; }
    .title { font-family: Arial, sans-serif; font-size: 14px; fill: black; }
  </style>

  <!-- Original Lines -->
  <g id="original" transform="translate(20, 20)">
    <text x="50.000000000000014" y="-5" class="title" text-anchor="middle">Original (12 lines)</text>
    <line x1="50.000000000000014" y1="50.000000000000014" x2="67.80588472299124" y2="50.000000000000135" class="original" />
    <line x1="50.000000000000014" y1="50.000000000000014" x2="58.90294236149552" y2="34.579651493032316" class="original" />
    <line x1="50.000000000000014" y1="50.000000000000014" x2="41.0970576385043" y2="65.4203485069676" class="original" />
    <line x1="50.000000000000014" y1="50.000000000000014" x2="41.09705763850451" y2="65.4203485069677" class="original" />
    <line x1="50.000000000000014" y1="50.000000000000014" x2="58.90294236149552" y2="65.4203485069677" class="original" />
    <line x1="50.000000000000014" y1="50.000000000000014" x2="58.902942361495725" y2="65.4203485069676" class="original" />
    <line x1="50.000000000000014" y1="50.000000000000014" x2="32.19411527700879" y2="50.000000000000135" class="original" />
    <line x1="50.000000000000014" y1="50.000000000000014" x2="32.19411527700879" y2="49.9999999999999" class="original" />
    <line x1="50.000000000000014" y1="50.000000000000014" x2="41.097057638504296" y2="34.579651493032436" class="original" />
    <line x1="50.000000000000014" y1="50.000000000000014" x2="58.90294236149572" y2="34.579651493032436" class="original" />
    <line x1="50.000000000000014" y1="50.000000000000014" x2="41.09705763850451" y2="34.57965149303232" class="original" />
    <line x1="50.000000000000014" y1="50.000000000000014" x2="67.80588472299124" y2="49.999999999999886" class="original" />
    <path d="M 58.902942361495484 34.579651493032394 A 10.2802323379785 10.2802323379785 0 0 1 72.94600089198043 30.81682530052596" class="original" fill="none" />
    <path d="M 55.14011616898922 20.536592962547537 A 10.28023233797851 10.28023233797851 0 0 1 58.9029423614957 34.57965149303249" class="original" fill="none" />
    <path d="M 98.29629131445346 62.940952255126085 A 10.28023233797839 10.28023233797839 0 0 1 83.22623322995888 69.18317469947404" class="original" fill="none" />
    <path d="M 50.000000000000014 11.633650601051954 A 10.28023233797839 10.28023233797839 0 0 1 44.85988383101079 20.536592962547548" class="original" fill="none" />
    <path d="M 67.80588472299115 49.9999999999999 A 10.2802323379785 10.2802323379785 0 0 1 78.08611706096967 60.280232337978404" class="original" fill="none" />
    <path d="M 41.09705763850436 34.579651493032515 A 10.2802323379785 10.2802323379785 0 0 1 44.85988383101079 20.53659296254756" class="original" fill="none" />
    <path d="M 78.08611706096966 39.71976766202161 A 10.28023233797851 10.28023233797851 0 0 1 67.80588472299117 50.00000000000012" class="original" fill="none" />
    <path d="M 37.05904774487399 1.7037086855465766 A 10.28023233797839 10.28023233797839 0 0 1 50 11.633650601051952" class="original" fill="none" />
    <path d="M 83.22623322995885 30.81682530052597 A 10.28023233797839 10.28023233797839 0 0 1 72.94600089198043 30.816825300525956" class="original" fill="none" />
    <path d="M 30.81682530052604 16.77376677004113 A 10.2802323379784 10.2802323379784 0 0 1 37.059047744874015 1.7037086855465606" class="original" fill="none" />
    <path d="M 58.902942361495484 34.579651493032394 A 10.2802323379785 10.2802323379785 0 0 1 72.94600089198043 30.81682530052596" class="original" fill="none" />
    <path d="M 30.81682530052604 16.77376677004113 A 10.2802323379784 10.2802323379784 0 0 1 37.059047744874015 1.7037086855465606" class="original" fill="none" />
    <path d="M 85.3553390593274 14.644660940672626 A 10.28023233797839 10.28023233797839 0 0 1 83.22623322995885 30.81682530052596" class="original" fill="none" />
    <path d="M 69.18317469947407 16.773766770041192 A 10.2802323379784 10.2802323379784 0 0 1 85.3553390593274 14.644660940672617" class="original" fill="none" />
    <path d="M 55.14011616898922 20.536592962547537 A 10.28023233797851 10.28023233797851 0 0 1 58.9029423614957 34.579651493032486" class="original" fill="none" />
    <path d="M 69.18317469947407 16.773766770041192 A 10.2802323379784 10.2802323379784 0 0 1 85.3553390593274 14.644660940672617" class="original" fill="none" />
    <path d="M 21.91388293903035 60.280232337978475 A 10.28023233797839 10.28023233797839 0 0 1 16.773766770041163 69.18317469947405" class="original" fill="none" />
    <path d="M 62.94095225512602 98.29629131445346 A 10.28023233797839 10.28023233797839 0 0 1 50.000000000000014 88.36634939894807" class="original" fill="none" />
    <path d="M 83.22623322995886 69.18317469947405 A 10.28023233797839 10.28023233797839 0 0 1 78.08611706096968 60.28023233797844" class="original" fill="none" />
    <path d="M 16.773766770041156 69.18317469947404 A 10.28023233797839 10.28023233797839 0 0 1 1.7037086855465855 62.940952255126085" class="original" fill="none" />
    <path d="M 69.183174699474 83.2262332299589 A 10.2802323379784 10.2802323379784 0 0 1 62.94095225512602 98.29629131445346" class="original" fill="none" />
    <path d="M 58.90294236149567 65.42034850696751 A 10.2802323379785 10.2802323379785 0 0 1 55.14011616898924 79.46340703745247" class="original" fill="none" />
    <path d="M 72.94600089198045 69.18317469947407 A 10.28023233797851 10.28023233797851 0 0 1 58.902942361495484 65.42034850696764" class="original" fill="none" />
    <path d="M 72.94600089198045 69.18317469947407 A 10.28023233797851 10.28023233797851 0 0 1 58.902942361495484 65.42034850696764" class="original" fill="none" />
    <path d="M 88.36634939894809 50.000000000000085 A 10.2802323379784 10.2802323379784 0 0 1 98.29629131445347 62.9409522551261" class="original" fill="none" />
    <path d="M 58.90294236149567 65.42034850696751 A 10.2802323379785 10.2802323379785 0 0 1 55.14011616898924 79.46340703745247" class="original" fill="none" />
    <path d="M 88.36634939894809 50.000000000000085 A 10.2802323379784 10.2802323379784 0 0 1 98.29629131445347 62.9409522551261" class="original" fill="none" />
    <path d="M 44.85988383101078 79.46340703745247 A 10.28023233797851 10.28023233797851 0 0 1 41.097057638504324 65.42034850696754" class="original" fill="none" />
    <path d="M 50.000000000000014 88.36634939894807 A 10.28023233797839 10.28023233797839 0 0 1 37.059047744874 98.29629131445346" class="original" fill="none" />
    <path d="M 98.29629131445346 62.940952255126085 A 10.28023233797839 10.28023233797839 0 0 1 83.22623322995888 69.18317469947404" class="original" fill="none" />
    <path d="M 50 88.36634939894807 A 10.28023233797839 10.28023233797839 0 0 1 55.14011616898922 79.46340703745248" class="original" fill="none" />
    <path d="M 44.85988383101079 79.46340703745247 A 10.28023233797839 10.28023233797839 0 0 1 50.00000000000003 88.36634939894807" class="original" fill="none" />
    <path d="M 67.80588472299115 49.9999999999999 A 10.2802323379785 10.2802323379785 0 0 1 78.08611706096967 60.280232337978404" class="original" fill="none" />
    <path d="M 62.94095225512602 98.29629131445346 A 10.28023233797839 10.28023233797839 0 0 1 50.000000000000014 88.36634939894807" class="original" fill="none" />
    <path d="M 14.644660940672612 85.35533905932738 A 10.28023233797839 10.28023233797839 0 0 1 16.773766770041167 69.18317469947405" class="original" fill="none" />
    <path d="M 41.09705763850454 65.42034850696763 A 10.2802323379785 10.2802323379785 0 0 1 27.053999108019575 69.18317469947405" class="original" fill="none" />
    <path d="M 37.059047744874015 98.29629131445346 A 10.2802323379784 10.2802323379784 0 0 1 30.81682530052604 83.2262332299589" class="original" fill="none" />
    <path d="M 83.22623322995886 69.18317469947405 A 10.28023233797839 10.28023233797839 0 0 1 78.08611706096968 60.28023233797844" class="original" fill="none" />
    <path d="M 69.183174699474 83.2262332299589 A 10.2802323379784 10.2802323379784 0 0 1 62.940952255126014 98.29629131445346" class="original" fill="none" />
    <path d="M 16.773766770041156 69.18317469947405 A 10.28023233797839 10.28023233797839 0 0 1 27.053999108019582 69.18317469947407" class="original" fill="none" />
    <path d="M 32.19411527700888 50.00000000000013 A 10.2802323379785 10.2802323379785 0 0 1 21.913882939030362 39.7197676620216" class="original" fill="none" />
    <path d="M 44.85988383101078 79.46340703745247 A 10.28023233797851 10.28023233797851 0 0 1 41.09705763850434 65.42034850696753" class="original" fill="none" />
    <path d="M 85.35533905932745 85.35533905932739 A 10.2802323379784 10.2802323379784 0 0 1 69.1831746994741 83.22623322995882" class="original" fill="none" />
    <path d="M 50 88.36634939894807 A 10.28023233797839 10.28023233797839 0 0 1 55.14011616898922 79.46340703745248" class="original" fill="none" />
    <path d="M 83.22623322995885 69.18317469947405 A 10.28023233797839 10.28023233797839 0 0 1 85.35533905932742 85.35533905932738" class="original" fill="none" />
    <path d="M 1.7037086855465748 62.940952255126106 A 10.2802323379784 10.2802323379784 0 0 1 11.633650601051942 50.000000000000085" class="original" fill="none" />
    <path d="M 21.913882939030366 60.280232337978426 A 10.28023233797851 10.28023233797851 0 0 1 32.194115277008855 49.99999999999989" class="original" fill="none" />
    <path d="M 30.81682530052593 83.22623322995884 A 10.2802323379784 10.2802323379784 0 0 1 14.644660940672583 85.35533905932739" class="original" fill="none" />
    <path d="M 30.81682530052593 83.22623322995884 A 10.2802323379784 10.2802323379784 0 0 1 14.644660940672583 85.35533905932739" class="original" fill="none" />
    <path d="M 72.94600089198045 69.18317469947407 A 10.28023233797839 10.28023233797839 0 0 1 83.22623322995886 69.18317469947405" class="original" fill="none" />
    <path d="M 14.644660940672612 85.35533905932738 A 10.28023233797839 10.28023233797839 0 0 1 16.773766770041167 69.18317469947405" class="original" fill="none" />
    <path d="M 16.773766770041156 69.18317469947405 A 10.28023233797839 10.28023233797839 0 0 1 27.053999108019582 69.18317469947407" class="original" fill="none" />
    <path d="M 21.913882939030366 60.280232337978426 A 10.28023233797851 10.28023233797851 0 0 1 32.194115277008855 49.99999999999989" class="original" fill="none" />
    <path d="M 32.19411527700888 50.00000000000013 A 10.2802323379785 10.2802323379785 0 0 1 21.913882939030362 39.7197676620216" class="original" fill="none" />
    <path d="M 1.7037086855465837 37.05904774487395 A 10.28023233797839 10.28023233797839 0 0 1 16.773766770041156 30.816825300526" class="original" fill="none" />
    <path d="M 16.773766770041163 30.816825300525984 A 10.28023233797839 10.28023233797839 0 0 1 14.644660940672598 14.644660940672651" class="original" fill="none" />
    <path d="M 27.053999108019585 30.816825300525974 A 10.28023233797839 10.28023233797839 0 0 1 16.773766770041163 30.816825300525995" class="original" fill="none" />
    <path d="M 41.09705763850454 65.42034850696763 A 10.2802323379785 10.2802323379785 0 0 1 27.053999108019575 69.18317469947405" class="original" fill="none" />
    <path d="M 16.773766770041156 30.81682530052599 A 10.28023233797839 10.28023233797839 0 0 1 21.91388293903035 39.71976766202157" class="original" fill="none" />
    <path d="M 14.64466094067258 14.644660940672654 A 10.2802323379784 10.2802323379784 0 0 1 30.81682530052592 16.773766770041195" class="original" fill="none" />
    <path d="M 27.05399910801957 30.816825300525977 A 10.28023233797851 10.28023233797851 0 0 1 41.09705763850452 34.57965149303237" class="original" fill="none" />
    <path d="M 11.633650601051961 49.99999999999996 A 10.2802323379784 10.2802323379784 0 0 1 1.7037086855465677 37.05904774487395" class="original" fill="none" />
    <path d="M 11.633650601051961 49.99999999999996 A 10.2802323379784 10.2802323379784 0 0 1 1.7037086855465677 37.05904774487395" class="original" fill="none" />
    <path d="M 1.7037086855465837 37.05904774487395 A 10.28023233797839 10.28023233797839 0 0 1 16.773766770041156 30.816825300526" class="original" fill="none" />
    <path d="M 16.773766770041156 30.81682530052599 A 10.28023233797839 10.28023233797839 0 0 1 21.91388293903035 39.71976766202157" class="original" fill="none" />
    <path d="M 85.3553390593274 14.644660940672626 A 10.28023233797839 10.28023233797839 0 0 1 83.22623322995885 30.81682530052596" class="original" fill="none" />
    <path d="M 27.05399910801957 30.816825300525977 A 10.28023233797851 10.28023233797851 0 0 1 41.09705763850452 34.57965149303237" class="original" fill="none" />
    <path d="M 41.09705763850436 34.579651493032515 A 10.2802323379785 10.2802323379785 0 0 1 44.85988383101079 20.53659296254756" class="original" fill="none" />
    <path d="M 83.22623322995884 30.816825300525977 A 10.28023233797839 10.28023233797839 0 0 1 98.29629131445343 37.05904774487392" class="original" fill="none" />
    <path d="M 37.05904774487399 1.7037086855465766 A 10.28023233797839 10.28023233797839 0 0 1 50 11.633650601051952" class="original" fill="none" />
    <path d="M 78.08611706096966 39.71976766202157 A 10.28023233797839 10.28023233797839 0 0 1 83.22623322995884 30.816825300525963" class="original" fill="none" />
    <path d="M 50.000000000000014 11.633650601051956 A 10.28023233797839 10.28023233797839 0 0 1 62.94095225512602 1.7037086855465766" class="original" fill="none" />
    <path d="M 83.22623322995885 30.81682530052597 A 10.28023233797839 10.28023233797839 0 0 1 72.94600089198043 30.816825300525956" class="original" fill="none" />
    <path d="M 55.14011616898922 20.53659296254755 A 10.28023233797839 10.28023233797839 0 0 1 50 11.633650601051956" class="original" fill="none" />
    <path d="M 98.29629131445343 37.0590477448739 A 10.2802323379784 10.2802323379784 0 0 1 88.36634939894806 49.99999999999993" class="original" fill="none" />
    <path d="M 78.08611706096966 39.71976766202161 A 10.28023233797851 10.28023233797851 0 0 1 67.80588472299117 50.00000000000012" class="original" fill="none" />
    <path d="M 50.000000000000014 11.633650601051954 A 10.28023233797839 10.28023233797839 0 0 1 44.85988383101079 20.536592962547548" class="original" fill="none" />
    <path d="M 62.940952255126 1.7037086855465589 A 10.2802323379784 10.2802323379784 0 0 1 69.18317469947398 16.77376677004113" class="original" fill="none" />
    <circle cx="50" cy="50.000000000000014" r="50" class="original" fill="none" />
    <circle cx="50.00000000000001" cy="50.00000000000003" r="50" class="original" fill="none" />
    <circle cx="50.00000000000001" cy="50.00000000000001" r="50" class="original" fill="none" />
    <circle cx="50.00000000000003" cy="50.000000000000014" r="50" class="original" fill="none" />
    <circle cx="50.00000000000002" cy="50" r="50" class="original" fill="none" />
    <circle cx="50.00000000000002" cy="50.00000000000002" r="50" class="original" fill="none" />
    <circle cx="50.000000000000014" cy="50.000000000000014" r="2" class="original-point" />
    <circle cx="67.80588472299124" cy="50.000000000000135" r="2" class="original-point" />
    <circle cx="58.90294236149552" cy="34.579651493032316" r="2" class="original-point" />
    <circle cx="41.0970576385043" cy="65.4203485069676" r="2" class="original-point" />
    <circle cx="41.09705763850451" cy="65.4203485069677" r="2" class="original-point" />
    <circle cx="58.90294236149552" cy="65.4203485069677" r="2" class="original-point" />
    <circle cx="58.902942361495725" cy="65.4203485069676" r="2" class="original-point" />
    <circle cx="32.19411527700879" cy="50.000000000000135" r="2" class="original-point" />
    <circle cx="32.19411527700879" cy="49.9999999999999" r="2" class="original-point" />
    <circle cx="41.097057638504296" cy="34.579651493032436" r="2" class="original-point" />
    <circle cx="58.90294236149572" cy="34.579651493032436" r="2" class="original-point" />
    <circle cx="41.09705763850451" cy="34.57965149303232" r="2" class="original-point" />
    <circle cx="67.80588472299124" cy="49.999999999999886" r="2" class="original-point" />
  </g>

  <!-- Simplified Lines -->
  <g id="simplified" transform="translate(160.00000000000003, 20)">
    <text x="50.000000000000014" y="-5" class="title" text-anchor="middle">Simplified (3 lines)</text>
    <line x1="67.80588472299124" y1="50.000000000000135" x2="32.19411527700879" y2="50.000000000000135" class="simplified" />
    <line x1="58.90294236149552" y1="34.579651493032316" x2="41.0970576385043" y2="65.4203485069676" class="simplified" />
    <line x1="58.90294236149552" y1="65.4203485069677" x2="41.097057638504296" y2="34.579651493032436" class="simplified" />
    <circle cx="67.80588472299124" cy="50.000000000000135" r="3" class="simplified-point" />
    <circle cx="32.19411527700879" cy="50.000000000000135" r="3" class="simplified-point" />
    <circle cx="58.90294236149552" cy="34.579651493032316" r="3" class="simplified-point" />
    <circle cx="41.0970576385043" cy="65.4203485069676" r="3" class="simplified-point" />
    <circle cx="58.90294236149552" cy="65.4203485069677" r="3" class="simplified-point" />
    <circle cx="41.097057638504296" cy="34.579651493032436" r="3" class="simplified-point" />
  </g>

  <!-- Paths -->
  <g id="paths" transform="translate(300.00000000000006, 20)">
    <text x="50.000000000000014" y="-5" class="title" text-anchor="middle">Paths (3 path(s))</text>
    <line x1="67.80588472299124" y1="50.000000000000135" x2="32.19411527700879" y2="50.000000000000135" stroke="#FF6B6B" stroke-width="2" />
    <line x1="58.90294236149552" y1="34.579651493032316" x2="41.0970576385043" y2="65.4203485069676" stroke="#4ECDC4" stroke-width="2" />
    <line x1="58.90294236149552" y1="65.4203485069677" x2="41.097057638504296" y2="34.579651493032436" stroke="#45B7D1" stroke-width="2" />
    <circle cx="67.80588472299124" cy="50.000000000000135" r="3" class="path-point" />
    <circle cx="32.19411527700879" cy="50.000000000000135" r="3" class="path-point" />
    <circle cx="58.90294236149552" cy="34.579651493032316" r="3" class="path-point" />
    <circle cx="41.0970576385043" cy="65.4203485069676" r="3" class="path-point" />
    <circle cx="58.90294236149552" cy="65.4203485069677" r="3" class="path-point" />
    <circle cx="41.097057638504296" cy="34.579651493032436" r="3" class="path-point" />
  </g>
</svg>