<?xml version="1.0" encoding="UTF-8"?>
<svg xmlns="http://www.w3.org/2000/svg" width="476.2636234722904" height="145.4212078240968" viewBox="0 0 476.2636234722904 145.4212078240968">
  <style>
    .original { stroke: blue; stroke-width: 1; }
    .simplified { stroke: red; stroke-width: 2; }
    .original-point { fill: darkblue; }
    .simplified-point { fill: darkred; }
    .path-point { fill: black; }
    .title { font-family: Arial, sans-serif; font-size: 14px; fill: black; }
  </style>

  <!-- Original Lines -->
  <g id="original" transform="translate(20, 20)">
    <text x="52.7106039120484" y="-5" class="title" text-anchor="middle">Original (32 lines)</text>
    <line x1="49.64913645312767" y1="45.3195676519581" x2="38.20063722988286" y2="17.680445558382765" class="original" />
    <line x1="52.71060391204841" y1="60.71060391204839" x2="52.710603912048434" y2="90.62697408906357" class="original" />
    <line x1="25.899681441901578" y1="25.89968144190163" x2="47.053749662556015" y2="47.053749662556015" class="original" />
    <line x1="67.22057059421394" y1="87.74076226571404" x2="55.77207137096912" y2="60.10164017213868" class="original" />
    <line x1="47.05374966255602" y1="47.053749662556015" x2="25.89968144190159" y2="25.89968144190162" class="original" />
    <line x1="55.77207137096913" y1="60.10164017213868" x2="67.22057059421395" y2="87.74076226571407" class="original" />
    <line x1="17.68044555838273" y1="38.20063722988293" x2="45.319567651958096" y2="49.649136453127674" class="original" />
    <line x1="79.52152638219523" y1="79.52152638219515" x2="58.36745816154079" y2="58.36745816154077" class="original" />
    <line x1="45.319567651958096" y1="49.649136453127674" x2="17.68044555838273" y2="38.20063722988293" class="original" />
    <line x1="58.36745816154078" y1="58.36745816154076" x2="79.52152638219523" y2="79.52152638219518" class="original" />
    <line x1="87.74076226571408" y1="67.22057059421385" x2="60.101640172138694" y2="55.7720713709691" class="original" />
    <line x1="44.7106039120484" y1="52.710603912048406" x2="14.794233735033231" y2="52.710603912048434" class="original" />
    <line x1="60.101640172138694" y1="55.772071370969094" x2="87.74076226571407" y2="67.22057059421384" class="original" />
    <line x1="17.680445558382758" y1="67.22057059421394" x2="45.31956765195812" y2="55.77207137096912" class="original" />
    <line x1="90.62697408906357" y1="52.71060391204835" x2="60.7106039120484" y2="52.710603912048384" class="original" />
    <line x1="58.367458161540775" y1="47.05374966255601" x2="79.52152638219516" y2="25.89968144190157" class="original" />
    <line x1="67.22057059421385" y1="17.680445558382708" x2="55.7720713709691" y2="45.31956765195809" class="original" />
    <line x1="55.77207137096911" y1="45.319567651958096" x2="67.22057059421385" y2="17.680445558382722" class="original" />
    <line x1="52.710603912048356" y1="14.794233735033224" x2="52.71060391204839" y2="44.71060391204839" class="original" />
    <line x1="14.794233735033231" y1="52.710603912048434" x2="44.7106039120484" y2="52.7106039120484" class="original" />
    <line x1="52.71060391204844" y1="90.62697408906357" x2="52.710603912048406" y2="60.71060391204839" class="original" />
    <line x1="38.20063722988285" y1="17.68044555838275" x2="49.64913645312767" y2="45.3195676519581" class="original" />
    <line x1="52.71060391204839" y1="44.71060391204839" x2="52.710603912048356" y2="14.794233735033231" class="original" />
    <line x1="49.64913645312769" y1="60.10164017213869" x2="38.200637229882936" y2="87.74076226571407" class="original" />
    <line x1="79.52152638219516" y1="25.89968144190156" x2="58.36745816154077" y2="47.05374966255601" class="original" />
    <line x1="38.200637229882936" y1="87.74076226571407" x2="49.64913645312768" y2="60.10164017213869" class="original" />
    <line x1="60.10164017213869" y1="49.649136453127674" x2="87.74076226571404" y2="38.20063722988286" class="original" />
    <line x1="47.05374966255603" y1="58.36745816154078" x2="25.899681441901627" y2="79.52152638219522" class="original" />
    <line x1="87.74076226571403" y1="38.200637229882844" x2="60.10164017213869" y2="49.64913645312766" class="original" />
    <line x1="25.899681441901627" y1="79.52152638219522" x2="47.05374966255603" y2="58.367458161540775" class="original" />
    <line x1="60.7106039120484" y1="52.710603912048384" x2="90.62697408906357" y2="52.71060391204835" class="original" />
    <line x1="45.31956765195812" y1="55.77207137096913" x2="17.68044555838277" y2="67.22057059421394" class="original" />
    <path d="M 17.680445558382715 38.20063722988294 A 14.79423373503323 14.79423373503323 0 0 1 11.137123296921107 24.932092261068313" class="original" fill="none" />
    <path d="M 79.52152638219523 79.52152638219513 A 14.79423373503323 14.79423373503323 0 0 1 80.48911556302855 94.28408452717562" class="original" fill="none" />
    <path d="M 11.137123296921107 24.932092261068302 A 14.79423373503322 14.79423373503322 0 0 1 25.899681441901578 25.89968144190162" class="original" fill="none" />
    <path d="M 80.48911556302855 94.28408452717564 A 14.79423373503322 14.79423373503322 0 0 1 67.22057059421391 87.74076226571403" class="original" fill="none" />
    <path d="M 14.794233735033236 52.71060391204843 A 14.79423373503323 14.79423373503323 0 0 1 3.671339891886861 42.95608781124201" class="original" fill="none" />
    <path d="M 87.74076226571407 67.22057059421384 A 14.79423373503323 14.79423373503323 0 0 1 94.28408452717568 80.48911556302849" class="original" fill="none" />
    <path d="M 3.671339891886861 42.956087811242 A 14.79423373503322 14.79423373503322 0 0 1 17.68044555838273 38.20063722988293" class="original" fill="none" />
    <path d="M 94.2840845271757 80.48911556302848 A 14.79423373503322 14.79423373503322 0 0 1 79.52152638219522 79.52152638219516" class="original" fill="none" />
    <path d="M 17.680445558382743 67.22057059421391 A 14.79423373503323 14.79423373503323 0 0 1 3.6713398918868734 62.46512001285486" class="original" fill="none" />
    <path d="M 90.62697408906357 52.71060391204833 A 14.79423373503323 14.79423373503323 0 0 1 101.74986793220995 62.46512001285477" class="original" fill="none" />
    <path d="M 3.6713398918868823 62.46512001285484 A 14.79423373503322 14.79423373503322 0 0 1 14.79423373503322 52.71060391204843" class="original" fill="none" />
    <path d="M 101.74986793220992 62.465120012854776 A 14.79423373503322 14.79423373503322 0 0 1 87.74076226571407 67.22057059421384" class="original" fill="none" />
    <path d="M 25.89968144190164 79.52152638219523 A 14.79423373503323 14.79423373503323 0 0 1 11.137123296921164 80.48911556302856" class="original" fill="none" />
    <path d="M 42.956087811242014 101.74986793220994 A 14.79423373503322 14.79423373503322 0 0 1 38.20063722988294 87.74076226571407" class="original" fill="none" />
    <path d="M 52.710603912048434 90.62697408906357 A 14.79423373503323 14.79423373503323 0 0 1 42.956087811242014 101.74986793220994" class="original" fill="none" />
    <path d="M 80.48911556302848 11.1371232969211 A 14.79423373503322 14.79423373503322 0 0 1 79.52152638219516 25.89968144190157" class="original" fill="none" />
    <path d="M 52.71060391204834 14.79423373503322 A 14.79423373503323 14.79423373503323 0 0 1 62.46512001285478 3.671339891886838" class="original" fill="none" />
    <path d="M 62.46512001285478 3.6713398918868574 A 14.79423373503322 14.79423373503322 0 0 1 67.22057059421385 17.680445558382722" class="original" fill="none" />
    <path d="M 25.899681441901564 25.899681441901635 A 14.79423373503323 14.79423373503323 0 0 1 24.93209226106824 11.137123296921157" class="original" fill="none" />
    <path d="M 87.74076226571404 38.20063722988283 A 14.79423373503323 14.79423373503323 0 0 1 101.74986793220994 42.9560878112419" class="original" fill="none" />
    <path d="M 24.932092261068263 11.137123296921148 A 14.79423373503322 14.79423373503322 0 0 1 38.20063722988287 17.68044555838273" class="original" fill="none" />
    <path d="M 67.22057059421391 87.74076226571404 A 14.79423373503323 14.79423373503323 0 0 1 62.46512001285487 101.74986793220992" class="original" fill="none" />
    <path d="M 67.22057059421385 17.6804455583827 A 14.79423373503323 14.79423373503323 0 0 1 80.48911556302849 11.13712329692109" class="original" fill="none" />
    <path d="M 42.95608781124193 3.6713398918868663 A 14.79423373503322 14.79423373503322 0 0 1 52.71060391204836 14.794233735033211" class="original" fill="none" />
    <path d="M 38.20063722988286 17.68044555838276 A 14.79423373503323 14.79423373503323 0 0 1 42.95608781124193 3.6713398918868574" class="original" fill="none" />
    <path d="M 94.28408452717564 24.932092261068256 A 14.79423373503322 14.79423373503322 0 0 1 87.74076226571404 38.20063722988287" class="original" fill="none" />
    <path d="M 24.93209226106831 94.28408452717568 A 14.79423373503322 14.79423373503322 0 0 1 25.899681441901627 79.5215263821952" class="original" fill="none" />
    <path d="M 79.52152638219516 25.899681441901542 A 14.79423373503323 14.79423373503323 0 0 1 94.28408452717565 24.932092261068235" class="original" fill="none" />
    <path d="M 38.20063722988296 87.74076226571407 A 14.79423373503323 14.79423373503323 0 0 1 24.93209226106831 94.28408452717568" class="original" fill="none" />
    <path d="M 62.46512001285484 101.74986793220991 A 14.79423373503322 14.79423373503322 0 0 1 52.71060391204843 90.62697408906357" class="original" fill="none" />
    <path d="M 101.7498679322099 42.956087811241915 A 14.79423373503322 14.79423373503322 0 0 1 90.62697408906355 52.710603912048335" class="original" fill="none" />
    <path d="M 11.137123296921155 80.48911556302853 A 14.79423373503322 14.79423373503322 0 0 1 17.68044555838276 67.22057059421391" class="original" fill="none" />
    <circle cx="52.7106039120484" cy="52.71060391204839" r="8" class="original" fill="none" />
    <circle cx="52.7106039120484" cy="52.71060391204839" r="50" class="original" fill="none" />
    <circle cx="49.64913645312767" cy="45.3195676519581" r="2" class="original-point" />
    <circle cx="38.20063722988286" cy="17.680445558382765" r="2" class="original-point" />
    <circle cx="52.71060391204841" cy="60.71060391204839" r="2" class="original-point" />
    <circle cx="52.710603912048434" cy="90.62697408906357" r="2" class="original-point" />
    <circle cx="25.899681441901578" cy="25.89968144190163" r="2" class="original-point" />
    <circle cx="47.053749662556015" cy="47.053749662556015" r="2" class="original-point" />
    <circle cx="67.22057059421394" cy="87.74076226571404" r="2" class="original-point" />
    <circle cx="55.77207137096912" cy="60.10164017213868" r="2" class="original-point" />
    <circle cx="47.05374966255602" cy="47.053749662556015" r="2" class="original-point" />
    <circle cx="25.89968144190159" cy="25.89968144190162" r="2" class="original-point" />
    <circle cx="55.77207137096913" cy="60.10164017213868" r="2" class="original-point" />
    <circle cx="67.22057059421395" cy="87.74076226571407" r="2" class="original-point" />
    <circle cx="17.68044555838273" cy="38.20063722988293" r="2" class="original-point" />
    <circle cx="45.319567651958096" cy="49.649136453127674" r="2" class="original-point" />
    <circle cx="79.52152638219523" cy="79.52152638219515" r="2" class="original-point" />
    <circle cx="58.36745816154079" cy="58.36745816154077" r="2" class="original-point" />
    <circle cx="58.36745816154078" cy="58.36745816154076" r="2" class="original-point" />
    <circle cx="79.52152638219523" cy="79.52152638219518" r="2" class="original-point" />
    <circle cx="87.74076226571408" cy="67.22057059421385" r="2" class="original-point" />
    <circle cx="60.101640172138694" cy="55.7720713709691" r="2" class="original-point" />
    <circle cx="44.7106039120484" cy="52.710603912048406" r="2" class="original-point" />
    <circle cx="14.794233735033231" cy="52.710603912048434" r="2" class="original-point" />
    <circle cx="60.101640172138694" cy="55.772071370969094" r="2" class="original-point" />
    <circle cx="87.74076226571407" cy="67.22057059421384" r="2" class="original-point" />
    <circle cx="17.680445558382758" cy="67.22057059421394" r="2" class="original-point" />
    <circle cx="45.31956765195812" cy="55.77207137096912" r="2" class="original-point" />
    <circle cx="90.62697408906357" cy="52.71060391204835" r="2" class="original-point" />
    <circle cx="60.7106039120484" cy="52.710603912048384" r="2" class="original-point" />
    <circle cx="58.367458161540775" cy="47.05374966255601" r="2" class="original-point" />
    <circle cx="79.52152638219516" cy="25.89968144190157" r="2" class="original-point" />
    <circle cx="67.22057059421385" cy="17.680445558382708" r="2" class="original-point" />
    <circle cx="55.7720713709691" cy="45.31956765195809" r="2" class="original-point" />
    <circle cx="55.77207137096911" cy="45.319567651958096" r="2" class="original-point" />
    <circle cx="67.22057059421385" cy="17.680445558382722" r="2" class="original-point" />
    <circle cx="52.710603912048356" cy="14.794233735033224" r="2" class="original-point" />
    <circle cx="52.71060391204839" cy="44.71060391204839" r="2" class="original-point" />
    <circle cx="44.7106039120484" cy="52.7106039120484" r="2" class="original-point" />
    <circle cx="52.71060391204844" cy="90.62697408906357" r="2" class="original-point" />
    <circle cx="52.710603912048406" cy="60.71060391204839" r="2" class="original-point" />
    <circle cx="38.20063722988285" cy="17.68044555838275" r="2" class="original-point" />
    <circle cx="52.710603912048356" cy="14.794233735033231" r="2" class="original-point" />
    <circle cx="49.64913645312769" cy="60.10164017213869" r="2" class="original-point" />
    <circle cx="38.200637229882936" cy="87.74076226571407" r="2" class="original-point" />
    <circle cx="79.52152638219516" cy="25.89968144190156" r="2" class="original-point" />
    <circle cx="58.36745816154077" cy="47.05374966255601" r="2" class="original-point" />
    <circle cx="49.64913645312768" cy="60.10164017213869" r="2" class="original-point" />
    <circle cx="60.10164017213869" cy="49.649136453127674" r="2" class="original-point" />
    <circle cx="87.74076226571404" cy="38.20063722988286" r="2" class="original-point" />
    <circle cx="47.05374966255603" cy="58.36745816154078" r="2" class="original-point" />
    <circle cx="25.899681441901627" cy="79.52152638219522" r="2" class="original-point" />
    <circle cx="87.74076226571403" cy="38.200637229882844" r="2" class="original-point" />
    <circle cx="60.10164017213869" cy="49.64913645312766" r="2" class="original-point" />
    <circle cx="47.05374966255603" cy="58.367458161540775" r="2" class="original-point" />
    <circle cx="45.31956765195812" cy="55.77207137096913" r="2" class="original-point" />
    <circle cx="17.68044555838277" cy="67.22057059421394" r="2" class="original-point" />
  </g>

  <!-- Simplified Lines -->
  <g id="simplified" transform="translate(165.4212078240968, 20)">
    <text x="52.7106039120484" y="-5" class="title" text-anchor="middle">Simplified (16 lines)</text>
    <line x1="49.64913645312767" y1="45.3195676519581" x2="38.20063722988286" y2="17.680445558382765" class="simplified" />
    <line x1="52.71060391204841" y1="60.71060391204839" x2="52.710603912048434" y2="90.62697408906357" class="simplified" />
    <line x1="25.899681441901578" y1="25.89968144190163" x2="47.053749662556015" y2="47.053749662556015" class="simplified" />
    <line x1="67.22057059421394" y1="87.74076226571404" x2="55.77207137096912" y2="60.10164017213868" class="simplified" />
    <line x1="17.68044555838273" y1="38.20063722988293" x2="45.319567651958096" y2="49.649136453127674" class="simplified" />
    <line x1="79.52152638219523" y1="79.52152638219515" x2="58.36745816154079" y2="58.36745816154077" class="simplified" />
    <line x1="87.74076226571408" y1="67.22057059421385" x2="60.101640172138694" y2="55.7720713709691" class="simplified" />
    <line x1="44.7106039120484" y1="52.710603912048406" x2="14.794233735033231" y2="52.710603912048434" class="simplified" />
    <line x1="17.680445558382758" y1="67.22057059421394" x2="45.31956765195812" y2="55.77207137096912" class="simplified" />
    <line x1="90.62697408906357" y1="52.71060391204835" x2="60.7106039120484" y2="52.710603912048384" class="simplified" />
    <line x1="58.367458161540775" y1="47.05374966255601" x2="79.52152638219516" y2="25.89968144190157" class="simplified" />
    <line x1="67.22057059421385" y1="17.680445558382708" x2="55.7720713709691" y2="45.31956765195809" class="simplified" />
    <line x1="52.710603912048356" y1="14.794233735033224" x2="52.71060391204839" y2="44.71060391204839" class="simplified" />
    <line x1="49.64913645312769" y1="60.10164017213869" x2="38.200637229882936" y2="87.74076226571407" class="simplified" />
    <line x1="60.10164017213869" y1="49.649136453127674" x2="87.74076226571404" y2="38.20063722988286" class="simplified" />
    <line x1="47.05374966255603" y1="58.36745816154078" x2="25.899681441901627" y2="79.52152638219522" class="simplified" />
    <circle cx="49.64913645312767" cy="45.3195676519581" r="3" class="simplified-point" />
    <circle cx="38.20063722988286" cy="17.680445558382765" r="3" class="simplified-point" />
    <circle cx="52.71060391204841" cy="60.71060391204839" r="3" class="simplified-point" />
    <circle cx="52.710603912048434" cy="90.62697408906357" r="3" class="simplified-point" />
    <circle cx="25.899681441901578" cy="25.89968144190163" r="3" class="simplified-point" />
    <circle cx="47.053749662556015" cy="47.053749662556015" r="3" class="simplified-point" />
    <circle cx="67.22057059421394" cy="87.74076226571404" r="3" class="simplified-point" />
    <circle cx="55.77207137096912" cy="60.10164017213868" r="3" class="simplified-point" />
    <circle cx="17.68044555838273" cy="38.20063722988293" r="3" class="simplified-point" />
    <circle cx="45.319567651958096" cy="49.649136453127674" r="3" class="simplified-point" />
    <circle cx="79.52152638219523" cy="79.52152638219515" r="3" class="simplified-point" />
    <circle cx="58.36745816154079" cy="58.36745816154077" r="3" class="simplified-point" />
    <circle cx="87.74076226571408" cy="67.22057059421385" r="3" class="simplified-point" />
    <circle cx="60.101640172138694" cy="55.7720713709691" r="3" class="simplified-point" />
    <circle cx="44.7106039120484" cy="52.710603912048406" r="3" class="simplified-point" />
    <circle cx="14.794233735033231" cy="52.710603912048434" r="3" class="simplified-point" />
    <circle cx="17.680445558382758" cy="67.22057059421394" r="3" class="simplified-point" />
    <circle cx="45.31956765195812" cy="55.77207137096912" r="3" class="simplified-point" />
    <circle cx="90.62697408906357" cy="52.71060391204835" r="3" class="simplified-point" />
    <circle cx="60.7106039120484" cy="52.710603912048384" r="3" class="simplified-point" />
    <circle cx="58.367458161540775" cy="47.05374966255601" r="3" class="simplified-point" />
    <circle cx="79.52152638219516" cy="25.89968144190157" r="3" class="simplified-point" />
    <circle cx="67.22057059421385" cy="17.680445558382708" r="3" class="simplified-point" />
    <circle cx="55.7720713709691" cy="45.31956765195809" r="3" class="simplified-point" />
    <circle cx="52.710603912048356" cy="14.794233735033224" r="3" class="simplified-point" />
    <circle cx="52.71060391204839" cy="44.71060391204839" r="3" class="simplified-point" />
    <circle cx="49.64913645312769" cy="60.10164017213869" r="3" class="simplified-point" />
    <circle cx="38.200637229882936" cy="87.74076226571407" r="3" class="simplified-point" />
    <circle cx="60.10164017213869" cy="49.649136453127674" r="3" class="simplified-point" />
    <circle cx="87.74076226571404" cy="38.20063722988286" r="3" class="simplified-point" />
    <circle cx="47.05374966255603" cy="58.36745816154078" r="3" class="simplified-point" />
    <circle cx="25.899681441901627" cy="79.52152638219522" r="3" class="simplified-point" />
  </g>

  <!-- Paths -->
  <g id="paths" transform="translate(310.8424156481936, 20)">
    <text x="52.7106039120484" y="-5" class="title" text-anchor="middle">Paths (16 path(s))</text>
    <line x1="49.64913645312767" y1="45.3195676519581" x2="38.20063722988286" y2="17.680445558382765" stroke="#FF6B6B" stroke-width="2" />
    <line x1="52.71060391204841" y1="60.71060391204839" x2="52.710603912048434" y2="90.62697408906357" stroke="#4ECDC4" stroke-width="2" />
    <line x1="25.899681441901578" y1="25.89968144190163" x2="47.053749662556015" y2="47.053749662556015" stroke="#45B7D1" stroke-width="2" />
    <line x1="67.22057059421394" y1="87.74076226571404" x2="55.77207137096912" y2="60.10164017213868" stroke="#FFA07A" stroke-width="2" />
    <line x1="17.68044555838273" y1="38.20063722988293" x2="45.319567651958096" y2="49.649136453127674" stroke="#98D8C8" stroke-width="2" />
    <line x1="79.52152638219523" y1="79.52152638219515" x2="58.36745816154079" y2="58.36745816154077" stroke="#F7DC6F" stroke-width="2" />
    <line x1="87.74076226571408" y1="67.22057059421385" x2="60.101640172138694" y2="55.7720713709691" stroke="#BB8FCE" stroke-width="2" />
    <line x1="44.7106039120484" y1="52.710603912048406" x2="14.794233735033231" y2="52.710603912048434" stroke="#85C1E2" stroke-width="2" />
    <line x1="17.680445558382758" y1="67.22057059421394" x2="45.31956765195812" y2="55.77207137096912" stroke="#F8B739" stroke-width="2" />
    <line x1="90.62697408906357" y1="52.71060391204835" x2="60.7106039120484" y2="52.710603912048384" stroke="#52B788" stroke-width="2" />
    <line x1="58.367458161540775" y1="47.05374966255601" x2="79.52152638219516" y2="25.89968144190157" stroke="#FF6B6B" stroke-width="2" />
    <line x1="67.22057059421385" y1="17.680445558382708" x2="55.7720713709691" y2="45.31956765195809" stroke="#4ECDC4" stroke-width="2" />
    <line x1="52.710603912048356" y1="14.794233735033224" x2="52.71060391204839" y2="44.71060391204839" stroke="#45B7D1" stroke-width="2" />
    <line x1="49.64913645312769" y1="60.10164017213869" x2="38.200637229882936" y2="87.74076226571407" stroke="#FFA07A" stroke-width="2" />
    <line x1="60.10164017213869" y1="49.649136453127674" x2="87.74076226571404" y2="38.20063722988286" stroke="#98D8C8" stroke-width="2" />
    <line x1="47.05374966255603" y1="58.36745816154078" x2="25.899681441901627" y2="79.52152638219522" stroke="#F7DC6F" stroke-width="2" />
    <circle cx="49.64913645312767" cy="45.3195676519581" r="3" class="path-point" />
    <circle cx="38.20063722988286" cy="17.680445558382765" r="3" class="path-point" />
    <circle cx="52.71060391204841" cy="60.71060391204839" r="3" class="path-point" />
    <circle cx="52.710603912048434" cy="90.62697408906357" r="3" class="path-point" />
    <circle cx="25.899681441901578" cy="25.89968144190163" r="3" class="path-point" />
    <circle cx="47.053749662556015" cy="47.053749662556015" r="3" class="path-point" />
    <circle cx="67.22057059421394" cy="87.74076226571404" r="3" class="path-point" />
    <circle cx="55.77207137096912" cy="60.10164017213868" r="3" class="path-point" />
    <circle cx="17.68044555838273" cy="38.20063722988293" r="3" class="path-point" />
    <circle cx="45.319567651958096" cy="49.649136453127674" r="3" class="path-point" />
    <circle cx="79.52152638219523" cy="79.52152638219515" r="3" class="path-point" />
    <circle cx="58.36745816154079" cy="58.36745816154077" r="3" class="path-point" />
    <circle cx="87.74076226571408" cy="67.22057059421385" r="3" class="path-point" />
    <circle cx="60.101640172138694" cy="55.7720713709691" r="3" class="path-point" />
    <circle cx="44.7106039120484" cy="52.710603912048406" r="3" class="path-point" />
    <circle cx="14.794233735033231" cy="52.710603912048434" r="3" class="path-point" />
    <circle cx="17.680445558382758" cy="67.22057059421394" r="3" class="path-point" />
    <circle cx="45.31956765195812" cy="55.77207137096912" r="3" class="path-point" />
    <circle cx="90.62697408906357" cy="52.71060391204835" r="3" class="path-point" />
    <circle cx="60.7106039120484" cy="52.710603912048384" r="3" class="path-point" />
    <circle cx="58.367458161540775" cy="47.05374966255601" r="3" class="path-point" />
    <circle cx="79.52152638219516" cy="25.89968144190157" r="3" class="path-point" />
    <circle cx="67.22057059421385" cy="17.680445558382708" r="3" class="path-point" />
    <circle cx="55.7720713709691" cy="45.31956765195809" r="3" class="path-point" />
    <circle cx="52.710603912048356" cy="14.794233735033224" r="3" class="path-point" />
    <circle cx="52.71060391204839" cy="44.71060391204839" r="3" class="path-point" />
    <circle cx="49.64913645312769" cy="60.10164017213869" r="3" class="path-point" />
    <circle cx="38.200637229882936" cy="87.74076226571407" r="3" class="path-point" />
    <circle cx="60.10164017213869" cy="49.649136453127674" r="3" class="path-point" />
    <circle cx="87.74076226571404" cy="38.20063722988286" r="3" class="path-point" />
    <circle cx="47.05374966255603" cy="58.36745816154078" r="3" class="path-point" />
    <circle cx="25.899681441901627" cy="79.52152638219522" r="3" class="path-point" />
  </g>
</svg>