<?xml version="1.0" encoding="UTF-8"?>
<svg xmlns="http://www.w3.org/2000/svg" width="584.2640687119284" height="181.42135623730945" viewBox="0 0 584.2640687119284 181.42135623730945">
  <style>
    .original { stroke: blue; stroke-width: 1; }
    .simplified { stroke: red; stroke-width: 2; }
    .original-point { fill: darkblue; }
    .simplified-point { fill: darkred; }
    .path-point { fill: black; }
    .title { font-family: Arial, sans-serif; font-size: 14px; fill: black; }
  </style>

  <!-- Original Lines -->
  <g id="original" transform="translate(20, 20)">
    <text x="70.71067811865474" y="-5" class="title" text-anchor="middle">Original (0 lines)</text>
    <path d="M 62.132034355964244 70.71067811865473 A 10.35533905932737 10.35533905932737 0 0 1 41.4213562373095 70.71067811865473" class="original" fill="none" />
    <path d="M 41.42135623730949 70.71067811865473 A 10.35533905932737 10.35533905932737 0 0 1 20.710678118654748 70.71067811865473" class="original" fill="none" />
    <path d="M 56.06601717798211 85.35533905932735 A 20.71067811865476 20.71067811865476 0 0 1 70.71067811865474 79.28932188134522" class="original" fill="none" />
    <path d="M 70.71067811865476 79.28932188134523 A 20.71067811865474 20.71067811865474 0 0 1 85.35533905932736 85.35533905932735" class="original" fill="none" />
    <path d="M 85.35533905932736 85.35533905932735 A 20.71067811865476 20.71067811865476 0 0 1 79.28932188134523 70.71067811865473" class="original" fill="none" />
    <path d="M 79.28932188134524 70.71067811865473 A 20.71067811865476 20.71067811865476 0 0 1 85.35533905932736 56.066017177982104" class="original" fill="none" />
    <path d="M 85.35533905932738 56.0660171779821 A 20.71067811865474 20.71067811865474 0 0 1 70.71067811865473 62.13203435596422" class="original" fill="none" />
    <path d="M 70.71067811865474 62.13203435596424 A 20.71067811865476 20.71067811865476 0 0 1 56.06601717798212 56.06601717798211" class="original" fill="none" />
    <path d="M 56.06601717798209 56.066017177982076 A 20.71067811865475 20.71067811865475 0 0 1 62.13203435596425 70.71067811865473" class="original" fill="none" />
    <path d="M 62.13203435596425 70.71067811865473 A 20.71067811865475 20.71067811865475 0 0 1 56.06601717798212 85.35533905932735" class="original" fill="none" />
    <path d="M 62.13203435596424 70.71067811865474 A 20.71067811865474 20.71067811865474 0 0 1 56.06601717798211 85.35533905932735" class="original" fill="none" />
    <path d="M 70.71067811865474 79.28932188134522 A 10.35533905932737 10.35533905932737 0 0 1 70.71067811865474 99.99999999999997" class="original" fill="none" />
    <path d="M 70.71067811865476 79.28932188134523 A 20.71067811865476 20.71067811865476 0 0 1 85.35533905932735 85.35533905932733" class="original" fill="none" />
    <path d="M 70.71067811865474 120.71067811865473 A 20.71067811865476 20.71067811865476 0 0 1 50.47926736441839 104.42969604238195" class="original" fill="none" />
    <path d="M 85.35533905932738 56.06601717798209 A 20.71067811865475 20.71067811865475 0 0 1 70.71067811865474 62.13203435596424" class="original" fill="none" />
    <path d="M 70.71067811865474 99.99999999999997 A 10.35533905932737 10.35533905932737 0 0 1 70.71067811865474 120.71067811865473" class="original" fill="none" />
    <path d="M 35.35533905932737 56.06601717798211 A 3.317614957623307 3.317614957623307 0 0 1 36.991660194927505 50.479267364418384" class="original" fill="none" />
    <path d="M 56.066017177982104 106.06601717798212 A 20.71067811865474 20.71067811865474 0 0 1 70.71067811865476 99.99999999999999" class="original" fill="none" />
    <path d="M 56.06601717798211 85.35533905932735 A 20.71067811865476 20.71067811865476 0 0 1 70.71067811865474 79.28932188134522" class="original" fill="none" />
    <path d="M 56.066017177982125 106.0660171779821 A 3.317614957623307 3.317614957623307 0 0 1 50.4792673644184 104.42969604238196" class="original" fill="none" />
    <path d="M 101.37420111017937 40.04715512713007 A 6.194967154964774 6.194967154964774 0 0 1 90.94208887289108 36.99166019492747" class="original" fill="none" />
    <path d="M 100 70.71067811865471 A 10.35533905932737 10.35533905932737 0 0 1 120.71067811865476 70.71067811865471" class="original" fill="none" />
    <path d="M 79.28932188134524 70.71067811865471 A 20.71067811865474 20.71067811865474 0 0 1 85.35533905932736 56.0660171779821" class="original" fill="none" />
    <path d="M 104.42969604238196 50.47926736441838 A 20.71067811865475 20.71067811865475 0 0 1 120.71067811865474 70.71067811865473" class="original" fill="none" />
    <path d="M 85.35533905932736 56.06601717798209 A 20.71067811865475 20.71067811865475 0 0 1 99.99999999999999 49.99999999999996" class="original" fill="none" />
    <path d="M 104.42969604238198 50.47926736441836 A 6.194967154964774 6.194967154964774 0 0 1 101.37420111017937 40.047155127130054" class="original" fill="none" />
    <path d="M 99.99999999999999 49.99999999999997 A 20.71067811865476 20.71067811865476 0 0 1 104.42969604238196 50.47926736441837" class="original" fill="none" />
    <path d="M 70.7106781186547 20.710678118654712 A 50.00000000000003 50.00000000000003 0 0 1 120.71067811865474 70.71067811865474" class="original" fill="none" />
    <path d="M 70.71067811865474 20.710678118654727 A 20.71067811865474 20.71067811865474 0 0 1 90.94208887289108 36.99166019492745" class="original" fill="none" />
    <path d="M 99.99999999999999 49.99999999999997 A 20.71067811865476 20.71067811865476 0 0 1 104.42969604238202 50.479267364418384" class="original" fill="none" />
    <path d="M 85.35533905932736 56.06601717798209 A 20.71067811865475 20.71067811865475 0 0 1 99.99999999999999 49.99999999999996" class="original" fill="none" />
    <path d="M 101.37420111017937 40.04715512713007 A 6.194967154964774 6.194967154964774 0 0 1 90.94208887289108 36.99166019492747" class="original" fill="none" />
    <path d="M 90.94208887289108 36.99166019492746 A 20.71067811865474 20.71067811865474 0 0 1 85.35533905932736 56.0660171779821" class="original" fill="none" />
    <path d="M 104.42969604238198 50.47926736441836 A 6.194967154964774 6.194967154964774 0 0 1 101.37420111017937 40.047155127130054" class="original" fill="none" />
    <path d="M 70.71067811865473 62.13203435596422 A 20.71067811865474 20.71067811865474 0 0 1 56.06601717798211 56.0660171779821" class="original" fill="none" />
    <path d="M 62.13203435596424 70.71067811865474 A 20.71067811865476 20.71067811865476 0 0 1 56.06601717798212 85.35533905932735" class="original" fill="none" />
    <path d="M 85.35533905932739 85.35533905932738 A 20.71067811865475 20.71067811865475 0 0 1 79.28932188134523 70.71067811865473" class="original" fill="none" />
    <path d="M 85.35533905932735 35.355339059327356 A 3.317614957623307 3.317614957623307 0 0 1 90.94208887289108 36.99166019492749" class="original" fill="none" />
    <path d="M 56.06601717798215 56.06601717798212 A 20.71067811865476 20.71067811865476 0 0 1 62.13203435596425 70.71067811865473" class="original" fill="none" />
    <path d="M 70.71067811865474 62.13203435596423 A 10.35533905932737 10.35533905932737 0 0 1 70.71067811865474 41.42135623730949" class="original" fill="none" />
    <path d="M 70.71067811865474 41.42135623730946 A 10.35533905932737 10.35533905932737 0 0 1 70.71067811865474 20.71067811865472" class="original" fill="none" />
    <path d="M 101.37420111017938 101.37420111017937 A 6.194967154964774 6.194967154964774 0 0 1 104.42969604238198 90.94208887289108" class="original" fill="none" />
    <path d="M 106.06601717798209 85.3553390593273 A 20.71067811865474 20.71067811865474 0 0 1 100 70.71067811865473" class="original" fill="none" />
    <path d="M 40.047155127130104 101.37420111017937 A 6.194967154964774 6.194967154964774 0 0 1 50.47926736441841 104.42969604238196" class="original" fill="none" />
    <path d="M 104.429696042382 90.94208887289108 A 20.71067811865474 20.71067811865474 0 0 1 85.35533905932738 85.35533905932736" class="original" fill="none" />
    <path d="M 62.13203435596425 70.71067811865473 A 20.71067811865476 20.71067811865476 0 0 1 56.066017177982125 85.35533905932735" class="original" fill="none" />
    <path d="M 41.42135623730949 70.71067811865473 A 10.35533905932737 10.35533905932737 0 0 1 20.710678118654748 70.71067811865473" class="original" fill="none" />
    <path d="M 85.35533905932736 85.35533905932735 A 20.71067811865475 20.71067811865475 0 0 1 91.4213562373095 99.99999999999997" class="original" fill="none" />
    <path d="M 120.71067811865474 70.71067811865473 A 20.71067811865476 20.71067811865476 0 0 1 104.42969604238198 90.94208887289108" class="original" fill="none" />
    <path d="M 62.13203435596424 70.71067811865474 A 20.71067811865474 20.71067811865474 0 0 1 56.06601717798211 85.35533905932735" class="original" fill="none" />
    <path d="M 70.71067811865474 99.99999999999997 A 10.35533905932737 10.35533905932737 0 0 1 70.71067811865474 120.71067811865473" class="original" fill="none" />
    <path d="M 56.066017177982104 85.35533905932738 A 20.71067811865475 20.71067811865475 0 0 1 70.71067811865476 79.28932188134522" class="original" fill="none" />
    <path d="M 41.421356237309496 91.42135623730948 A 20.71067811865476 20.71067811865476 0 0 1 36.99166019492751 90.94208887289108" class="original" fill="none" />
    <path d="M 90.94208887289108 104.42969604238196 A 20.71067811865475 20.71067811865475 0 0 1 70.71067811865474 120.71067811865473" class="original" fill="none" />
    <path d="M 70.71067811865473 62.13203435596422 A 20.71067811865476 20.71067811865476 0 0 1 56.066017177982125 56.06601717798212" class="original" fill="none" />
    <path d="M 70.71067811865474 120.71067811865471 A 20.71067811865474 20.71067811865474 0 0 1 50.479267364418405 104.42969604238195" class="original" fill="none" />
    <path d="M 90.9420888728911 104.42969604238196 A 6.194967154964774 6.194967154964774 0 0 1 101.3742011101794 101.37420111017936" class="original" fill="none" />
    <path d="M 79.28932188134524 70.71067811865471 A 20.71067811865474 20.71067811865474 0 0 1 85.35533905932736 56.0660171779821" class="original" fill="none" />
    <path d="M 70.71067811865477 120.71067811865474 A 50.00000000000003 50.00000000000003 0 0 1 20.71067811865474 70.71067811865471" class="original" fill="none" />
    <path d="M 120.71067811865474 70.71067811865473 A 20.71067811865474 20.71067811865474 0 0 1 104.42969604238199 90.94208887289106" class="original" fill="none" />
    <path d="M 104.42969604238202 50.47926736441839 A 20.71067811865475 20.71067811865475 0 0 1 120.71067811865474 70.71067811865473" class="original" fill="none" />
    <path d="M 36.99166019492752 90.94208887289109 A 6.194967154964774 6.194967154964774 0 0 1 40.047155127130104 101.37420111017938" class="original" fill="none" />
    <path d="M 101.37420111017938 101.37420111017937 A 6.194967154964774 6.194967154964774 0 0 1 104.42969604238198 90.94208887289108" class="original" fill="none" />
    <path d="M 85.35533905932736 85.35533905932735 A 20.71067811865476 20.71067811865476 0 0 1 79.28932188134523 70.71067811865471" class="original" fill="none" />
    <path d="M 41.421356237309496 91.42135623730948 A 20.71067811865476 20.71067811865476 0 0 1 36.99166019492751 90.94208887289108" class="original" fill="none" />
    <path d="M 56.06601717798212 85.35533905932736 A 20.71067811865475 20.71067811865475 0 0 1 41.421356237309496 91.4213562373095" class="original" fill="none" />
    <path d="M 90.94208887289108 104.42969604238196 A 20.71067811865475 20.71067811865475 0 0 1 70.71067811865474 120.71067811865473" class="original" fill="none" />
    <path d="M 106.06601717798212 85.35533905932735 A 3.317614957623307 3.317614957623307 0 0 1 104.42969604238198 90.94208887289106" class="original" fill="none" />
    <path d="M 35.35533905932738 56.06601717798212 A 20.71067811865474 20.71067811865474 0 0 1 41.42135623730948 70.71067811865471" class="original" fill="none" />
    <path d="M 40.047155127130104 101.37420111017937 A 6.194967154964774 6.194967154964774 0 0 1 50.47926736441841 104.42969604238196" class="original" fill="none" />
    <path d="M 91.4213562373095 99.99999999999997 A 20.71067811865476 20.71067811865476 0 0 1 90.94208887289109 104.42969604238196" class="original" fill="none" />
    <path d="M 85.35533905932735 56.06601717798212 A 20.71067811865476 20.71067811865476 0 0 1 70.71067811865474 62.13203435596424" class="original" fill="none" />
    <path d="M 36.99166019492752 90.94208887289109 A 6.194967154964774 6.194967154964774 0 0 1 40.047155127130104 101.37420111017938" class="original" fill="none" />
    <path d="M 70.71067811865476 79.28932188134523 A 20.71067811865474 20.71067811865474 0 0 1 85.35533905932736 85.35533905932735" class="original" fill="none" />
    <path d="M 100 70.71067811865471 A 10.35533905932737 10.35533905932737 0 0 1 120.71067811865476 70.71067811865471" class="original" fill="none" />
    <path d="M 50.4792673644184 104.42969604238199 A 20.71067811865474 20.71067811865474 0 0 1 56.066017177982104 85.35533905932736" class="original" fill="none" />
    <path d="M 85.35533905932736 85.35533905932735 A 20.71067811865475 20.71067811865475 0 0 1 91.4213562373095 99.99999999999997" class="original" fill="none" />
    <path d="M 79.28932188134524 70.71067811865473 A 10.35533905932737 10.35533905932737 0 0 1 99.99999999999997 70.71067811865473" class="original" fill="none" />
    <path d="M 120.71067811865476 70.7106781186547 A 50.00000000000003 50.00000000000003 0 0 1 70.71067811865473 120.71067811865473" class="original" fill="none" />
    <path d="M 56.066017177982104 56.066017177982104 A 20.71067811865474 20.71067811865474 0 0 1 62.13203435596424 70.71067811865473" class="original" fill="none" />
    <path d="M 56.06601717798212 85.35533905932736 A 20.71067811865475 20.71067811865475 0 0 1 41.421356237309496 91.4213562373095" class="original" fill="none" />
    <path d="M 91.4213562373095 99.99999999999997 A 20.71067811865476 20.71067811865476 0 0 1 90.94208887289109 104.42969604238196" class="original" fill="none" />
    <path d="M 70.71067811865476 79.28932188134522 A 20.71067811865475 20.71067811865475 0 0 1 85.35533905932738 85.35533905932735" class="original" fill="none" />
    <path d="M 36.99166019492752 90.94208887289108 A 20.71067811865475 20.71067811865475 0 0 1 20.710678118654744 70.71067811865473" class="original" fill="none" />
    <path d="M 85.35533905932736 56.0660171779821 A 20.71067811865476 20.71067811865476 0 0 1 70.71067811865473 62.13203435596424" class="original" fill="none" />
    <path d="M 90.9420888728911 104.42969604238196 A 6.194967154964774 6.194967154964774 0 0 1 101.3742011101794 101.37420111017936" class="original" fill="none" />
    <path d="M 50.47926736441839 36.9916601949275 A 20.71067811865475 20.71067811865475 0 0 1 70.71067811865474 20.71067811865473" class="original" fill="none" />
    <path d="M 56.0660171779821 56.06601717798208 A 20.71067811865476 20.71067811865476 0 0 1 62.13203435596425 70.71067811865474" class="original" fill="none" />
    <path d="M 56.06601717798212 85.35533905932736 A 20.71067811865474 20.71067811865474 0 0 1 70.71067811865477 79.28932188134523" class="original" fill="none" />
    <path d="M 36.99166019492752 90.94208887289108 A 20.71067811865475 20.71067811865475 0 0 1 20.710678118654744 70.71067811865473" class="original" fill="none" />
    <path d="M 79.28932188134523 70.71067811865473 A 20.71067811865475 20.71067811865475 0 0 1 85.35533905932736 56.066017177982104" class="original" fill="none" />
    <path d="M 85.35533905932738 85.35533905932735 A 20.71067811865474 20.71067811865474 0 0 1 79.28932188134524 70.71067811865473" class="original" fill="none" />
    <path d="M 70.71067811865474 20.710678118654723 A 20.71067811865476 20.71067811865476 0 0 1 90.94208887289109 36.99166019492746" class="original" fill="none" />
    <path d="M 70.71067811865474 62.13203435596424 A 20.71067811865475 20.71067811865475 0 0 1 56.06601717798212 56.066017177982104" class="original" fill="none" />
    <path d="M 20.710678118654737 70.71067811865473 A 20.71067811865476 20.71067811865476 0 0 1 36.991660194927476 50.47926736441838" class="original" fill="none" />
    <path d="M 79.28932188134523 70.71067811865473 A 20.71067811865476 20.71067811865476 0 0 1 85.35533905932735 56.066017177982104" class="original" fill="none" />
    <path d="M 70.71067811865474 79.28932188134522 A 20.71067811865476 20.71067811865476 0 0 1 85.35533905932736 85.35533905932733" class="original" fill="none" />
    <path d="M 85.35533905932736 35.35533905932735 A 20.71067811865474 20.71067811865474 0 0 1 70.71067811865471 41.421356237309475" class="original" fill="none" />
    <path d="M 50.479267364418384 36.99166019492749 A 6.194967154964774 6.194967154964774 0 0 1 40.047155127130075 40.04715512713009" class="original" fill="none" />
    <path d="M 36.99166019492748 50.479267364418384 A 20.71067811865474 20.71067811865474 0 0 1 56.066017177982104 56.06601717798209" class="original" fill="none" />
    <path d="M 40.047155127130075 40.04715512713008 A 6.194967154964774 6.194967154964774 0 0 1 36.99166019492748 50.4792673644184" class="original" fill="none" />
    <path d="M 56.066017177982104 56.066017177982104 A 20.71067811865475 20.71067811865475 0 0 1 49.99999999999997 41.42135623730948" class="original" fill="none" />
    <path d="M 49.999999999999986 41.42135623730948 A 20.71067811865476 20.71067811865476 0 0 1 50.47926736441839 36.9916601949275" class="original" fill="none" />
    <path d="M 20.71067811865474 70.71067811865473 A 20.71067811865474 20.71067811865474 0 0 1 36.99166019492747 50.4792673644184" class="original" fill="none" />
    <path d="M 20.710678118654727 70.71067811865476 A 50.00000000000003 50.00000000000003 0 0 1 70.71067811865466 20.710678118654727" class="original" fill="none" />
    <path d="M 49.999999999999986 41.42135623730948 A 20.71067811865476 20.71067811865476 0 0 1 50.47926736441839 36.9916601949275" class="original" fill="none" />
    <path d="M 50.479267364418384 36.99166019492749 A 6.194967154964774 6.194967154964774 0 0 1 40.047155127130075 40.04715512713009" class="original" fill="none" />
    <path d="M 56.066017177982104 56.066017177982104 A 20.71067811865475 20.71067811865475 0 0 1 49.99999999999997 41.42135623730948" class="original" fill="none" />
    <path d="M 50.47926736441839 36.9916601949275 A 20.71067811865475 20.71067811865475 0 0 1 70.71067811865474 20.71067811865473" class="original" fill="none" />
    <path d="M 70.71067811865473 62.13203435596422 A 20.71067811865474 20.71067811865474 0 0 1 56.06601717798211 56.0660171779821" class="original" fill="none" />
    <path d="M 70.71067811865476 41.42135623730946 A 10.35533905932737 10.35533905932737 0 1 1 70.71067811865474 20.71067811865472" class="original" fill="none" />
    <path d="M 40.047155127130075 40.04715512713008 A 6.194967154964774 6.194967154964774 0 0 1 36.99166019492748 50.4792673644184" class="original" fill="none" />
  </g>

  <!-- Simplified Lines -->
  <g id="simplified" transform="translate(201.42135623730948, 20)">
    <text x="70.71067811865474" y="-5" class="title" text-anchor="middle">Simplified (0 lines)</text>
  </g>

  <!-- Paths -->
  <g id="paths" transform="translate(382.84271247461896, 20)">
    <text x="70.71067811865474" y="-5" class="title" text-anchor="middle">Paths (0 path(s))</text>
  </g>
</svg>