<?xml version="1.0" encoding="UTF-8"?>
<svg xmlns="http://www.w3.org/2000/svg" width="259.3999838829049" height="129.9717706119779" viewBox="0 0 259.3999838829049 129.9717706119779">
  <style>
    .original { stroke: blue; stroke-width: 1; }
    .simplified { stroke: red; stroke-width: 2; }
    .original-point { fill: darkblue; }
    .simplified-point { fill: darkred; }
    .path-point { fill: black; }
    .title { font-family: Arial, sans-serif; font-size: 14px; fill: black; }
  </style>

  <!-- Original Lines -->
  <g id="original" transform="translate(20, 20)">
    <text x="16.56666398048415" y="-5" class="title" text-anchor="middle">Original (22 lines)</text>
    <line x1="13.43901129439487" y1="61.08679622411728" x2="0" y2="39.90000113844876" class="original" />
    <line x1="16.56666398048415" y1="39.90000113844872" x2="10.074219200760268" y2="42.89580509066582" class="original" />
    <line x1="6.492444779724021" y1="42.89580509066582" x2="8.283331990242152" y2="49.46666955947877" class="original" />
    <line x1="16.56666398048397" y1="89.97177061197787" x2="13.439011294394875" y2="61.08679622411728" class="original" />
    <line x1="16.56666398048397" y1="89.97177061197787" x2="0" y2="39.90000113844876" class="original" />
    <line x1="1.4210854715202004e-13" y1="39.90000113844872" x2="6.492444779724021" y2="42.89580509066582" class="original" />
    <line x1="24.849995970726145" y1="49.46666955947877" x2="16.566663980484133" y2="39.90000113844873" class="original" />
    <line x1="33.13332796096816" y1="39.90000113844872" x2="33.13332796096816" y2="0" class="original" />
    <line x1="23.059108760208034" y1="42.89580509066582" x2="24.849995970726162" y2="49.46666955947877" class="original" />
    <line x1="33.13332796096816" y1="39.90000113844872" x2="26.64088318124428" y2="42.89580509066582" class="original" />
    <line x1="16.56666398048415" y1="39.90000113844872" x2="23.059108760208034" y2="42.89580509066582" class="original" />
    <line x1="16.566663980484332" y1="89.97177061197787" x2="19.694316666573428" y2="61.08679622411728" class="original" />
    <line x1="19.69431666657343" y1="61.08679622411728" x2="33.1333279609683" y2="39.90000113844876" class="original" />
    <line x1="26.64088318124428" y1="42.89580509066582" x2="24.849995970726148" y2="49.46666955947877" class="original" />
    <line x1="16.566663980484332" y1="89.97177061197787" x2="33.1333279609683" y2="39.90000113844876" class="original" />
    <line x1="24.849995970726162" y1="49.46666955947877" x2="33.133327960968174" y2="39.90000113844873" class="original" />
    <line x1="16.56666398048415" y1="39.90000113844872" x2="16.56666398048415" y2="0" class="original" />
    <line x1="8.283331990242157" y1="49.46666955947877" x2="16.56666398048417" y2="39.90000113844873" class="original" />
    <line x1="16.56666398048415" y1="39.90000113844872" x2="16.56666398048415" y2="0" class="original" />
    <line x1="1.4210854715202004e-13" y1="39.90000113844872" x2="1.4210854715202004e-13" y2="0" class="original" />
    <line x1="8.28333199024214" y1="49.46666955947877" x2="1.3145040611561853e-13" y2="39.90000113844873" class="original" />
    <line x1="10.074219200760268" y1="42.89580509066582" x2="8.283331990242141" y2="49.46666955947877" class="original" />
    <circle cx="13.43901129439487" cy="61.08679622411728" r="2" class="original-point" />
    <circle cx="0" cy="39.90000113844876" r="2" class="original-point" />
    <circle cx="16.56666398048415" cy="39.90000113844872" r="2" class="original-point" />
    <circle cx="10.074219200760268" cy="42.89580509066582" r="2" class="original-point" />
    <circle cx="6.492444779724021" cy="42.89580509066582" r="2" class="original-point" />
    <circle cx="8.283331990242152" cy="49.46666955947877" r="2" class="original-point" />
    <circle cx="16.56666398048397" cy="89.97177061197787" r="2" class="original-point" />
    <circle cx="13.439011294394875" cy="61.08679622411728" r="2" class="original-point" />
    <circle cx="1.4210854715202004e-13" cy="39.90000113844872" r="2" class="original-point" />
    <circle cx="24.849995970726145" cy="49.46666955947877" r="2" class="original-point" />
    <circle cx="16.566663980484133" cy="39.90000113844873" r="2" class="original-point" />
    <circle cx="33.13332796096816" cy="39.90000113844872" r="2" class="original-point" />
    <circle cx="33.13332796096816" cy="0" r="2" class="original-point" />
    <circle cx="23.059108760208034" cy="42.89580509066582" r="2" class="original-point" />
    <circle cx="24.849995970726162" cy="49.46666955947877" r="2" class="original-point" />
    <circle cx="26.64088318124428" cy="42.89580509066582" r="2" class="original-point" />
    <circle cx="16.566663980484332" cy="89.97177061197787" r="2" class="original-point" />
    <circle cx="19.694316666573428" cy="61.08679622411728" r="2" class="original-point" />
    <circle cx="19.69431666657343" cy="61.08679622411728" r="2" class="original-point" />
    <circle cx="33.1333279609683" cy="39.90000113844876" r="2" class="original-point" />
    <circle cx="24.849995970726148" cy="49.46666955947877" r="2" class="original-point" />
    <circle cx="33.133327960968174" cy="39.90000113844873" r="2" class="original-point" />
    <circle cx="16.56666398048415" cy="0" r="2" class="original-point" />
    <circle cx="8.283331990242157" cy="49.46666955947877" r="2" class="original-point" />
    <circle cx="16.56666398048417" cy="39.90000113844873" r="2" class="original-point" />
    <circle cx="1.4210854715202004e-13" cy="0" r="2" class="original-point" />
    <circle cx="8.28333199024214" cy="49.46666955947877" r="2" class="original-point" />
    <circle cx="1.3145040611561853e-13" cy="39.90000113844873" r="2" class="original-point" />
    <circle cx="8.283331990242141" cy="49.46666955947877" r="2" class="original-point" />
  </g>

  <!-- Simplified Lines -->
  <g id="simplified" transform="translate(93.1333279609683, 20)">
    <text x="16.56666398048415" y="-5" class="title" text-anchor="middle">Simplified (21 lines)</text>
    <line x1="13.43901129439487" y1="61.08679622411728" x2="0" y2="39.90000113844876" class="simplified" />
    <line x1="16.56666398048415" y1="39.90000113844872" x2="10.074219200760268" y2="42.89580509066582" class="simplified" />
    <line x1="6.492444779724021" y1="42.89580509066582" x2="8.283331990242152" y2="49.46666955947877" class="simplified" />
    <line x1="16.56666398048397" y1="89.97177061197787" x2="13.439011294394875" y2="61.08679622411728" class="simplified" />
    <line x1="16.56666398048397" y1="89.97177061197787" x2="0" y2="39.90000113844876" class="simplified" />
    <line x1="1.4210854715202004e-13" y1="39.90000113844872" x2="6.492444779724021" y2="42.89580509066582" class="simplified" />
    <line x1="24.849995970726145" y1="49.46666955947877" x2="16.566663980484133" y2="39.90000113844873" class="simplified" />
    <line x1="33.13332796096816" y1="39.90000113844872" x2="33.13332796096816" y2="0" class="simplified" />
    <line x1="23.059108760208034" y1="42.89580509066582" x2="24.849995970726162" y2="49.46666955947877" class="simplified" />
    <line x1="33.13332796096816" y1="39.90000113844872" x2="26.64088318124428" y2="42.89580509066582" class="simplified" />
    <line x1="16.56666398048415" y1="39.90000113844872" x2="23.059108760208034" y2="42.89580509066582" class="simplified" />
    <line x1="16.566663980484332" y1="89.97177061197787" x2="19.694316666573428" y2="61.08679622411728" class="simplified" />
    <line x1="19.69431666657343" y1="61.08679622411728" x2="33.1333279609683" y2="39.90000113844876" class="simplified" />
    <line x1="26.64088318124428" y1="42.89580509066582" x2="24.849995970726148" y2="49.46666955947877" class="simplified" />
    <line x1="16.566663980484332" y1="89.97177061197787" x2="33.1333279609683" y2="39.90000113844876" class="simplified" />
    <line x1="24.849995970726162" y1="49.46666955947877" x2="33.133327960968174" y2="39.90000113844873" class="simplified" />
    <line x1="16.56666398048415" y1="39.90000113844872" x2="16.56666398048415" y2="0" class="simplified" />
    <line x1="8.283331990242157" y1="49.46666955947877" x2="16.56666398048417" y2="39.90000113844873" class="simplified" />
    <line x1="1.4210854715202004e-13" y1="39.90000113844872" x2="1.4210854715202004e-13" y2="0" class="simplified" />
    <line x1="8.28333199024214" y1="49.46666955947877" x2="1.3145040611561853e-13" y2="39.90000113844873" class="simplified" />
    <line x1="10.074219200760268" y1="42.89580509066582" x2="8.283331990242141" y2="49.46666955947877" class="simplified" />
    <circle cx="13.43901129439487" cy="61.08679622411728" r="3" class="simplified-point" />
    <circle cx="0" cy="39.90000113844876" r="3" class="simplified-point" />
    <circle cx="16.56666398048415" cy="39.90000113844872" r="3" class="simplified-point" />
    <circle cx="10.074219200760268" cy="42.89580509066582" r="3" class="simplified-point" />
    <circle cx="6.492444779724021" cy="42.89580509066582" r="3" class="simplified-point" />
    <circle cx="8.283331990242152" cy="49.46666955947877" r="3" class="simplified-point" />
    <circle cx="16.56666398048397" cy="89.97177061197787" r="3" class="simplified-point" />
    <circle cx="13.439011294394875" cy="61.08679622411728" r="3" class="simplified-point" />
    <circle cx="1.4210854715202004e-13" cy="39.90000113844872" r="3" class="simplified-point" />
    <circle cx="24.849995970726145" cy="49.46666955947877" r="3" class="simplified-point" />
    <circle cx="16.566663980484133" cy="39.90000113844873" r="3" class="simplified-point" />
    <circle cx="33.13332796096816" cy="39.90000113844872" r="3" class="simplified-point" />
    <circle cx="33.13332796096816" cy="0" r="3" class="simplified-point" />
    <circle cx="23.059108760208034" cy="42.89580509066582" r="3" class="simplified-point" />
    <circle cx="24.849995970726162" cy="49.46666955947877" r="3" class="simplified-point" />
    <circle cx="26.64088318124428" cy="42.89580509066582" r="3" class="simplified-point" />
    <circle cx="16.566663980484332" cy="89.97177061197787" r="3" class="simplified-point" />
    <circle cx="19.694316666573428" cy="61.08679622411728" r="3" class="simplified-point" />
    <circle cx="19.69431666657343" cy="61.08679622411728" r="3" class="simplified-point" />
    <circle cx="33.1333279609683" cy="39.90000113844876" r="3" class="simplified-point" />
    <circle cx="24.849995970726148" cy="49.46666955947877" r="3" class="simplified-point" />
    <circle cx="33.133327960968174" cy="39.90000113844873" r="3" class="simplified-point" />
    <circle cx="16.56666398048415" cy="0" r="3" class="simplified-point" />
    <circle cx="8.283331990242157" cy="49.46666955947877" r="3" class="simplified-point" />
    <circle cx="16.56666398048417" cy="39.90000113844873" r="3" class="simplified-point" />
    <circle cx="1.4210854715202004e-13" cy="0" r="3" class="simplified-point" />
    <circle cx="8.28333199024214" cy="49.46666955947877" r="3" class="simplified-point" />
    <circle cx="1.3145040611561853e-13" cy="39.90000113844873" r="3" class="simplified-point" />
    <circle cx="8.283331990242141" cy="49.46666955947877" r="3" class="simplified-point" />
  </g>

  <!-- Paths -->
  <g id="paths" transform="translate(166.2666559219366, 20)">
    <text x="16.56666398048415" y="-5" class="title" text-anchor="middle">Paths (1 path(s))</text>
    <line x1="13.43901129439487" y1="61.08679622411728" x2="0" y2="39.90000113844876" stroke="#FF6B6B" stroke-width="2" />
    <line x1="16.56666398048397" y1="89.97177061197787" x2="13.439011294394875" y2="61.08679622411728" stroke="#FF6B6B" stroke-width="2" />
    <line x1="16.56666398048397" y1="89.97177061197787" x2="0" y2="39.90000113844876" stroke="#FF6B6B" stroke-width="2" />
    <line x1="1.4210854715202004e-13" y1="39.90000113844872" x2="6.492444779724021" y2="42.89580509066582" stroke="#FF6B6B" stroke-width="2" />
    <line x1="16.566663980484332" y1="89.97177061197787" x2="19.694316666573428" y2="61.08679622411728" stroke="#FF6B6B" stroke-width="2" />
    <line x1="19.69431666657343" y1="61.08679622411728" x2="33.1333279609683" y2="39.90000113844876" stroke="#FF6B6B" stroke-width="2" />
    <line x1="16.566663980484332" y1="89.97177061197787" x2="33.1333279609683" y2="39.90000113844876" stroke="#FF6B6B" stroke-width="2" />
    <line x1="24.849995970726162" y1="49.46666955947877" x2="33.133327960968174" y2="39.90000113844873" stroke="#FF6B6B" stroke-width="2" />
    <line x1="1.4210854715202004e-13" y1="39.90000113844872" x2="1.4210854715202004e-13" y2="0" stroke="#FF6B6B" stroke-width="2" />
    <line x1="8.28333199024214" y1="49.46666955947877" x2="1.3145040611561853e-13" y2="39.90000113844873" stroke="#FF6B6B" stroke-width="2" />
    <line x1="10.074219200760268" y1="42.89580509066582" x2="8.283331990242141" y2="49.46666955947877" stroke="#FF6B6B" stroke-width="2" />
    <line x1="16.56666398048415" y1="39.90000113844872" x2="10.074219200760268" y2="42.89580509066582" stroke="#FF6B6B" stroke-width="2" />
    <line x1="6.492444779724021" y1="42.89580509066582" x2="8.283331990242152" y2="49.46666955947877" stroke="#FF6B6B" stroke-width="2" />
    <line x1="24.849995970726145" y1="49.46666955947877" x2="16.566663980484133" y2="39.90000113844873" stroke="#FF6B6B" stroke-width="2" />
    <line x1="33.13332796096816" y1="39.90000113844872" x2="33.13332796096816" y2="0" stroke="#FF6B6B" stroke-width="2" />
    <line x1="23.059108760208034" y1="42.89580509066582" x2="24.849995970726162" y2="49.46666955947877" stroke="#FF6B6B" stroke-width="2" />
    <line x1="33.13332796096816" y1="39.90000113844872" x2="26.64088318124428" y2="42.89580509066582" stroke="#FF6B6B" stroke-width="2" />
    <line x1="16.56666398048415" y1="39.90000113844872" x2="23.059108760208034" y2="42.89580509066582" stroke="#FF6B6B" stroke-width="2" />
    <line x1="26.64088318124428" y1="42.89580509066582" x2="24.849995970726148" y2="49.46666955947877" stroke="#FF6B6B" stroke-width="2" />
    <line x1="16.56666398048415" y1="39.90000113844872" x2="16.56666398048415" y2="0" stroke="#FF6B6B" stroke-width="2" />
    <line x1="8.283331990242157" y1="49.46666955947877" x2="16.56666398048417" y2="39.90000113844873" stroke="#FF6B6B" stroke-width="2" />
    <circle cx="13.43901129439487" cy="61.08679622411728" r="3" class="path-point" />
    <circle cx="0" cy="39.90000113844876" r="3" class="path-point" />
    <circle cx="16.56666398048397" cy="89.97177061197787" r="3" class="path-point" />
    <circle cx="13.439011294394875" cy="61.08679622411728" r="3" class="path-point" />
    <circle cx="1.4210854715202004e-13" cy="39.90000113844872" r="3" class="path-point" />
    <circle cx="6.492444779724021" cy="42.89580509066582" r="3" class="path-point" />
    <circle cx="16.566663980484332" cy="89.97177061197787" r="3" class="path-point" />
    <circle cx="19.694316666573428" cy="61.08679622411728" r="3" class="path-point" />
    <circle cx="19.69431666657343" cy="61.08679622411728" r="3" class="path-point" />
    <circle cx="33.1333279609683" cy="39.90000113844876" r="3" class="path-point" />
    <circle cx="24.849995970726162" cy="49.46666955947877" r="3" class="path-point" />
    <circle cx="33.133327960968174" cy="39.90000113844873" r="3" class="path-point" />
    <circle cx="1.4210854715202004e-13" cy="0" r="3" class="path-point" />
    <circle cx="8.28333199024214" cy="49.46666955947877" r="3" class="path-point" />
    <circle cx="1.3145040611561853e-13" cy="39.90000113844873" r="3" class="path-point" />
    <circle cx="10.074219200760268" cy="42.89580509066582" r="3" class="path-point" />
    <circle cx="8.283331990242141" cy="49.46666955947877" r="3" class="path-point" />
    <circle cx="16.56666398048415" cy="39.90000113844872" r="3" class="path-point" />
    <circle cx="8.283331990242152" cy="49.46666955947877" r="3" class="path-point" />
    <circle cx="24.849995970726145" cy="49.46666955947877" r="3" class="path-point" />
    <circle cx="16.566663980484133" cy="39.90000113844873" r="3" class="path-point" />
    <circle cx="33.13332796096816" cy="39.90000113844872" r="3" class="path-point" />
    <circle cx="33.13332796096816" cy="0" r="3" class="path-point" />
    <circle cx="23.059108760208034" cy="42.89580509066582" r="3" class="path-point" />
    <circle cx="26.64088318124428" cy="42.89580509066582" r="3" class="path-point" />
    <circle cx="24.849995970726148" cy="49.46666955947877" r="3" class="path-point" />
    <circle cx="16.56666398048415" cy="0" r="3" class="path-point" />
    <circle cx="8.283331990242157" cy="49.46666955947877" r="3" class="path-point" />
    <circle cx="16.56666398048417" cy="39.90000113844873" r="3" class="path-point" />
  </g>
</svg>