<?xml version="1.0" encoding="UTF-8"?>
<svg xmlns="http://www.w3.org/2000/svg" width="522.1320343559643" height="160.71067811865476" viewBox="0 0 522.1320343559643 160.71067811865476">
  <style>
    .original { stroke: blue; stroke-width: 1; }
    .simplified { stroke: red; stroke-width: 2; }
    .original-point { fill: darkblue; }
    .simplified-point { fill: darkred; }
    .path-point { fill: black; }
    .title { font-family: Arial, sans-serif; font-size: 14px; fill: black; }
  </style>

  <!-- Original Lines -->
  <g id="original" transform="translate(20, 20)">
    <text x="60.35533905932738" y="-5" class="title" text-anchor="middle">Original (4 lines)</text>
    <line x1="85.35533905932738" y1="85.35533905932738" x2="35.35533905932738" y2="85.35533905932738" class="original" />
    <line x1="85.35533905932738" y1="35.35533905932738" x2="35.35533905932738" y2="35.35533905932738" class="original" />
    <line x1="35.35533905932738" y1="85.35533905932738" x2="35.35533905932738" y2="35.35533905932738" class="original" />
    <line x1="85.35533905932738" y1="85.35533905932738" x2="85.35533905932738" y2="35.35533905932738" class="original" />
    <path d="M 85.35533905932738 70.71067811865476 A 35.35533905932738 35.35533905932738 0 0 1 50 35.355339059327385" class="original" fill="none" />
    <path d="M 70.71067811865476 35.35533905932738 A 35.35533905932738 35.35533905932738 0 0 1 35.35533905932738 70.71067811865476" class="original" fill="none" />
    <path d="M 50 85.35533905932738 A 35.35533905932738 35.35533905932738 0 0 1 85.35533905932738 50" class="original" fill="none" />
    <path d="M 35.35533905932737 50 A 35.35533905932738 35.35533905932738 0 0 1 70.71067811865476 85.35533905932738" class="original" fill="none" />
    <circle cx="85.35533905932738" cy="85.35533905932738" r="2" class="original-point" />
    <circle cx="35.35533905932738" cy="85.35533905932738" r="2" class="original-point" />
    <circle cx="85.35533905932738" cy="35.35533905932738" r="2" class="original-point" />
    <circle cx="35.35533905932738" cy="35.35533905932738" r="2" class="original-point" />
  </g>

  <!-- Simplified Lines -->
  <g id="simplified" transform="translate(180.71067811865476, 20)">
    <text x="60.35533905932738" y="-5" class="title" text-anchor="middle">Simplified (4 lines)</text>
    <line x1="85.35533905932738" y1="85.35533905932738" x2="35.35533905932738" y2="85.35533905932738" class="simplified" />
    <line x1="85.35533905932738" y1="35.35533905932738" x2="35.35533905932738" y2="35.35533905932738" class="simplified" />
    <line x1="35.35533905932738" y1="85.35533905932738" x2="35.35533905932738" y2="35.35533905932738" class="simplified" />
    <line x1="85.35533905932738" y1="85.35533905932738" x2="85.35533905932738" y2="35.35533905932738" class="simplified" />
    <circle cx="85.35533905932738" cy="85.35533905932738" r="3" class="simplified-point" />
    <circle cx="35.35533905932738" cy="85.35533905932738" r="3" class="simplified-point" />
    <circle cx="85.35533905932738" cy="35.35533905932738" r="3" class="simplified-point" />
    <circle cx="35.35533905932738" cy="35.35533905932738" r="3" class="simplified-point" />
  </g>

  <!-- Paths -->
  <g id="paths" transform="translate(341.4213562373095, 20)">
    <text x="60.35533905932738" y="-5" class="title" text-anchor="middle">Paths (1 path(s))</text>
    <line x1="85.35533905932738" y1="85.35533905932738" x2="35.35533905932738" y2="85.35533905932738" stroke="#FF6B6B" stroke-width="2" />
    <line x1="35.35533905932738" y1="85.35533905932738" x2="35.35533905932738" y2="35.35533905932738" stroke="#FF6B6B" stroke-width="2" />
    <line x1="85.35533905932738" y1="85.35533905932738" x2="85.35533905932738" y2="35.35533905932738" stroke="#FF6B6B" stroke-width="2" />
    <line x1="85.35533905932738" y1="35.35533905932738" x2="35.35533905932738" y2="35.35533905932738" stroke="#FF6B6B" stroke-width="2" />
    <circle cx="85.35533905932738" cy="85.35533905932738" r="3" class="path-point" />
    <circle cx="35.35533905932738" cy="85.35533905932738" r="3" class="path-point" />
    <circle cx="35.35533905932738" cy="35.35533905932738" r="3" class="path-point" />
    <circle cx="85.35533905932738" cy="35.35533905932738" r="3" class="path-point" />
  </g>
</svg>