<?xml version="1.0" encoding="UTF-8"?>
<svg xmlns="http://www.w3.org/2000/svg" width="635.674289557767" height="198.55809651925568" viewBox="0 0 635.674289557767 198.55809651925568">
  <style>
    .original { stroke: blue; stroke-width: 1; }
    .simplified { stroke: red; stroke-width: 2; }
    .original-point { fill: darkblue; }
    .simplified-point { fill: darkred; }
    .path-point { fill: black; }
    .title { font-family: Arial, sans-serif; font-size: 14px; fill: black; }
  </style>

  <!-- Original Lines -->
  <g id="original" transform="translate(20, 20)">
    <text x="79.27904825962783" y="-5" class="title" text-anchor="middle">Original (8 lines)</text>
    <line x1="79.27904825962784" y1="0" x2="2.1316282072803006e-14" y2="0" class="original" />
    <line x1="79.27904825962781" y1="158.55809651925563" x2="158.55809651925563" y2="158.55809651925568" class="original" />
    <line x1="2.1316282072803006e-14" y1="0" x2="2.1316282072803006e-14" y2="79.27904825962781" class="original" />
    <line x1="79.27904825962784" y1="0" x2="158.55809651925563" y2="0" class="original" />
    <line x1="79.27904825962781" y1="158.55809651925566" x2="0" y2="158.55809651925563" class="original" />
    <line x1="158.55809651925563" y1="0" x2="158.55809651925563" y2="79.27904825962781" class="original" />
    <line x1="0" y1="158.5580965192556" x2="2.842170943040401e-14" y2="79.27904825962781" class="original" />
    <line x1="158.55809651925563" y1="158.55809651925566" x2="158.55809651925563" y2="79.27904825962787" class="original" />
    <path d="M 111.1393964935503 108.79897912807718 A 25.48764401534559 25.48764401534559 0 1 1 98.20815568884032 118.21452313074619" class="original" fill="none" />
    <path d="M 111.13939649355028 108.79897912807718 A 13.63363841221414 13.63363841221414 0 0 1 100.71847281407314 83.70425358750029" class="original" fill="none" />
    <path d="M 47.41870002570537 49.759117391178506 A 25.48764401534559 25.48764401534559 0 1 1 60.349940830415335 40.3435733885095" class="original" fill="none" />
    <path d="M 80.26307531883785 110.14107733318441 A 10.03784379580392 10.03784379580392 0 1 1 98.20815568884042 118.21452313074624" class="original" fill="none" />
    <path d="M 57.83962370518254 74.85384293175537 A 39.6395241298139 39.6395241298139 0 1 1 78.29502120041796 48.41701918607126" class="original" fill="none" />
    <path d="M 47.41870002570537 49.75911739117849 A 13.63363841221414 13.63363841221414 0 0 1 57.83962370518255 74.85384293175537" class="original" fill="none" />
    <path d="M 100.71847281407314 74.85384293175537 A 13.63363841221414 13.63363841221414 0 0 1 111.13939649355028 49.759117391178485" class="original" fill="none" />
    <path d="M 78.2950212004178 48.417019186071244 A 10.03784379580392 10.03784379580392 0 1 1 60.34994083041522 40.34357338850942" class="original" fill="none" />
    <path d="M 60.34994083041521 118.21452313074622 A 10.03784379580392 10.03784379580392 0 1 1 78.29502120041778 110.1410773331844" class="original" fill="none" />
    <path d="M 60.34994083041532 118.21452313074614 A 25.48764401534559 25.48764401534559 0 1 1 47.41870002570536 108.79897912807715" class="original" fill="none" />
    <path d="M 98.20815568884045 40.343573388509405 A 10.03784379580392 10.03784379580392 0 1 1 80.26307531883789 48.41701918607125" class="original" fill="none" />
    <path d="M 78.29502120041795 110.14107733318437 A 39.6395241298139 39.6395241298139 0 1 1 57.83962370518252 83.70425358750026" class="original" fill="none" />
    <path d="M 98.20815568884032 40.34357338850948 A 25.48764401534559 25.48764401534559 0 1 1 111.13939649355028 49.759117391178485" class="original" fill="none" />
    <path d="M 80.26307531883772 48.41701918607126 A 39.6395241298139 39.6395241298139 0 1 1 100.71847281407315 74.85384293175537" class="original" fill="none" />
    <path d="M 57.83962370518255 83.70425358750029 A 13.63363841221414 13.63363841221414 0 0 1 47.41870002570539 108.79897912807715" class="original" fill="none" />
    <path d="M 100.71847281407318 83.70425358750026 A 39.6395241298139 39.6395241298139 0 1 1 80.26307531883769 110.14107733318441" class="original" fill="none" />
    <circle cx="79.27904825962784" cy="0" r="2" class="original-point" />
    <circle cx="2.1316282072803006e-14" cy="0" r="2" class="original-point" />
    <circle cx="79.27904825962781" cy="158.55809651925563" r="2" class="original-point" />
    <circle cx="158.55809651925563" cy="158.55809651925568" r="2" class="original-point" />
    <circle cx="2.1316282072803006e-14" cy="79.27904825962781" r="2" class="original-point" />
    <circle cx="158.55809651925563" cy="0" r="2" class="original-point" />
    <circle cx="79.27904825962781" cy="158.55809651925566" r="2" class="original-point" />
    <circle cx="0" cy="158.55809651925563" r="2" class="original-point" />
    <circle cx="158.55809651925563" cy="79.27904825962781" r="2" class="original-point" />
    <circle cx="0" cy="158.5580965192556" r="2" class="original-point" />
    <circle cx="2.842170943040401e-14" cy="79.27904825962781" r="2" class="original-point" />
    <circle cx="158.55809651925563" cy="158.55809651925566" r="2" class="original-point" />
    <circle cx="158.55809651925563" cy="79.27904825962787" r="2" class="original-point" />
  </g>

  <!-- Simplified Lines -->
  <g id="simplified" transform="translate(218.55809651925566, 20)">
    <text x="79.27904825962783" y="-5" class="title" text-anchor="middle">Simplified (4 lines)</text>
    <line x1="2.1316282072803006e-14" y1="0" x2="158.55809651925563" y2="0" class="simplified" />
    <line x1="158.55809651925563" y1="158.55809651925568" x2="0" y2="158.55809651925563" class="simplified" />
    <line x1="2.1316282072803006e-14" y1="0" x2="0" y2="158.5580965192556" class="simplified" />
    <line x1="158.55809651925563" y1="0" x2="158.55809651925563" y2="158.55809651925566" class="simplified" />
    <circle cx="2.1316282072803006e-14" cy="0" r="3" class="simplified-point" />
    <circle cx="158.55809651925563" cy="0" r="3" class="simplified-point" />
    <circle cx="158.55809651925563" cy="158.55809651925568" r="3" class="simplified-point" />
    <circle cx="0" cy="158.55809651925563" r="3" class="simplified-point" />
    <circle cx="0" cy="158.5580965192556" r="3" class="simplified-point" />
    <circle cx="158.55809651925563" cy="158.55809651925566" r="3" class="simplified-point" />
  </g>

  <!-- Paths -->
  <g id="paths" transform="translate(417.1161930385113, 20)">
    <text x="79.27904825962783" y="-5" class="title" text-anchor="middle">Paths (1 path(s))</text>
    <line x1="2.1316282072803006e-14" y1="0" x2="158.55809651925563" y2="0" stroke="#FF6B6B" stroke-width="2" />
    <line x1="2.1316282072803006e-14" y1="0" x2="0" y2="158.5580965192556" stroke="#FF6B6B" stroke-width="2" />
    <line x1="158.55809651925563" y1="0" x2="158.55809651925563" y2="158.55809651925566" stroke="#FF6B6B" stroke-width="2" />
    <line x1="158.55809651925563" y1="158.55809651925568" x2="0" y2="158.55809651925563" stroke="#FF6B6B" stroke-width="2" />
    <circle cx="2.1316282072803006e-14" cy="0" r="3" class="path-point" />
    <circle cx="158.55809651925563" cy="0" r="3" class="path-point" />
    <circle cx="0" cy="158.5580965192556" r="3" class="path-point" />
    <circle cx="158.55809651925563" cy="158.55809651925566" r="3" class="path-point" />
    <circle cx="158.55809651925563" cy="158.55809651925568" r="3" class="path-point" />
    <circle cx="0" cy="158.55809651925563" r="3" class="path-point" />
  </g>
</svg>