<svg xmlns="http://www.w3.org/2000/svg" viewBox="-54.99999999999999 -54.99999999999999 109.99999999999999 109.99999999999999" stroke-linecap="round"><circle cx="0" cy="0" r="49.99999999999999" stroke="green" stroke-width="1" fill="none" />
<path d="M -36.83225204010654 33.81397950040885 A 66.69105307384122 66.69105307384122 0 0 0 -28.69181112651063 11.884537297648546" stroke="red" stroke-width="1" fill="none" />
<path d="M -28.6918111265107 -11.88453729764895 A 66.69105307384122 66.69105307384122 0 0 0 -36.83225204010653 -33.81397950040884" stroke="red" stroke-width="1" fill="none" />
<path d="M 36.832252040106525 -33.81397950040882 A 66.69105307384122 66.69105307384122 0 0 0 28.69181112651063 -11.884537297648569" stroke="red" stroke-width="1" fill="none" />
<path d="M -11.884537297648272 -28.69181112651256 A 10.08699929189599 10.08699929189599 0 1 0 -12.63623269729241 -48.376912088514686" stroke="red" stroke-width="1" fill="none" />
<path d="M 28.69180983903543 11.884530188515345 A 66.69105307384122 66.69105307384122 0 0 0 36.8322520401065 33.813979500408784" stroke="red" stroke-width="1" fill="none" />
<path d="M 11.884530527144058 -28.691809900361726 A 14.46164377447722 14.46164377447722 0 1 0 28.691811126513258 -11.88453729764814" stroke="red" stroke-width="1" fill="none" />
<path d="M 11.884530527144065 -28.691809900361605 A 66.69105307384122 66.69105307384122 0 0 0 33.81397950040878 -36.832252040106496" stroke="red" stroke-width="1" fill="none" />
<path d="M 12.636232697292424 -48.376912088514686 A 10.08699929189599 10.08699929189599 0 1 0 11.884530527144056 -28.69180990036156" stroke="red" stroke-width="1" fill="none" />
<path d="M 28.691811126512032 -11.884537297648372 A 10.08699929189599 10.08699929189599 0 1 0 48.37691208851432 -12.63623269729431" stroke="red" stroke-width="1" fill="none" />
<path d="M -12.636232697291 48.37691208851293 A 10.08699929189599 10.08699929189599 0 1 0 -11.88453052714255 28.691809900359715" stroke="red" stroke-width="1" fill="none" />
<path d="M 33.81397950040883 36.83225204010654 A 66.69105307384122 66.69105307384122 0 0 0 11.884537297648642 28.691811126510643" stroke="red" stroke-width="1" fill="none" />
<path d="M 11.88453729764862 28.6918111265106 A 10.08699929189599 10.08699929189599 0 1 0 12.636232697294076 48.37691208851278" stroke="red" stroke-width="1" fill="none" />
<path d="M -48.376912088513116 -12.636232697292844 A 10.08699929189599 10.08699929189599 0 1 0 -28.69181112651109 -11.884537297648864" stroke="red" stroke-width="1" fill="none" />
<path d="M -33.8139795004088 -36.83225204010651 A 66.69105307384122 66.69105307384122 0 0 0 -11.884537297648603 -28.691811126510643" stroke="red" stroke-width="1" fill="none" />
<path d="M 28.691809839035347 11.884530188515345 A 14.46164377447722 14.46164377447722 0 1 0 11.884537297648167 28.69181112651325" stroke="red" stroke-width="1" fill="none" />
<path d="M 48.3769120885145 12.636232697290545 A 10.08699929189599 10.08699929189599 0 1 0 28.691809839035393 11.88453018851531" stroke="red" stroke-width="1" fill="none" />
<path d="M -28.691811126511137 11.88453729764854 A 10.08699929189599 10.08699929189599 0 1 0 -48.37691208851315 12.63623269729219" stroke="red" stroke-width="1" fill="none" />
<path d="M -11.88453052714228 28.691809900361278 A 66.69105307384122 66.69105307384122 0 0 0 -33.81397950040883 36.83225204010652" stroke="red" stroke-width="1" fill="none" />
<path d="M -11.88453052714228 28.691809900361406 A 14.46164377447722 14.46164377447722 0 1 0 -28.69181112651326 11.884537297648151" stroke="red" stroke-width="1" fill="none" />
<path d="M -28.691811126512782 -11.884537297648567 A 14.46164377447722 14.46164377447722 0 1 0 -11.884537297648126 -28.691811126513258" stroke="red" stroke-width="1" fill="none" />
<polygon points="-1.9999999999999998,-0.9999999999999999 -1.9999999999999998,0.9999999999999999 1.9999999999999998,0" transform="translate(-28.69181112651063,11.884537297648546) rotate(10.265116333788598)" fill="green" stroke="black" stroke-width="0.5" />
<polygon points="-1.9999999999999998,-0.9999999999999999 -1.9999999999999998,0.9999999999999999 1.9999999999999998,0" transform="translate(-28.69181112651063,11.884537297648546) rotate(10.154266580200263)" fill="green" stroke="black" stroke-width="0.5" />
<polygon points="-1.9999999999999998,-0.9999999999999999 -1.9999999999999998,0.9999999999999999 1.9999999999999998,0" transform="translate(-28.6918111265107,-11.88453729764895) rotate(-10.265116330893068)" fill="green" stroke="black" stroke-width="0.5" />
<polygon points="-1.9999999999999998,-0.9999999999999999 -1.9999999999999998,0.9999999999999999 1.9999999999999998,0" transform="translate(-28.6918111265107,-11.88453729764895) rotate(-180)" fill="green" stroke="black" stroke-width="0.5" />
<polygon points="-1.9999999999999998,-0.9999999999999999 -1.9999999999999998,0.9999999999999999 1.9999999999999998,0" transform="translate(28.69181112651063,-11.884537297648569) rotate(-169.0888716157166)" fill="green" stroke="black" stroke-width="0.5" />
<polygon points="-1.9999999999999998,-0.9999999999999999 -1.9999999999999998,0.9999999999999999 1.9999999999999998,0" transform="translate(28.69181112651063,-11.884537297648569) rotate(-169.73488367486019)" fill="green" stroke="black" stroke-width="0.5" />
<polygon points="-1.9999999999999998,-0.9999999999999999 -1.9999999999999998,0.9999999999999999 1.9999999999999998,0" transform="translate(-11.884537297648272,-28.69181112651256) rotate(100.26511632706116)" fill="green" stroke="black" stroke-width="0.5" />
<polygon points="-1.9999999999999998,-0.9999999999999999 -1.9999999999999998,0.9999999999999999 1.9999999999999998,0" transform="translate(-11.884537297648272,-28.69181112651256) rotate(10.265116325558944)" fill="green" stroke="black" stroke-width="0.5" />
<polygon points="-1.9999999999999998,-0.9999999999999999 -1.9999999999999998,0.9999999999999999 1.9999999999999998,0" transform="translate(28.69180983903543,11.884530188515345) rotate(169.73488905665243)" fill="green" stroke="black" stroke-width="0.5" />
<polygon points="-1.9999999999999998,-0.9999999999999999 -1.9999999999999998,0.9999999999999999 1.9999999999999998,0" transform="translate(28.69180983903543,11.884530188515345) rotate(-10.265092835791172)" fill="green" stroke="black" stroke-width="0.5" />
<polygon points="-1.9999999999999998,-0.9999999999999999 -1.9999999999999998,0.9999999999999999 1.9999999999999998,0" transform="translate(11.884530527144058,-28.691809900361726) rotate(79.73488958899947)" fill="green" stroke="black" stroke-width="0.5" />
<polygon points="-1.9999999999999998,-0.9999999999999999 -1.9999999999999998,0.9999999999999999 1.9999999999999998,0" transform="translate(11.884530527144058,-28.691809900361726) rotate(169.73488958575993)" fill="green" stroke="black" stroke-width="0.5" />
<polygon points="-1.9999999999999998,-0.9999999999999999 -1.9999999999999998,0.9999999999999999 1.9999999999999998,0" transform="translate(28.691811126513258,-11.88453729764814) rotate(100.26511632555483)" fill="green" stroke="black" stroke-width="0.5" />
<polygon points="-1.9999999999999998,-0.9999999999999999 -1.9999999999999998,0.9999999999999999 1.9999999999999998,0" transform="translate(11.884530527144065,-28.691809900361605) rotate(-100.7842978675626)" fill="green" stroke="black" stroke-width="0.5" />
<polygon points="-1.9999999999999998,-0.9999999999999999 -1.9999999999999998,0.9999999999999999 1.9999999999999998,0" transform="translate(-11.88453052714255,28.691809900359715) rotate(80.40686573726967)" fill="green" stroke="black" stroke-width="0.5" />
<polygon points="-1.9999999999999998,-0.9999999999999999 -1.9999999999999998,0.9999999999999999 1.9999999999999998,0" transform="translate(-11.88453052714255,28.691809900359715) rotate(-10.265110414242907)" fill="green" stroke="black" stroke-width="0.5" />
<polygon points="-1.9999999999999998,-0.9999999999999999 -1.9999999999999998,0.9999999999999999 1.9999999999999998,0" transform="translate(11.884537297648642,28.691811126510643) rotate(-79.73488367915701)" fill="green" stroke="black" stroke-width="0.5" />
<polygon points="-1.9999999999999998,-0.9999999999999999 -1.9999999999999998,0.9999999999999999 1.9999999999999998,0" transform="translate(11.884537297648642,28.691811126510643) rotate(98.42696902148069)" fill="green" stroke="black" stroke-width="0.5" />
<polygon points="-1.9999999999999998,-0.9999999999999999 -1.9999999999999998,0.9999999999999999 1.9999999999999998,0" transform="translate(11.88453729764862,28.6918111265106) rotate(-169.7348836744437)" fill="green" stroke="black" stroke-width="0.5" />
<polygon points="-1.9999999999999998,-0.9999999999999999 -1.9999999999999998,0.9999999999999999 1.9999999999999998,0" transform="translate(-28.69181112651109,-11.884537297648864) rotate(79.73488367444007)" fill="green" stroke="black" stroke-width="0.5" />
<polygon points="-1.9999999999999998,-0.9999999999999999 -1.9999999999999998,0.9999999999999999 1.9999999999999998,0" transform="translate(-11.884537297648603,-28.691811126510643) rotate(99.18054195762618)" fill="green" stroke="black" stroke-width="0.5" />
<polygon points="-1.9999999999999998,-0.9999999999999999 -1.9999999999999998,0.9999999999999999 1.9999999999999998,0" transform="translate(28.691809839035347,11.884530188515345) rotate(-100.26511011858811)" fill="green" stroke="black" stroke-width="0.5" />
<polygon points="-1.9999999999999998,-0.9999999999999999 -1.9999999999999998,0.9999999999999999 1.9999999999999998,0" transform="translate(-28.691811126511137,11.88453729764854) rotate(-79.73488367443956)" fill="green" stroke="black" stroke-width="0.5" />
<polygon points="-1.9999999999999998,-0.9999999999999999 -1.9999999999999998,0.9999999999999999 1.9999999999999998,0" transform="translate(-11.88453052714228,28.691809900361278) rotate(-100.2651104170313)" fill="green" stroke="black" stroke-width="0.5" />
<circle cx="-36.83225204010654" cy="33.81397950040885" r="0.5999999999999999" stroke="black" stroke-width="0.5" fill="yellow" />
<text x="-36.03225204010654" y="33.41397950040885" font-size="1.5999999999999999" fill="black" stroke="white" stroke-width="0.032">0</text>
<circle cx="-36.320688447294394" cy="32.9288771353727" r="0.5999999999999999" stroke="black" stroke-width="0.5" fill="yellow" />
<text x="-35.5206884472944" y="32.5288771353727" font-size="1.5999999999999999" fill="black" stroke="white" stroke-width="0.032">1</text>
<circle cx="-35.822752238215074" cy="32.03603726295924" r="0.5999999999999999" stroke="black" stroke-width="0.5" fill="yellow" />
<text x="-35.02275223821508" y="31.636037262959242" font-size="1.5999999999999999" fill="black" stroke="white" stroke-width="0.032">2</text>
<circle cx="-35.33856041610184" cy="31.13566967942342" r="0.5999999999999999" stroke="black" stroke-width="0.5" fill="yellow" />
<text x="-34.538560416101845" y="30.73566967942342" font-size="1.5999999999999999" fill="black" stroke="white" stroke-width="0.032">3</text>
<circle cx="-34.868226754581976" cy="30.227985949854084" r="0.5999999999999999" stroke="black" stroke-width="0.5" fill="yellow" />
<text x="-34.06822675458198" y="29.827985949854085" font-size="1.5999999999999999" fill="black" stroke="white" stroke-width="0.032">4</text>
<circle cx="-34.41186177094288" cy="29.31319935846157" r="0.5999999999999999" stroke="black" stroke-width="0.5" fill="yellow" />
<text x="-33.61186177094288" y="28.913199358461572" font-size="1.5999999999999999" fill="black" stroke="white" stroke-width="0.032">5</text>
<circle cx="-33.96957270016285" cy="28.391524858460556" r="0.5999999999999999" stroke="black" stroke-width="0.5" fill="yellow" />
<text x="-33.16957270016285" y="27.991524858460558" font-size="1.5999999999999999" fill="black" stroke="white" stroke-width="0.032">6</text>
<circle cx="-33.54146346971369" cy="27.46317902156156" r="0.5999999999999999" stroke="black" stroke-width="0.5" fill="yellow" />
<text x="-32.74146346971369" y="27.063179021561563" font-size="1.5999999999999999" fill="black" stroke="white" stroke-width="0.032">7</text>
<circle cx="-33.12763467513998" cy="26.528379987081294" r="0.5999999999999999" stroke="black" stroke-width="0.5" fill="yellow" />
<text x="-32.32763467513998" y="26.128379987081296" font-size="1.5999999999999999" fill="black" stroke="white" stroke-width="0.032">8</text>
<circle cx="-32.72818355642165" cy="25.587347410685485" r="0.5999999999999999" stroke="black" stroke-width="0.5" fill="yellow" />
<text x="-31.928183556421647" y="25.187347410685486" font-size="1.5999999999999999" fill="black" stroke="white" stroke-width="0.032">9</text>
<circle cx="-32.34320397512477" cy="24.640302412774588" r="0.5999999999999999" stroke="black" stroke-width="0.5" fill="yellow" />
<text x="-31.543203975124772" y="24.24030241277459" font-size="1.5999999999999999" fill="black" stroke="white" stroke-width="0.032">10</text>
<circle cx="-31.97278639234643" cy="23.687467526526127" r="0.5999999999999999" stroke="black" stroke-width="0.5" fill="yellow" />
<text x="-31.172786392346428" y="23.28746752652613" font-size="1.5999999999999999" fill="black" stroke="white" stroke-width="0.032">11</text>
<circle cx="-31.617017847458378" cy="22.72906664560426" r="0.5999999999999999" stroke="black" stroke-width="0.5" fill="yellow" />
<text x="-30.817017847458377" y="22.32906664560426" font-size="1.5999999999999999" fill="black" stroke="white" stroke-width="0.032">12</text>
<circle cx="-31.27598193765497" cy="21.765324971550463" r="0.5999999999999999" stroke="black" stroke-width="0.5" fill="yellow" />
<text x="-30.475981937654968" y="21.365324971550464" font-size="1.5999999999999999" fill="black" stroke="white" stroke-width="0.032">13</text>
<circle cx="-30.94975879830966" cy="20.796468960866072" r="0.5999999999999999" stroke="black" stroke-width="0.5" fill="yellow" />
<text x="-30.14975879830966" y="20.396468960866073" font-size="1.5999999999999999" fill="black" stroke="white" stroke-width="0.032">14</text>
<circle cx="-30.638425084145247" cy="19.82272627180081" r="0.5999999999999999" stroke="black" stroke-width="0.5" fill="yellow" />
<text x="-29.838425084145246" y="19.422726271800812" font-size="1.5999999999999999" fill="black" stroke="white" stroke-width="0.032">15</text>
<circle cx="-30.342053951221637" cy="18.844325710858026" r="0.5999999999999999" stroke="black" stroke-width="0.5" fill="yellow" />
<text x="-29.542053951221636" y="18.444325710858028" font-size="1.5999999999999999" fill="black" stroke="white" stroke-width="0.032">16</text>
<circle cx="-30.060715039746114" cy="17.861497179031023" r="0.5999999999999999" stroke="black" stroke-width="0.5" fill="yellow" />
<text x="-29.260715039746113" y="17.461497179031024" font-size="1.5999999999999999" fill="black" stroke="white" stroke-width="0.032">17</text>
<circle cx="-29.794474457709327" cy="16.87447161778132" r="0.5999999999999999" stroke="black" stroke-width="0.5" fill="yellow" />
<text x="-28.994474457709327" y="16.474471617781322" font-size="1.5999999999999999" fill="black" stroke="white" stroke-width="0.032">18</text>
<circle cx="-29.54339476535162" cy="15.88348095477333" r="0.5999999999999999" stroke="black" stroke-width="0.5" fill="yellow" />
<text x="-28.74339476535162" y="15.483480954773329" font-size="1.5999999999999999" fill="black" stroke="white" stroke-width="0.032">19</text>
<circle cx="-29.307534960462803" cy="14.88875804937636" r="0.5999999999999999" stroke="black" stroke-width="0.5" fill="yellow" />
<text x="-28.507534960462802" y="14.48875804937636" font-size="1.5999999999999999" fill="black" stroke="white" stroke-width="0.032">20</text>
<circle cx="-29.08695046451909" cy="13.890536637948658" r="0.5999999999999999" stroke="black" stroke-width="0.5" fill="yellow" />
<text x="-28.28695046451909" y="13.490536637948658" font-size="1.5999999999999999" fill="black" stroke="white" stroke-width="0.032">21</text>
<circle cx="-28.881693109660304" cy="12.889051278914414" r="0.5999999999999999" stroke="black" stroke-width="0.5" fill="yellow" />
<text x="-28.081693109660304" y="12.489051278914413" font-size="1.5999999999999999" fill="black" stroke="white" stroke-width="0.032">22</text>
<circle cx="-28.69181112651063" cy="11.884537297648546" r="0.5999999999999999" stroke="black" stroke-width="0.5" fill="yellow" />
<text x="-27.89181112651063" y="11.484537297648545" font-size="1.5999999999999999" fill="black" stroke="white" stroke-width="0.032">23</text>
<circle cx="-28.562471598053712" cy="10.891290260269999" r="0.5999999999999999" stroke="black" stroke-width="0.5" fill="yellow" />
<text x="-27.76247159805371" y="10.491290260269999" font-size="1.5999999999999999" fill="black" stroke="white" stroke-width="0.032">24</text>
<circle cx="-28.532276921252176" cy="9.890112617503405" r="0.5999999999999999" stroke="black" stroke-width="0.5" fill="yellow" />
<text x="-27.732276921252176" y="9.490112617503405" font-size="1.5999999999999999" fill="black" stroke="white" stroke-width="0.032">25</text>
<circle cx="-28.60152482674873" cy="8.890876349913412" r="0.5999999999999999" stroke="black" stroke-width="0.5" fill="yellow" />
<text x="-27.80152482674873" y="8.490876349913412" font-size="1.5999999999999999" fill="black" stroke="white" stroke-width="0.032">26</text>
<circle cx="-28.769532504672277" cy="7.903434295389919" r="0.5999999999999999" stroke="black" stroke-width="0.5" fill="yellow" />
<text x="-27.969532504672276" y="7.503434295389918" font-size="1.5999999999999999" fill="black" stroke="white" stroke-width="0.032">27</text>
<circle cx="-29.034643337395405" cy="6.937522996534961" r="0.5999999999999999" stroke="black" stroke-width="0.5" fill="yellow" />
<text x="-28.234643337395404" y="6.53752299653496" font-size="1.5999999999999999" fill="black" stroke="white" stroke-width="0.032">28</text>
<circle cx="-29.394243234394786" cy="6.0026666947640015" r="0.5999999999999999" stroke="black" stroke-width="0.5" fill="yellow" />
<text x="-28.594243234394785" y="5.602666694764001" font-size="1.5999999999999999" fill="black" stroke="white" stroke-width="0.032">29</text>
<circle cx="-29.844786408147208" cy="5.1080834177752585" r="0.5999999999999999" stroke="black" stroke-width="0.5" fill="yellow" />
<text x="-29.044786408147207" y="4.708083417775258" font-size="1.5999999999999999" fill="black" stroke="white" stroke-width="0.032">30</text>
<circle cx="-30.381830336901455" cy="4.262594086399018" r="0.5999999999999999" stroke="black" stroke-width="0.5" fill="yellow" />
<text x="-29.581830336901454" y="3.862594086399018" font-size="1.5999999999999999" fill="black" stroke="white" stroke-width="0.032">31</text>
<circle cx="-31.000079569580144" cy="3.4745355370671485" r="0.5999999999999999" stroke="black" stroke-width="0.5" fill="yellow" />
<text x="-30.200079569580144" y="3.0745355370671485" font-size="1.5999999999999999" fill="black" stroke="white" stroke-width="0.032">32</text>
<circle cx="-31.69343794087913" cy="2.7516783175331234" r="0.5999999999999999" stroke="black" stroke-width="0.5" fill="yellow" />
<text x="-30.893437940879128" y="2.3516783175331235" font-size="1.5999999999999999" fill="black" stroke="white" stroke-width="0.032">33</text>
<circle cx="-32.455068681704255" cy="2.1011500664071665" r="0.5999999999999999" stroke="black" stroke-width="0.5" fill="yellow" />
<text x="-31.655068681704254" y="1.7011500664071666" font-size="1.5999999999999999" fill="black" stroke="white" stroke-width="0.032">34</text>
<circle cx="-33.2774618322345" cy="1.5293652320124842" r="0.5999999999999999" stroke="black" stroke-width="0.5" fill="yellow" />
<text x="-32.4774618322345" y="1.1293652320124843" font-size="1.5999999999999999" fill="black" stroke="white" stroke-width="0.032">35</text>
<circle cx="-34.15250829289379" cy="1.0419618235606265" r="0.5999999999999999" stroke="black" stroke-width="0.5" fill="yellow" />
<text x="-33.352508292893795" y="0.6419618235606266" font-size="1.5999999999999999" fill="black" stroke="white" stroke-width="0.032">36</text>
<circle cx="-35.071579783061566" cy="0.6437458183026425" r="0.5999999999999999" stroke="black" stroke-width="0.5" fill="yellow" />
<text x="-34.27157978306157" y="0.24374581830264258" font-size="1.5999999999999999" fill="black" stroke="white" stroke-width="0.032">37</text>
<circle cx="-36.02561391909988" cy="0.33864377282202085" r="0.5999999999999999" stroke="black" stroke-width="0.5" fill="yellow" />
<text x="-35.225613919099885" y="-0.06135622717797912" font-size="1.5999999999999999" fill="black" stroke="white" stroke-width="0.032">38</text>
<circle cx="-37.00520357279623" cy="0.1296641057395611" r="0.5999999999999999" stroke="black" stroke-width="0.5" fill="yellow" />
<text x="-36.205203572796236" y="-0.27033589426043886" font-size="1.5999999999999999" fill="black" stroke="white" stroke-width="0.032">39</text>
<circle cx="-38.00068962911493" cy="0.018867433596943428" r="0.5999999999999999" stroke="black" stroke-width="0.5" fill="yellow" />
<text x="-37.20068962911493" y="-0.38113256640305654" font-size="1.5999999999999999" fill="black" stroke="white" stroke-width="0.032">40</text>
<circle cx="-39.002256228631445" cy="0.007346252418152233" r="0.5999999999999999" stroke="black" stroke-width="0.5" fill="yellow" />
<text x="-38.20225622863145" y="-0.39265374758184773" font-size="1.5999999999999999" fill="black" stroke="white" stroke-width="0.032">41</text>
<circle cx="-40.0000275555242" cy="0.09521416529600657" r="0.5999999999999999" stroke="black" stroke-width="0.5" fill="yellow" />
<text x="-39.2000275555242" y="-0.3047858347039934" font-size="1.5999999999999999" fill="black" stroke="white" stroke-width="0.032">42</text>
<circle cx="-40.98416521675851" cy="0.28160476222379316" r="0.5999999999999999" stroke="black" stroke-width="0.5" fill="yellow" />
<text x="-40.184165216758515" y="-0.11839523777620681" font-size="1.5999999999999999" fill="black" stroke="white" stroke-width="0.032">43</text>
<circle cx="-41.9449652522681" cy="0.5646801632172753" r="0.5999999999999999" stroke="black" stroke-width="0.5" fill="yellow" />
<text x="-41.1449652522681" y="0.16468016321727535" font-size="1.5999999999999999" fill="black" stroke="white" stroke-width="0.032">44</text>
<circle cx="-42.87295381957793" cy="0.9416491404887246" r="0.5999999999999999" stroke="black" stroke-width="0.5" fill="yellow" />
<text x="-42.07295381957793" y="0.5416491404887247" font-size="1.5999999999999999" fill="black" stroke="white" stroke-width="0.032">45</text>
<circle cx="-43.758980609382846" cy="1.4087946409816663" r="0.5999999999999999" stroke="black" stroke-width="0.5" fill="yellow" />
<text x="-42.95898060938285" y="1.0087946409816664" font-size="1.5999999999999999" fill="black" stroke="white" stroke-width="0.032">46</text>
<circle cx="-44.59430907096989" cy="1.9615104378840673" r="0.5999999999999999" stroke="black" stroke-width="0.5" fill="yellow" />
<text x="-43.794309070969895" y="1.5615104378840674" font-size="1.5999999999999999" fill="black" stroke="white" stroke-width="0.032">47</text>
<circle cx="-45.37070255782834" cy="2.5943465497223723" r="0.5999999999999999" stroke="black" stroke-width="0.5" fill="yellow" />
<text x="-44.57070255782834" y="2.1943465497223724" font-size="1.5999999999999999" fill="black" stroke="white" stroke-width="0.032">48</text>
<circle cx="-46.08050554402013" cy="3.301062979187586" r="0.5999999999999999" stroke="black" stroke-width="0.5" fill="yellow" />
<text x="-45.28050554402013" y="2.901062979187586" font-size="1.5999999999999999" fill="black" stroke="white" stroke-width="0.032">49</text>
<circle cx="-46.716719110487226" cy="4.074691241808627" r="0.5999999999999999" stroke="black" stroke-width="0.5" fill="yellow" />
<text x="-45.91671911048723" y="3.674691241808627" font-size="1.5999999999999999" fill="black" stroke="white" stroke-width="0.032">50</text>
<circle cx="-47.273069956973174" cy="4.907603077777607" r="0.5999999999999999" stroke="black" stroke-width="0.5" fill="yellow" />
<text x="-46.47306995697318" y="4.507603077777607" font-size="1.5999999999999999" fill="black" stroke="white" stroke-width="0.032">51</text>
<circle cx="-47.74407225907572" cy="5.791585669403086" r="0.5999999999999999" stroke="black" stroke-width="0.5" fill="yellow" />
<text x="-46.944072259075725" y="5.391585669403086" font-size="1.5999999999999999" fill="black" stroke="white" stroke-width="0.032">52</text>
<circle cx="-48.12508176049747" cy="6.717922622519604" r="0.5999999999999999" stroke="black" stroke-width="0.5" fill="yellow" />
<text x="-47.325081760497476" y="6.317922622519603" font-size="1.5999999999999999" fill="black" stroke="white" stroke-width="0.032">53</text>
<circle cx="-48.41234156712459" cy="7.677479913346675" r="0.5999999999999999" stroke="black" stroke-width="0.5" fill="yellow" />
<text x="-47.612341567124595" y="7.277479913346674" font-size="1.5999999999999999" fill="black" stroke="white" stroke-width="0.032">54</text>
<circle cx="-48.60301919138754" cy="8.660795953329874" r="0.5999999999999999" stroke="black" stroke-width="0.5" fill="yellow" />
<text x="-47.80301919138754" y="8.260795953329874" font-size="1.5999999999999999" fill="black" stroke="white" stroke-width="0.032">55</text>
<circle cx="-48.69523448163248" cy="9.658174883891315" r="0.5999999999999999" stroke="black" stroke-width="0.5" fill="yellow" />
<text x="-47.895234481632485" y="9.258174883891314" font-size="1.5999999999999999" fill="black" stroke="white" stroke-width="0.032">56</text>
<circle cx="-48.688078161109544" cy="10.659782181168751" r="0.5999999999999999" stroke="black" stroke-width="0.5" fill="yellow" />
<text x="-47.88807816110955" y="10.25978218116875" font-size="1.5999999999999999" fill="black" stroke="white" stroke-width="0.032">57</text>
<circle cx="-48.58162079377669" cy="11.655741628045682" r="0.5999999999999999" stroke="black" stroke-width="0.5" fill="yellow" />
<text x="-47.781620793776696" y="11.255741628045682" font-size="1.5999999999999999" fill="black" stroke="white" stroke-width="0.032">58</text>
<circle cx="-48.37691208851315" cy="12.63623269729219" r="0.5999999999999999" stroke="black" stroke-width="0.5" fill="yellow" />
<text x="-47.576912088513154" y="12.23623269729219" font-size="1.5999999999999999" fill="black" stroke="white" stroke-width="0.032">59</text></svg>