<?xml version="1.0" encoding="UTF-8"?>
<svg xmlns="http://www.w3.org/2000/svg" width="335.90432667196757" height="440" viewBox="0 0 335.90432667196757 440">
  <style>
    .profile-path { fill: rgba(100, 150, 255, 0.3); stroke: blue; stroke-width: 1.5; }
    .center-mark { fill: none; stroke: green; stroke-width: 1; }
    .axis { stroke: #ccc; stroke-width: 0.5; stroke-dasharray: 4,4; }
  </style>

  <!-- Axis lines through center -->
  <line x1="0" y1="220.00" x2="335.90432667196757" y2="220.00" class="axis" />
  <line x1="167.95" y1="0" x2="167.95" y2="440" class="axis" />

  <!-- Profile path -->
  <path d="M 20.00 420.00 L 20.00 20.00 L 90.17 20.00 L 90.87 37.71 L 92.95 55.31 L 96.41 72.70 L 101.22 89.75 L 107.36 106.38 L 114.78 122.48 L 123.44 137.94 L 133.28 152.68 L 144.26 166.60 L 156.29 179.62 L 169.30 191.65 L 183.22 202.62 L 197.96 212.47 L 213.42 221.13 L 229.52 228.55 L 246.15 234.68 L 263.21 239.49 L 280.59 242.95 L 298.19 245.03 L 315.90 245.73 L 315.90 420.00 Z" class="profile-path" />

  <!-- Point markers with indices -->
  <circle cx="20.00" cy="420.00" r="3" fill="red" />
    <text x="25.00" y="415.00" font-size="8" fill="gray">0</text>
    <circle cx="20.00" cy="20.00" r="3" fill="red" />
    <text x="25.00" y="15.00" font-size="8" fill="gray">1</text>
    <circle cx="90.17" cy="20.00" r="3" fill="red" />
    <text x="95.17" y="15.00" font-size="8" fill="gray">2</text>
    <circle cx="90.87" cy="37.71" r="3" fill="red" />
    <text x="95.87" y="32.71" font-size="8" fill="gray">3</text>
    <circle cx="92.95" cy="55.31" r="3" fill="red" />
    <text x="97.95" y="50.31" font-size="8" fill="gray">4</text>
    <circle cx="96.41" cy="72.70" r="3" fill="red" />
    <text x="101.41" y="67.70" font-size="8" fill="gray">5</text>
    <circle cx="101.22" cy="89.75" r="3" fill="red" />
    <text x="106.22" y="84.75" font-size="8" fill="gray">6</text>
    <circle cx="107.36" cy="106.38" r="3" fill="red" />
    <text x="112.36" y="101.38" font-size="8" fill="gray">7</text>
    <circle cx="114.78" cy="122.48" r="3" fill="red" />
    <text x="119.78" y="117.48" font-size="8" fill="gray">8</text>
    <circle cx="123.44" cy="137.94" r="3" fill="red" />
    <text x="128.44" y="132.94" font-size="8" fill="gray">9</text>
    <circle cx="133.28" cy="152.68" r="3" fill="red" />
    <text x="138.28" y="147.68" font-size="8" fill="gray">10</text>
    <circle cx="144.26" cy="166.60" r="3" fill="red" />
    <text x="149.26" y="161.60" font-size="8" fill="gray">11</text>
    <circle cx="156.29" cy="179.62" r="3" fill="red" />
    <text x="161.29" y="174.62" font-size="8" fill="gray">12</text>
    <circle cx="169.30" cy="191.65" r="3" fill="red" />
    <text x="174.30" y="186.65" font-size="8" fill="gray">13</text>
    <circle cx="183.22" cy="202.62" r="3" fill="red" />
    <text x="188.22" y="197.62" font-size="8" fill="gray">14</text>
    <circle cx="197.96" cy="212.47" r="3" fill="red" />
    <text x="202.96" y="207.47" font-size="8" fill="gray">15</text>
    <circle cx="213.42" cy="221.13" r="3" fill="red" />
    <text x="218.42" y="216.13" font-size="8" fill="gray">16</text>
    <circle cx="229.52" cy="228.55" r="3" fill="red" />
    <text x="234.52" y="223.55" font-size="8" fill="gray">17</text>
    <circle cx="246.15" cy="234.68" r="3" fill="red" />
    <text x="251.15" y="229.68" font-size="8" fill="gray">18</text>
    <circle cx="263.21" cy="239.49" r="3" fill="red" />
    <text x="268.21" y="234.49" font-size="8" fill="gray">19</text>
    <circle cx="280.59" cy="242.95" r="3" fill="red" />
    <text x="285.59" y="237.95" font-size="8" fill="gray">20</text>
    <circle cx="298.19" cy="245.03" r="3" fill="red" />
    <text x="303.19" y="240.03" font-size="8" fill="gray">21</text>
    <circle cx="315.90" cy="245.73" r="3" fill="red" />
    <text x="320.90" y="240.73" font-size="8" fill="gray">22</text>
    <circle cx="315.90" cy="420.00" r="3" fill="red" />
    <text x="320.90" y="415.00" font-size="8" fill="gray">23</text>

  <!-- Center marker -->
  <circle cx="167.95" cy="220.00" r="5" class="center-mark" />
  <line x1="159.95" y1="220.00" x2="175.95" y2="220.00" class="center-mark" />
  <line x1="167.95" y1="212.00" x2="167.95" y2="228.00" class="center-mark" />

  <!-- Legend -->
  <text x="10" y="15" font-size="10" fill="black">Profile: 24 points</text>
  <text x="10" y="27" font-size="10" fill="black">Bounds: [0.00, 0.00] to [20.96, 28.33]</text>
</svg>