<?xml version="1.0" encoding="UTF-8"?>
<svg xmlns="http://www.w3.org/2000/svg" width="402.21759226194814" height="440" viewBox="0 0 402.21759226194814 440">
  <style>
    .profile-path { fill: rgba(100, 150, 255, 0.3); stroke: blue; stroke-width: 1.5; }
    .center-mark { fill: none; stroke: green; stroke-width: 1; }
    .axis { stroke: #ccc; stroke-width: 0.5; stroke-dasharray: 4,4; }
  </style>

  <!-- Axis lines through center -->
  <line x1="0" y1="220.00" x2="402.21759226194814" y2="220.00" class="axis" />
  <line x1="201.11" y1="0" x2="201.11" y2="440" class="axis" />

  <!-- Profile path -->
  <path d="M 20.00 420.00 L 20.00 20.00 L 25.85 24.79 L 31.50 29.80 L 36.96 35.03 L 42.21 40.47 L 47.24 46.11 L 52.05 51.95 L 56.62 57.96 L 60.96 64.15 L 65.05 70.50 L 68.90 77.01 L 72.48 83.67 L 75.81 90.45 L 78.87 97.37 L 81.65 104.39 L 84.16 111.52 L 86.39 118.75 L 88.33 126.05 L 89.99 133.42 L 91.36 140.86 L 92.44 148.34 L 219.22 148.34 L 219.72 161.13 L 221.23 173.84 L 223.72 186.39 L 227.20 198.71 L 231.63 210.71 L 236.99 222.34 L 243.24 233.50 L 250.35 244.14 L 258.27 254.20 L 266.96 263.59 L 276.36 272.28 L 286.41 280.20 L 297.05 287.32 L 308.22 293.57 L 319.84 298.93 L 331.85 303.36 L 344.17 306.83 L 356.72 309.33 L 369.43 310.83 L 382.22 311.33 L 382.22 420.00 Z" class="profile-path" />

  <!-- Point markers with indices -->
  <circle cx="20.00" cy="420.00" r="3" fill="red" />
    <text x="25.00" y="415.00" font-size="8" fill="gray">0</text>
    <circle cx="20.00" cy="20.00" r="3" fill="red" />
    <text x="25.00" y="15.00" font-size="8" fill="gray">1</text>
    <circle cx="25.85" cy="24.79" r="3" fill="red" />
    <text x="30.85" y="19.79" font-size="8" fill="gray">2</text>
    <circle cx="31.50" cy="29.80" r="3" fill="red" />
    <text x="36.50" y="24.80" font-size="8" fill="gray">3</text>
    <circle cx="36.96" cy="35.03" r="3" fill="red" />
    <text x="41.96" y="30.03" font-size="8" fill="gray">4</text>
    <circle cx="42.21" cy="40.47" r="3" fill="red" />
    <text x="47.21" y="35.47" font-size="8" fill="gray">5</text>
    <circle cx="47.24" cy="46.11" r="3" fill="red" />
    <text x="52.24" y="41.11" font-size="8" fill="gray">6</text>
    <circle cx="52.05" cy="51.95" r="3" fill="red" />
    <text x="57.05" y="46.95" font-size="8" fill="gray">7</text>
    <circle cx="56.62" cy="57.96" r="3" fill="red" />
    <text x="61.62" y="52.96" font-size="8" fill="gray">8</text>
    <circle cx="60.96" cy="64.15" r="3" fill="red" />
    <text x="65.96" y="59.15" font-size="8" fill="gray">9</text>
    <circle cx="65.05" cy="70.50" r="3" fill="red" />
    <text x="70.05" y="65.50" font-size="8" fill="gray">10</text>
    <circle cx="68.90" cy="77.01" r="3" fill="red" />
    <text x="73.90" y="72.01" font-size="8" fill="gray">11</text>
    <circle cx="72.48" cy="83.67" r="3" fill="red" />
    <text x="77.48" y="78.67" font-size="8" fill="gray">12</text>
    <circle cx="75.81" cy="90.45" r="3" fill="red" />
    <text x="80.81" y="85.45" font-size="8" fill="gray">13</text>
    <circle cx="78.87" cy="97.37" r="3" fill="red" />
    <text x="83.87" y="92.37" font-size="8" fill="gray">14</text>
    <circle cx="81.65" cy="104.39" r="3" fill="red" />
    <text x="86.65" y="99.39" font-size="8" fill="gray">15</text>
    <circle cx="84.16" cy="111.52" r="3" fill="red" />
    <text x="89.16" y="106.52" font-size="8" fill="gray">16</text>
    <circle cx="86.39" cy="118.75" r="3" fill="red" />
    <text x="91.39" y="113.75" font-size="8" fill="gray">17</text>
    <circle cx="88.33" cy="126.05" r="3" fill="red" />
    <text x="93.33" y="121.05" font-size="8" fill="gray">18</text>
    <circle cx="89.99" cy="133.42" r="3" fill="red" />
    <text x="94.99" y="128.42" font-size="8" fill="gray">19</text>
    <circle cx="91.36" cy="140.86" r="3" fill="red" />
    <text x="96.36" y="135.86" font-size="8" fill="gray">20</text>
    <circle cx="92.44" cy="148.34" r="3" fill="red" />
    <text x="97.44" y="143.34" font-size="8" fill="gray">21</text>
    <circle cx="219.22" cy="148.34" r="3" fill="red" />
    <text x="224.22" y="143.34" font-size="8" fill="gray">22</text>
    <circle cx="219.72" cy="161.13" r="3" fill="red" />
    <text x="224.72" y="156.13" font-size="8" fill="gray">23</text>
    <circle cx="221.23" cy="173.84" r="3" fill="red" />
    <text x="226.23" y="168.84" font-size="8" fill="gray">24</text>
    <circle cx="223.72" cy="186.39" r="3" fill="red" />
    <text x="228.72" y="181.39" font-size="8" fill="gray">25</text>
    <circle cx="227.20" cy="198.71" r="3" fill="red" />
    <text x="232.20" y="193.71" font-size="8" fill="gray">26</text>
    <circle cx="231.63" cy="210.71" r="3" fill="red" />
    <text x="236.63" y="205.71" font-size="8" fill="gray">27</text>
    <circle cx="236.99" cy="222.34" r="3" fill="red" />
    <text x="241.99" y="217.34" font-size="8" fill="gray">28</text>
    <circle cx="243.24" cy="233.50" r="3" fill="red" />
    <text x="248.24" y="228.50" font-size="8" fill="gray">29</text>
    <circle cx="250.35" cy="244.14" r="3" fill="red" />
    <text x="255.35" y="239.14" font-size="8" fill="gray">30</text>
    <circle cx="258.27" cy="254.20" r="3" fill="red" />
    <text x="263.27" y="249.20" font-size="8" fill="gray">31</text>
    <circle cx="266.96" cy="263.59" r="3" fill="red" />
    <text x="271.96" y="258.59" font-size="8" fill="gray">32</text>
    <circle cx="276.36" cy="272.28" r="3" fill="red" />
    <text x="281.36" y="267.28" font-size="8" fill="gray">33</text>
    <circle cx="286.41" cy="280.20" r="3" fill="red" />
    <text x="291.41" y="275.20" font-size="8" fill="gray">34</text>
    <circle cx="297.05" cy="287.32" r="3" fill="red" />
    <text x="302.05" y="282.32" font-size="8" fill="gray">35</text>
    <circle cx="308.22" cy="293.57" r="3" fill="red" />
    <text x="313.22" y="288.57" font-size="8" fill="gray">36</text>
    <circle cx="319.84" cy="298.93" r="3" fill="red" />
    <text x="324.84" y="293.93" font-size="8" fill="gray">37</text>
    <circle cx="331.85" cy="303.36" r="3" fill="red" />
    <text x="336.85" y="298.36" font-size="8" fill="gray">38</text>
    <circle cx="344.17" cy="306.83" r="3" fill="red" />
    <text x="349.17" y="301.83" font-size="8" fill="gray">39</text>
    <circle cx="356.72" cy="309.33" r="3" fill="red" />
    <text x="361.72" y="304.33" font-size="8" fill="gray">40</text>
    <circle cx="369.43" cy="310.83" r="3" fill="red" />
    <text x="374.43" y="305.83" font-size="8" fill="gray">41</text>
    <circle cx="382.22" cy="311.33" r="3" fill="red" />
    <text x="387.22" y="306.33" font-size="8" fill="gray">42</text>
    <circle cx="382.22" cy="420.00" r="3" fill="red" />
    <text x="387.22" y="415.00" font-size="8" fill="gray">43</text>

  <!-- Center marker -->
  <circle cx="201.11" cy="220.00" r="5" class="center-mark" />
  <line x1="193.11" y1="220.00" x2="209.11" y2="220.00" class="center-mark" />
  <line x1="201.11" y1="212.00" x2="201.11" y2="228.00" class="center-mark" />

  <!-- Legend -->
  <text x="10" y="15" font-size="10" fill="black">Profile: 44 points</text>
  <text x="10" y="27" font-size="10" fill="black">Bounds: [0.00, 0.00] to [4.00, 4.42]</text>
</svg>