<svg xmlns="http://www.w3.org/2000/svg" viewBox="-46.326923008389116 -45.880487579468074 106.27601037819191 93.68149119515223" stroke-linecap="round"><line x1="-21.34836465120316" y1="-15.86072146892548" x2="-10.55306289345026" y2="-34.30269658565521" stroke="blue" stroke-width="1" fill="none" />
<line x1="-32.36857056617737" y1="-18.3346439152956" x2="-14.37639910727739" y2="-41.04975983500481" stroke="blue" stroke-width="1" fill="none" />
<line x1="-10.55306289345026" y1="-34.30269658565521" x2="-8.304041810333729" y2="-11.36267744004727" stroke="blue" stroke-width="1" fill="none" />
<circle cx="-31.01915679872036" cy="32.4932374060154" r="10.47703846520549" stroke="green" stroke-width="1" fill="none" />
<circle cx="-11.22776884585619" cy="20.34852094948292" r="9.74008676784766" stroke="green" stroke-width="1" fill="none" />
<circle cx="-24.27209168672562" cy="10.90263202786446" r="6.36516628500383" stroke="green" stroke-width="1" fill="none" />
<path d="M 2.491260180249812 -24.63190257549288 A 13.66504528715877 13.66504528715877 0 1 0 25.431277230381973 -36.55171394348144" stroke="red" stroke-width="1" fill="none" />
<path d="M 52.419532090425506 -29.354847967624664 A 27.37426384385359 27.37426384385359 0 0 0 30.154220759868622 -8.663851767778374" stroke="red" stroke-width="1" fill="none" />
<path d="M 55.11835962533954 -7.764243986457631 A 27.57318397422526 27.57318397422526 0 0 0 52.4195320904255 -29.35484796762467" stroke="red" stroke-width="1" fill="none" />
<polygon points="-1.9322910977853076,-0.9661455488926538 -1.9322910977853076,0.9661455488926538 1.9322910977853076,0" transform="translate(-10.55306289345026,-34.30269658565521) rotate(102.37195440352718)" fill="orange" stroke="black" stroke-width="0.5" />
<polygon points="-1.9322910977853076,-0.9661455488926538 -1.9322910977853076,0.9661455488926538 1.9322910977853076,0" transform="translate(52.419532090425506,-29.354847967624664) rotate(-154.77093673695472)" fill="orange" stroke="black" stroke-width="0.5" /></svg>